<?xml version="1.0" standalone="no"?>
<!DOCTYPE svg PUBLIC "-//W3C//DTD SVG 1.1//EN" "http://www.w3.org/Graphics/SVG/1.1/DTD/svg11.dtd" >
<svg xmlns="http://www.w3.org/2000/svg" xmlns:xlink="http://www.w3.org/1999/xlink" version="1.1">
<metadata>
Created by FontForge 20170731 at Fri Jul 17 19:52:18 2015
 By Aleksey,,,
(c) 2015, Copyright by Lineto. All rights reserved.
</metadata>
<defs>
<font id="DRLCircular-Black" horiz-adv-x="587" >
  <font-face 
    font-family="DRL Circular Black"
    font-weight="900"
    font-stretch="normal"
    units-per-em="1000"
    panose-1="2 11 10 4 2 1 1 1 1 2"
    ascent="750"
    descent="-250"
    x-height="497"
    cap-height="709"
    bbox="-200 -273 1585 1049"
    underline-thickness="50"
    underline-position="-200"
    unicode-range="U+000D-FEFF"
  />
<missing-glyph horiz-adv-x="590" 
d="M64 0v709h462v-709h-462zM188 124h214v461h-214v-461z" />
    <glyph glyph-name="f_f" unicode="ff" horiz-adv-x="715" 
d="M697 369h-108v-369h-152v369h-175v-369h-152v369h-79v128h79v43q0 87 50.5 139.5t139.5 52.5q50 0 72 -11v-124q-20 5 -45 5t-45 -14t-20 -48v-43h175v43q0 87 50 139.5t139 52.5q53 0 73 -10v-125q-20 5 -45 5q-26 0 -45.5 -14t-19.5 -48v-43h108v-128z" />
    <glyph glyph-name="f_f_i" unicode="ffi" horiz-adv-x="992" 
d="M300 732q48 0 72 -12v-123q-20 5 -45 5q-65 0 -65 -62v-43h175v43q0 87 50 139.5t139 52.5q51 0 73 -11v-124q-20 5 -45 5q-26 0 -45.5 -14t-19.5 -48v-43h339v-497h-153v369h-186v-369h-152v369h-175v-369h-152v369h-79v128h79v43q0 87 50.5 139.5t139.5 52.5zM762 649
q0 37 26 63t63 26t63 -26t26 -63t-26 -63t-63 -26t-63 26t-26 63z" />
    <glyph glyph-name="f_f_l" unicode="ffl" horiz-adv-x="992" 
d="M327 602q-25 0 -45 -14t-20 -48v-43h175v43q0 87 50 139.5t139 52.5q51 0 73 -11v-124q-20 5 -45 5q-26 0 -45.5 -14t-19.5 -48v-43h187v227h152v-724h-152v369h-187v-369h-152v369h-175v-369h-152v369h-79v128h79v43q0 87 50.5 139.5t139.5 52.5q50 0 72 -11v-124
q-20 5 -45 5z" />
    <glyph glyph-name="f_i" unicode="fi" horiz-adv-x="661" 
d="M445 369h-183v-369h-152v369h-79v128h79v43q0 87 50.5 139.5t139.5 52.5q48 0 70 -11v-124q-18 5 -43 5t-45 -14t-20 -48v-43h335v-497h-152v369zM432 649q0 37 26 63t62 26q38 0 64 -26t26 -63t-26.5 -63t-63.5 -26q-36 0 -62 26t-26 63z" />
    <glyph glyph-name="f_l" unicode="fl" horiz-adv-x="661" 
d="M327 602q-25 0 -45 -14t-20 -48v-43h182v227h153v-724h-153v369h-182v-369h-152v369h-79v128h79v43q0 87 50.5 139.5t139.5 52.5q48 0 70 -11v-124q-18 5 -43 5z" />
    <glyph glyph-name=".notdef" horiz-adv-x="590" 
d="M64 0v709h462v-709h-462zM188 124h214v461h-214v-461z" />
    <glyph glyph-name=".null" horiz-adv-x="0" 
 />
    <glyph glyph-name=".null" horiz-adv-x="0" 
 />
    <glyph glyph-name="uni000D" unicode="&#xd;" horiz-adv-x="232" 
 />
    <glyph glyph-name="space" unicode=" " horiz-adv-x="232" 
 />
    <glyph glyph-name="exclam" unicode="!" horiz-adv-x="307" 
d="M245 709l-35 -487h-112l-35 487h182zM67 76q0 36 25 61.5t61 25.5t61.5 -25.5t25.5 -61.5q0 -35 -25.5 -60.5t-61.5 -25.5t-61 25.5t-25 60.5z" />
    <glyph glyph-name="quotedbl" unicode="&#x22;" horiz-adv-x="437" 
d="M41 577q0 35 23.5 59t58.5 24q34 0 57.5 -24t23.5 -59q0 -16 -4 -30l-50 -181h-54l-50 181zM232 577q0 35 23.5 59t58.5 24q34 0 57.5 -24t23.5 -59q0 -16 -4 -30l-50 -181h-54l-50 181z" />
    <glyph glyph-name="numbersign" unicode="#" horiz-adv-x="729" 
d="M78 392v105h144l33 152h114l-33 -152h126l33 152h115l-33 -152h123v-105h-145l-28 -130h122v-106h-145l-33 -156h-115l33 156h-126l-33 -156h-114l33 156h-120v106h143l28 130h-122zM314 392l-28 -130h126l28 130h-126z" />
    <glyph glyph-name="dollar" unicode="$" horiz-adv-x="566" 
d="M353 -117h-115v107q-98 16 -152 77.5t-60 131.5l138 31q4 -47 37 -78.5t94 -31.5q38 0 62 17t24 46q0 43 -62 57l-89 21q-85 20 -133 70t-48 120q0 81 53.5 137t135.5 70v108h115v-111q76 -17 119 -64.5t55 -106.5l-139 -37q-16 83 -102 83q-40 0 -62 -19.5t-22 -45.5
q0 -43 59 -57l87 -19q96 -21 141.5 -73.5t45.5 -124.5t-49 -128t-133 -71v-109z" />
    <glyph glyph-name="percent" unicode="%" horiz-adv-x="847" 
d="M134 495q0 -30 17 -48t44 -18q26 0 43 18.5t17 47.5q0 28 -17 46t-43 18t-43.5 -18t-17.5 -46zM26 495q0 69 50 117.5t119 48.5t119 -48.5t50 -117.5q0 -71 -49.5 -118.5t-120.5 -47.5q-70 0 -119 48t-49 118zM591 153q0 -30 17 -48t44 -18q26 0 43 18.5t17 47.5
q0 28 -17 46t-43 18t-43.5 -18t-17.5 -46zM483 153q0 69 50 117.5t119 48.5t119 -48.5t50 -117.5q0 -71 -49.5 -118.5t-120.5 -47.5q-70 0 -119 48t-49 118zM262 0h-129l453 649h130z" />
    <glyph glyph-name="ampersand" unicode="&#x26;" horiz-adv-x="708" 
d="M509 0l-64 69q-81 -83 -186 -83q-100 0 -159.5 58.5t-59.5 136.5q0 61 29.5 104.5t91.5 88.5l-10 11q-74 81 -74 151q0 86 60.5 137t140.5 51q88 0 145.5 -51t57.5 -131q0 -90 -100 -163l-23 -17l95 -100l189 193v-186l-100 -101l159 -168h-192zM263 116q49 0 94 47
l-110 118l-5 -4q-55 -40 -55 -88q0 -29 21.5 -51t54.5 -22zM218 541q0 -31 36 -69l17 -18l28 20q41 30 41 68q0 25 -18 42.5t-44 17.5q-25 0 -42.5 -15.5t-17.5 -45.5z" />
    <glyph glyph-name="quotesingle" unicode="'" horiz-adv-x="246" 
d="M41 577q0 35 23.5 59t58.5 24q34 0 57.5 -24t23.5 -59q0 -16 -4 -30l-50 -181h-54l-50 181z" />
    <glyph glyph-name="parenleft" unicode="(" horiz-adv-x="353" 
d="M39 324q0 298 220 507l86 -81q-87 -91 -133 -193.5t-46 -232.5t46 -232.5t133 -193.5l-86 -81q-220 211 -220 507z" />
    <glyph glyph-name="parenright" unicode=")" horiz-adv-x="353" 
d="M314 324q0 -295 -219 -507l-87 81q88 92 134 194t46 232t-46 232t-134 194l87 81q219 -210 219 -507z" />
    <glyph glyph-name="asterisk" unicode="*" horiz-adv-x="487" 
d="M303 709v-123l114 37l38 -110l-115 -38l70 -97l-94 -69l-73 98l-72 -98l-94 69l70 97l-115 38l37 110l114 -37v123h120z" />
    <glyph glyph-name="plus" unicode="+" horiz-adv-x="567" 
d="M30 360h190v195h128v-195h189v-124h-189v-195h-128v195h-190v124z" />
    <glyph glyph-name="comma" unicode="," horiz-adv-x="296" 
d="M44 88q0 40 28.5 66.5t71.5 26.5q50 0 79 -36.5t29 -88.5q0 -55 -18 -99.5t-47.5 -71t-61 -41t-63.5 -18.5v71q36 7 67.5 36.5t32.5 71.5q-9 -7 -28 -7q-40 0 -65 26t-25 64z" />
    <glyph glyph-name="hyphen" unicode="-" horiz-adv-x="420" 
d="M360 233h-300v137h300v-137z" />
    <glyph glyph-name="period" unicode="." horiz-adv-x="289" 
d="M42 94q0 42 30 72t72 30t72.5 -30t30.5 -72q0 -41 -30.5 -72t-72.5 -31t-72 30.5t-30 72.5z" />
    <glyph glyph-name="slash" unicode="/" horiz-adv-x="528" 
d="M505 709l-346 -709h-135l345 709h136z" />
    <glyph glyph-name="zero" unicode="0" horiz-adv-x="639" 
d="M200 324q0 -90 24 -141q30 -60 95 -60t95 60q25 50 25 141t-25 141q-30 60 -95 60t-95 -60q-24 -51 -24 -141zM42 324q0 143 57 229q73 111 220 111q148 0 221 -111q57 -86 57 -229t-57 -229q-75 -111 -221 -111q-145 0 -220 111q-57 86 -57 229z" />
    <glyph glyph-name="one" unicode="1" horiz-adv-x="417" 
d="M334 0h-157v422h-155v105q71 1 119.5 36t57.5 86h135v-649z" />
    <glyph glyph-name="two" unicode="2" horiz-adv-x="576" 
d="M198 389l-148 1q-6 16 -6 54q0 92 65.5 156t177.5 64q109 0 175 -61.5t66 -151.5q0 -126 -128 -202l-123 -73q-33 -21 -44 -44h300v-132h-493q0 96 34.5 166.5t118.5 119.5l106 62q39 23 55 45.5t16 54.5q0 33 -22.5 55t-64.5 22q-44 0 -67.5 -27t-23.5 -69q0 -21 6 -40z
" />
    <glyph glyph-name="three" unicode="3" horiz-adv-x="583" 
d="M231 282l-68 104l160 131h-271v132h468v-122l-160 -124q77 -5 129.5 -60.5t52.5 -137.5q0 -90 -69.5 -154.5t-185.5 -64.5q-109 0 -179 60.5t-78 147.5l152 28q2 -44 30.5 -73t73.5 -29q44 0 70.5 26t26.5 63q0 43 -28 65.5t-66 22.5q-30 0 -58 -15z" />
    <glyph glyph-name="four" unicode="4" horiz-adv-x="619" 
d="M29 135v160l270 354h188v-382h104v-132h-104v-135h-158v135h-300zM329 267v214l-163 -214h163z" />
    <glyph glyph-name="five" unicode="5" horiz-adv-x="567" 
d="M29 185l146 30q2 -40 30.5 -68.5t74.5 -28.5q41 0 69 25.5t28 68.5q0 46 -29.5 71t-71.5 25q-57 0 -91 -42l-23 8q-22 7 -47.5 15t-47.5 15t-23 8l73 337h377v-132h-268l-26 -122q40 35 110 35q102 0 163 -57t61 -160q0 -95 -68.5 -162t-185.5 -67q-104 0 -174.5 60.5
t-76.5 140.5z" />
    <glyph glyph-name="six" unicode="6" horiz-adv-x="599" 
d="M548 637l-42 -128q-57 21 -102 21q-83 0 -139.5 -42t-70.5 -123q18 30 59 49t95 19q98 0 157.5 -60.5t59.5 -155.5q0 -100 -71.5 -166t-184.5 -66q-118 0 -193.5 80.5t-75.5 217.5q0 172 102 276.5t271 104.5q88 0 135 -27zM206 211q0 -41 29 -67.5t72 -26.5t72.5 26
t29.5 68t-29.5 68.5t-72.5 26.5t-72 -26t-29 -69z" />
    <glyph glyph-name="seven" unicode="7" horiz-adv-x="542" 
d="M527 649v-126q-22 -19 -42 -39t-58 -69.5t-66.5 -103.5t-54 -137.5t-33.5 -173.5h-164q6 69 21.5 134.5t36.5 115.5t44.5 94.5t46.5 75t41.5 53.5t30.5 33l11 11h-318v132h504z" />
    <glyph glyph-name="eight" unicode="8" horiz-adv-x="585" 
d="M292 388q40 1 61.5 22.5t21.5 53.5q0 28 -22.5 49t-60.5 21t-60.5 -21t-22.5 -49q0 -31 21.5 -53t61.5 -23zM292 113q45 0 71 24.5t26 56.5q0 33 -25 58t-72 25q-46 0 -71 -25t-25 -58q0 -32 26 -56.5t70 -24.5zM292 -15q-111 0 -180.5 53t-69.5 138q0 51 30 94.5
t80 63.5q-47 17 -72.5 58.5t-25.5 83.5q0 82 66.5 135t171.5 53t172 -53t67 -135q0 -42 -26 -83.5t-73 -58.5q51 -20 81 -63.5t30 -94.5q0 -85 -70 -138t-181 -53z" />
    <glyph glyph-name="nine" unicode="9" horiz-adv-x="592" 
d="M54 19l34 127q50 -26 114 -26q81 0 135.5 39.5t61.5 120.5q-20 -29 -58.5 -46t-82.5 -17q-95 0 -159.5 61t-64.5 157q0 100 70.5 164.5t183.5 64.5q116 0 189.5 -81t73.5 -231q0 -174 -90 -270.5t-256 -96.5q-93 0 -151 34zM378 440q0 40 -27.5 66t-69.5 26t-69.5 -26
t-27.5 -66t27.5 -66t69.5 -26q41 0 69 26t28 66z" />
    <glyph glyph-name="colon" unicode=":" horiz-adv-x="309" 
d="M55 91q0 41 29 70.5t70 29.5t70.5 -29.5t29.5 -70.5q0 -40 -29.5 -70t-70.5 -30q-40 0 -69.5 30t-29.5 70zM55 406q0 41 29 70.5t70 29.5t70.5 -29.5t29.5 -70.5q0 -40 -29.5 -70t-70.5 -30q-40 0 -69.5 30t-29.5 70z" />
    <glyph glyph-name="semicolon" unicode=";" horiz-adv-x="312" 
d="M58 82q0 38 27.5 63t67.5 25q47 0 74.5 -34.5t27.5 -84.5q0 -100 -56 -155.5t-124 -62.5v67q35 7 64.5 35t30.5 68q-9 -7 -27 -7q-38 0 -61.5 24.5t-23.5 61.5zM55 406q0 41 29 70.5t70 29.5t70.5 -29.5t29.5 -70.5q0 -40 -29.5 -70t-70.5 -30q-40 0 -69.5 30t-29.5 70z
" />
    <glyph glyph-name="less" unicode="&#x3c;" horiz-adv-x="523" 
d="M28 244v108l439 224v-138l-288 -137l288 -139v-140z" />
    <glyph glyph-name="equal" unicode="=" horiz-adv-x="609" 
d="M552 339h-495v122h495v-122zM552 138h-495v122h495v-122z" />
    <glyph glyph-name="greater" unicode="&#x3e;" horiz-adv-x="523" 
d="M495 353v-108l-439 -223v137l288 138l-288 139v140z" />
    <glyph glyph-name="question" unicode="?" horiz-adv-x="536" 
d="M312 222h-119q-4 19 -4 44q0 84 76 141l51 38q36 27 36 70q0 32 -23 54.5t-66 22.5q-41 0 -66.5 -28.5t-25.5 -65.5q0 -25 3 -37l-140 5q-4 19 -4 42q0 91 63.5 153.5t169.5 62.5q115 0 179 -58t64 -139q0 -107 -97 -180l-38 -28q-29 -22 -44 -44t-15 -53zM170 76
q0 36 25 61.5t61 25.5t61.5 -25.5t25.5 -61.5q0 -35 -25.5 -60.5t-61.5 -25.5t-61 25.5t-25 60.5z" />
    <glyph glyph-name="at" unicode="@" horiz-adv-x="831" 
d="M591 141h-4q-38 0 -61.5 17t-30.5 41q-35 -60 -115 -60q-64 0 -107.5 48.5t-43.5 123.5q0 96 58 159.5t138 63.5q28 0 54 -14t37 -39l8 40h103l-52 -243q-1 -4 -1 -12q0 -12 8 -20.5t20 -8.5q37 0 65.5 44.5t28.5 113.5q0 103 -71.5 167t-183.5 64q-124 0 -205 -81.5
t-81 -211.5q0 -124 79 -204t214 -80q99 0 173 52l51 -73q-38 -34 -102 -55t-122 -21q-177 0 -290.5 104.5t-113.5 273.5q0 172 115 283.5t281 111.5q156 0 258 -94t102 -235q0 -110 -63.5 -181.5t-145.5 -73.5zM494 365q0 32 -15.5 51t-43.5 19q-41 0 -66.5 -33t-25.5 -82
q0 -83 63 -83q37 0 62 36t26 92z" />
    <glyph glyph-name="A" unicode="A" horiz-adv-x="729" 
d="M549 0l-51 144h-274l-51 -144h-166l267 709h183l264 -709h-172zM363 533l-87 -245h172z" />
    <glyph glyph-name="B" unicode="B" horiz-adv-x="629" 
d="M80 709h265q103 0 162 -53t59 -137q0 -53 -29.5 -95t-74.5 -57q52 -12 89 -56.5t37 -109.5q0 -88 -61.5 -144.5t-160.5 -56.5h-286v709zM234 425h86q42 0 66.5 20.5t24.5 56.5q0 35 -24 55.5t-69 20.5h-84v-153zM234 129h99q46 0 72 22.5t26 60.5q0 37 -26 60t-72 23h-99
v-166z" />
    <glyph glyph-name="C" unicode="C" horiz-adv-x="765" 
d="M407 -15q-156 0 -262 102.5t-106 265.5q0 162 107 266.5t259 104.5q76 0 137.5 -22.5t99.5 -59.5t61 -76t32 -81l-149 -47q-5 21 -16 41.5t-31 42t-55 35t-79 13.5q-80 0 -141 -56.5t-61 -160.5q0 -96 60 -153t144 -57q82 0 127 41t59 92l151 -43q-10 -41 -32.5 -81
t-61 -79t-102 -63.5t-141.5 -24.5z" />
    <glyph glyph-name="D" unicode="D" horiz-adv-x="734" 
d="M238 149h92q87 0 142.5 52t55.5 153q0 102 -55.5 154t-142.5 52h-92v-411zM336 0h-256v709h257q161 0 258.5 -96t97.5 -259t-97.5 -258.5t-259.5 -95.5z" />
    <glyph glyph-name="E" unicode="E" horiz-adv-x="581" 
d="M530 0h-450v709h449v-149h-291v-135h264v-139h-264v-136h292v-150z" />
    <glyph glyph-name="F" unicode="F" horiz-adv-x="573" 
d="M239 0h-159v709h457v-150h-299v-150h263v-144h-262v-265z" />
    <glyph glyph-name="G" unicode="G" horiz-adv-x="789" 
d="M735 0h-128l-10 72q-26 -37 -77 -62t-122 -25q-152 0 -255.5 102.5t-103.5 266.5q0 163 107.5 266.5t261.5 103.5q138 0 219 -65t109 -154l-152 -53q-11 45 -54.5 84.5t-121.5 39.5q-82 0 -145.5 -56.5t-63.5 -165.5q0 -106 61 -165.5t152 -59.5q78 0 122 37.5t53 78.5
h-213v134h361v-379z" />
    <glyph glyph-name="H" unicode="H" horiz-adv-x="760" 
d="M680 0h-159v282h-283v-282h-158v709h158v-278h283v278h159v-709z" />
    <glyph glyph-name="I" unicode="I" horiz-adv-x="320" 
d="M240 0h-160v709h160v-709z" />
    <glyph glyph-name="J" unicode="J" horiz-adv-x="570" 
d="M19 219v47l150 26v-65q0 -45 24.5 -68.5t61.5 -23.5q38 0 60.5 25.5t22.5 65.5v483h158v-487q0 -99 -68 -168t-172 -69q-106 0 -171.5 64.5t-65.5 169.5z" />
    <glyph glyph-name="K" unicode="K" horiz-adv-x="705" 
d="M509 0l-191 279l-80 -89v-190h-158v709h158v-298l259 298h208l-276 -307l277 -402h-197z" />
    <glyph glyph-name="L" unicode="L" horiz-adv-x="560" 
d="M544 0h-464v709h158v-558h306v-151z" />
    <glyph glyph-name="M" unicode="M" horiz-adv-x="963" 
d="M883 0h-155v470l-185 -470h-128l-185 464v-464h-150v709h206l195 -479l185 479h217v-709z" />
    <glyph glyph-name="N" unicode="N" horiz-adv-x="776" 
d="M696 0h-167l-292 466v-466h-157v709h192l266 -431v431h158v-709z" />
    <glyph glyph-name="O" unicode="O" horiz-adv-x="815" 
d="M203 355q0 -104 61.5 -159t143.5 -55t143 55t61 159t-61 159.5t-143 55.5t-143.5 -55.5t-61.5 -159.5zM39 354q0 165 107.5 267.5t261.5 102.5t261 -103t107 -267t-107 -266.5t-261 -102.5t-261.5 102.5t-107.5 266.5z" />
    <glyph glyph-name="P" unicode="P" horiz-adv-x="612" 
d="M239 391h92q45 0 73 24.5t28 65.5q0 42 -27.5 66.5t-73.5 24.5h-92v-181zM347 255h-109v-255h-158v709h267q108 0 175.5 -64t67.5 -163q0 -101 -67.5 -164t-175.5 -63z" />
    <glyph glyph-name="Q" unicode="Q" horiz-adv-x="815" 
d="M39 354q0 165 107.5 267.5t261.5 102.5t261 -103t107 -267q0 -138 -80 -236l87 -95l-104 -88l-87 96q-83 -46 -184 -46q-154 0 -261.5 102.5t-107.5 266.5zM203 355q0 -104 61.5 -159t143.5 -55q36 0 72 12l-104 114l105 88l104 -114q27 49 27 114q0 104 -61 159.5
t-143 55.5t-143.5 -55.5t-61.5 -159.5z" />
    <glyph glyph-name="R" unicode="R" horiz-adv-x="634" 
d="M421 0l-127 264h-56v-264h-158v709h281q103 0 166.5 -63t63.5 -159q0 -72 -37 -124.5t-103 -75.5l144 -287h-174zM238 400h93q48 0 74 23.5t26 62.5q0 40 -26 63t-74 23h-93v-172z" />
    <glyph glyph-name="S" unicode="S" horiz-adv-x="623" 
d="M571 535l-142 -40q-5 33 -33 61t-85 28q-43 0 -70 -22.5t-27 -53.5q0 -55 70 -68l95 -18q98 -18 151.5 -76.5t53.5 -136.5q0 -89 -71 -156.5t-191 -67.5q-134 0 -207.5 69.5t-82.5 157.5l145 35q5 -53 41.5 -87.5t105.5 -34.5q46 0 73 20.5t27 53.5q0 27 -20 45.5
t-56 25.5l-97 18q-90 17 -141.5 73t-51.5 135q0 98 75 163t179 65q63 0 112.5 -17.5t78.5 -46.5t45.5 -60t22.5 -65z" />
    <glyph glyph-name="T" unicode="T" horiz-adv-x="629" 
d="M612 558h-219v-558h-158v558h-218v151h595v-151z" />
    <glyph glyph-name="U" unicode="U" horiz-adv-x="708" 
d="M354 -16q-122 0 -201.5 71.5t-79.5 200.5v453h158v-440q0 -63 32.5 -96t90.5 -33t90.5 33t32.5 96v440h158v-453q0 -129 -79.5 -200.5t-201.5 -71.5z" />
    <glyph glyph-name="V" unicode="V" horiz-adv-x="699" 
d="M353 210l169 499h168l-259 -709h-163l-260 709h174z" />
    <glyph glyph-name="W" unicode="W" horiz-adv-x="1052" 
d="M758 254l115 455h162l-193 -709h-163l-151 470l-152 -470h-166l-193 709h168l117 -454l147 454h162z" />
    <glyph glyph-name="X" unicode="X" horiz-adv-x="668" 
d="M661 709l-228 -356l230 -353h-192l-140 230l-139 -230h-186l229 355l-229 354h190l140 -230l140 230h185z" />
    <glyph glyph-name="Y" unicode="Y" horiz-adv-x="665" 
d="M253 296l-246 413h185l145 -263l147 263h176l-249 -413v-296h-158v296z" />
    <glyph glyph-name="Z" unicode="Z" horiz-adv-x="649" 
d="M604 0h-563v152l342 406h-327v151h544v-146l-350 -412h354v-151z" />
    <glyph glyph-name="bracketleft" unicode="[" horiz-adv-x="355" 
d="M329 -171h-249v994h249v-114h-123v-764h123v-116z" />
    <glyph glyph-name="backslash" unicode="\" horiz-adv-x="530" 
d="M369 0l-346 709h138l345 -709h-137z" />
    <glyph glyph-name="bracketright" unicode="]" horiz-adv-x="356" 
d="M276 -171h-250v116h124v764h-124v114h250v-994z" />
    <glyph glyph-name="asciicircum" unicode="^" horiz-adv-x="575" 
d="M543 350h-138l-116 217l-117 -217h-140l199 359h112z" />
    <glyph glyph-name="underscore" unicode="_" horiz-adv-x="520" 
d="M515 -124h-510v124h510v-124z" />
    <glyph glyph-name="grave" unicode="`" horiz-adv-x="308" 
d="M163 556l-142 151h173l93 -151h-124z" />
    <glyph glyph-name="a" unicode="a" horiz-adv-x="545" 
d="M37 137q0 63 41 101.5t106 48.5l117 18q36 5 36 34q0 23 -19.5 38.5t-53.5 15.5q-38 0 -60.5 -21.5t-24.5 -51.5l-132 27q5 62 61.5 113.5t156.5 51.5q113 0 166.5 -54t53.5 -138v-243q0 -47 6 -77h-137q-5 20 -5 56q-43 -70 -140 -70q-79 0 -125.5 44.5t-46.5 106.5z
M246 96q39 0 65 23t26 76v22l-94 -15q-56 -9 -56 -55q0 -21 14.5 -36t44.5 -15z" />
    <glyph glyph-name="b" unicode="b" horiz-adv-x="625" 
d="M211 0h-147v724h149v-274q17 25 56 42t88 17q106 0 168.5 -72.5t62.5 -186.5t-66.5 -187.5t-170.5 -73.5q-48 0 -85 18.5t-55 48.5v-56zM436 249q0 60 -32 91.5t-80 31.5t-80.5 -31.5t-32.5 -91.5q0 -59 33 -91.5t80 -32.5t79.5 32.5t32.5 91.5z" />
    <glyph glyph-name="c" unicode="c" horiz-adv-x="567" 
d="M301 372q-49 0 -81.5 -33t-32.5 -91q0 -57 33.5 -90t82.5 -33q41 0 67.5 21.5t35.5 52.5l134 -41q-18 -71 -80.5 -122t-156.5 -51q-112 0 -189.5 74.5t-77.5 188.5q0 115 75.5 189.5t186.5 74.5q97 0 159 -50t80 -123l-136 -41q-9 32 -34 53t-66 21z" />
    <glyph glyph-name="d" unicode="d" horiz-adv-x="627" 
d="M562 724v-635q0 -45 4 -89h-146q-4 24 -4 48q-18 -26 -53.5 -42.5t-79.5 -16.5q-106 0 -176 73.5t-70 187.5q0 112 68 185.5t173 73.5q102 0 134 -51v266h150zM190 249q0 -59 32.5 -91.5t79.5 -32.5t79.5 32.5t32.5 91.5t-32.5 91t-79.5 32t-79.5 -32t-32.5 -91z" />
    <glyph glyph-name="e" unicode="e" horiz-adv-x="570" 
d="M187 308h199q-2 34 -26.5 59t-73.5 25q-44 0 -70 -26t-29 -58zM397 179l127 -36q-19 -69 -79 -113.5t-150 -44.5q-108 0 -183.5 72t-75.5 193q0 116 73.5 189t174.5 73q116 0 182.5 -67.5t66.5 -187.5q0 -38 -3 -47h-346q2 -41 35 -68.5t78 -27.5q77 0 100 65z" />
    <glyph glyph-name="f" unicode="f" horiz-adv-x="388" 
d="M370 369h-108v-369h-152v369h-79v128h79v43q0 87 50.5 139.5t139.5 52.5q50 0 72 -11v-124q-20 5 -45 5q-26 0 -45.5 -15t-19.5 -52v-38h108v-128z" />
    <glyph glyph-name="g" unicode="g" horiz-adv-x="614" 
d="M36 -28l134 38q8 -37 36.5 -60t70.5 -23q123 0 123 127v23q-37 -56 -133 -56q-99 0 -165 69t-66 173q0 100 65.5 171.5t165.5 71.5q55 0 90 -19t48 -43v53h145v-435q0 -116 -67 -191.5t-199 -75.5q-102 0 -169.5 52.5t-78.5 124.5zM295 153q47 0 76.5 30t29.5 80
q0 49 -31 79.5t-75 30.5t-75.5 -30.5t-31.5 -79.5q0 -50 30 -80t77 -30z" />
    <glyph glyph-name="h" unicode="h" horiz-adv-x="590" 
d="M216 292v-292h-152v724h152v-259q45 45 127 45q93 0 140.5 -55.5t47.5 -142.5v-312h-152v286q0 39 -20.5 62.5t-60.5 23.5q-35 0 -57.5 -22.5t-24.5 -57.5z" />
    <glyph glyph-name="i" unicode="i" horiz-adv-x="280" 
d="M216 0h-152v497h152v-497zM51 649q0 37 26 63t62 26q37 0 63.5 -26t26.5 -63t-26.5 -63t-63.5 -26q-36 0 -62 26t-26 63z" />
    <glyph glyph-name="j" unicode="j" horiz-adv-x="280" 
d="M64 -20v517h152v-533q0 -76 -44.5 -122.5t-119.5 -46.5q-51 0 -84 14v126q21 -6 45 -6q51 0 51 51zM51 649q0 37 26 63t62 26q38 0 64 -26t26 -63t-26.5 -63t-63.5 -26q-36 0 -62 26t-26 63z" />
    <glyph glyph-name="k" unicode="k" horiz-adv-x="575" 
d="M564 497l-194 -209l198 -288h-186l-117 175l-49 -53v-122h-152v724h152v-394l151 167h197z" />
    <glyph glyph-name="l" unicode="l" horiz-adv-x="280" 
d="M216 0h-152v724h152v-724z" />
    <glyph glyph-name="m" unicode="m" horiz-adv-x="897" 
d="M216 0h-152v497h145v-57q18 32 59.5 52t83.5 20q107 0 147 -78q54 78 154 78q78 0 131 -47.5t53 -142.5v-322h-147v288q0 37 -20 60.5t-59 23.5t-61 -25t-22 -60v-287h-150v288q0 37 -20.5 60.5t-59.5 23.5q-38 0 -60 -25t-22 -61v-286z" />
    <glyph glyph-name="n" unicode="n" horiz-adv-x="590" 
d="M216 285v-285h-152v497h147v-57q19 33 58.5 51.5t80.5 18.5q89 0 135 -55.5t46 -142.5v-312h-152v286q0 39 -20.5 62.5t-60.5 23.5q-37 0 -59.5 -24.5t-22.5 -62.5z" />
    <glyph glyph-name="o" unicode="o" horiz-adv-x="600" 
d="M300 125q47 0 79.5 32t32.5 92t-32.5 91.5t-79.5 31.5q-46 0 -79 -32t-33 -91t33 -91.5t79 -32.5zM300 512q113 0 188.5 -74t75.5 -189t-75.5 -189.5t-188.5 -74.5q-112 0 -188 75t-76 189t76 188.5t188 74.5z" />
    <glyph glyph-name="p" unicode="p" horiz-adv-x="625" 
d="M216 -190h-152v687h147v-51q17 26 56.5 44.5t89.5 18.5q106 0 168.5 -72.5t62.5 -186.5t-66.5 -187.5t-170.5 -73.5q-94 0 -135 50v-229zM439 249q0 59 -32.5 91t-80.5 32q-47 0 -79.5 -32t-32.5 -91t32.5 -91.5t79.5 -32.5q48 0 80.5 32.5t32.5 91.5z" />
    <glyph glyph-name="q" unicode="q" horiz-adv-x="626" 
d="M562 -190h-149v230q-36 -51 -130 -51q-107 0 -176.5 73.5t-69.5 187.5q0 112 67 185.5t173 73.5q58 0 93.5 -19.5t46.5 -41.5v49h145v-687zM191 249q0 -59 32.5 -91.5t79.5 -32.5t79.5 32.5t32.5 91.5t-32.5 91t-79.5 32t-79.5 -32t-32.5 -91z" />
    <glyph glyph-name="r" unicode="r" horiz-adv-x="401" 
d="M380 497v-150q-21 5 -48 5q-50 0 -83 -33t-33 -102v-217h-152v497h147v-67q18 38 55 55t74 17q23 0 40 -5z" />
    <glyph glyph-name="s" unicode="s" horiz-adv-x="480" 
d="M34 141l129 23q2 -28 21.5 -47.5t56.5 -19.5q28 0 43 12.5t15 30.5q0 30 -49 41l-57 13q-76 16 -112 56.5t-36 96.5q0 69 54.5 117t136.5 48q97 0 145.5 -46.5t53.5 -101.5l-126 -23q-3 27 -20.5 44t-50.5 17q-22 0 -38 -12t-16 -31q0 -30 39 -37l66 -13q75 -15 114 -57
t39 -99q0 -69 -52 -118.5t-146 -49.5q-55 0 -97.5 16t-65 41.5t-34 50.5t-13.5 48z" />
    <glyph glyph-name="t" unicode="t" horiz-adv-x="394" 
d="M258 642v-145h97v-133h-97v-186q0 -52 55 -52q17 0 40 5v-126q-28 -14 -79 -14q-77 0 -121.5 43t-44.5 117v213h-88v133h25q38 0 57.5 22.5t19.5 58.5v64h136z" />
    <glyph glyph-name="u" unicode="u" horiz-adv-x="591" 
d="M385 0q-4 18 -4 50q-18 -30 -55 -45.5t-78 -15.5q-88 0 -138.5 55.5t-50.5 138.5v314h152v-282q0 -38 20.5 -62t59.5 -24q38 0 60.5 23.5t22.5 61.5v283h152v-408q0 -49 5 -89h-146z" />
    <glyph glyph-name="v" unicode="v" horiz-adv-x="569" 
d="M554 497l-189 -497h-153l-204 497h165l115 -309l106 309h160z" />
    <glyph glyph-name="w" unicode="w" horiz-adv-x="862" 
d="M355 497h161l97 -295l83 295h149l-154 -497h-151l-108 321l-106 -321h-154l-156 497h158l83 -294z" />
    <glyph glyph-name="x" unicode="x" horiz-adv-x="551" 
d="M14 0l171 248l-174 249h179l89 -136l87 136h170l-172 -243q167 -238 178 -254h-178l-92 140q-15 -23 -48 -74t-43 -66h-167z" />
    <glyph glyph-name="y" unicode="y" horiz-adv-x="576" 
d="M264 -191h-160l113 258l-209 430h170l121 -266l110 266h161z" />
    <glyph glyph-name="z" unicode="z" horiz-adv-x="506" 
d="M462 0h-417v134l219 233h-213v130h407v-125l-229 -241h233v-131z" />
    <glyph glyph-name="braceleft" unicode="{" horiz-adv-x="381" 
d="M19 269v124q96 0 96 88v145q0 98 53 147.5t146 49.5h40v-114h-37q-32 0 -54 -19t-22 -62v-170q0 -46 -25.5 -79.5t-73.5 -47.5q47 -14 73 -47.5t26 -80.5v-170q0 -43 22 -62.5t54 -19.5h37v-113h-40q-93 0 -146 49t-53 147v146q0 89 -96 89z" />
    <glyph glyph-name="bar" unicode="|" horiz-adv-x="286" 
d="M206 -162h-126v985h126v-985z" />
    <glyph glyph-name="braceright" unicode="}" horiz-adv-x="381" 
d="M361 393v-124q-95 0 -95 -89v-146q0 -98 -53 -147t-147 -49h-40v113h37q32 0 54.5 19.5t22.5 62.5v170q0 47 25.5 80.5t72.5 47.5q-47 14 -72.5 47.5t-25.5 79.5v170q0 43 -22.5 62t-54.5 19h-37v114h40q94 0 147 -49.5t53 -147.5v-145q0 -88 95 -88z" />
    <glyph glyph-name="asciitilde" unicode="~" horiz-adv-x="631" 
d="M306 230l-47 26q-23 13 -49 13q-52 0 -85 -50l-82 65q28 53 73 81.5t99 28.5q55 0 109 -29l48 -26q26 -14 51 -14q52 0 85 50l80 -65q-28 -53 -72.5 -81.5t-98.5 -28.5q-55 0 -111 30z" />
    <glyph glyph-name="uni00A0" unicode="&#xa0;" horiz-adv-x="232" 
 />
    <glyph glyph-name="exclamdown" unicode="&#xa1;" horiz-adv-x="294" 
d="M203 281l35 -487h-182l35 487h112zM61 426q0 36 25 61t61 25t61.5 -25t25.5 -61q0 -35 -25.5 -60.5t-61.5 -25.5t-61 25.5t-25 60.5z" />
    <glyph glyph-name="cent" unicode="&#xa2;" horiz-adv-x="542" 
d="M338 0h-115v84q-83 20 -136 83.5t-53 151.5q0 89 53 153.5t136 83.5v93h115v-91q69 -13 114 -56t59 -99l-129 -38q-22 69 -96 69q-46 0 -77 -30.5t-31 -84.5q0 -52 31.5 -82.5t78.5 -30.5q40 0 65 19.5t33 48.5l128 -37q-14 -56 -60.5 -99.5t-115.5 -56.5v-81z" />
    <glyph glyph-name="sterling" unicode="&#xa3;" horiz-adv-x="595" 
d="M50 383h57q-13 39 -13 84q0 79 60 138t160 59q57 0 100 -18t66.5 -47.5t35.5 -62t12 -65.5l-132 -19q-1 41 -21.5 64.5t-58.5 23.5q-32 0 -54.5 -20t-22.5 -58q0 -35 17 -79h176v-110h-141q1 -6 1 -18q0 -84 -62 -125h131q32 0 53 20.5t21 53.5l132 -8
q0 -85 -51.5 -140.5t-134.5 -55.5h-334v118q104 36 104 122q0 11 -4 33h-97v110z" />
    <glyph glyph-name="currency" unicode="&#xa4;" horiz-adv-x="601" 
d="M83 248q0 54 25 101l-71 72l91 90l74 -74q46 23 99 23q57 0 98 -23l74 74l91 -90l-71 -72q26 -44 26 -101q0 -53 -26 -102l71 -70l-91 -91l-73 74q-46 -23 -99 -23t-99 23l-74 -74l-91 91l72 71q-26 44 -26 101zM208 248q0 -40 26 -65.5t67 -25.5t67 25.5t26 65.5
t-26 65.5t-67 25.5t-67 -25.5t-26 -65.5z" />
    <glyph glyph-name="yen" unicode="&#xa5;" horiz-adv-x="641" 
d="M573 125h-182v-125h-146v125h-172v106h172v63h-172v106h98l-146 249h169l129 -236l129 236h162l-149 -249h108v-106h-182v-63h182v-106z" />
    <glyph glyph-name="brokenbar" unicode="&#xa6;" horiz-adv-x="284" 
d="M79 823h126v-398h-126v398zM79 235h126v-398h-126v398z" />
    <glyph glyph-name="section" unicode="&#xa7;" horiz-adv-x="535" 
d="M484 257q0 -81 -73 -126q72 -56 72 -140q0 -87 -65 -142t-151 -55q-97 0 -155.5 51t-63.5 137l143 22q0 -41 21 -60.5t55 -19.5q28 0 45.5 16t17.5 41q0 35 -36 51l-101 51q-67 34 -104.5 74t-37.5 103q0 84 73 126q-71 56 -71 142q0 87 64.5 141.5t151.5 54.5
q97 0 155.5 -51.5t62.5 -136.5l-143 -22q0 80 -75 80q-29 0 -46.5 -16.5t-17.5 -40.5q0 -34 36 -50l101 -52q68 -36 105 -75t37 -103zM314 282l-102 54q-24 -22 -24 -45q0 -37 33 -55l102 -54q25 23 25 45q0 37 -34 55z" />
    <glyph glyph-name="dieresis" unicode="&#xa8;" horiz-adv-x="418" 
d="M22 632q0 32 22 54.5t54 22.5t54.5 -22.5t22.5 -54.5t-22.5 -54t-54.5 -22t-54 22t-22 54zM243 632q0 32 22 54.5t54 22.5t54.5 -22.5t22.5 -54.5t-22.5 -54t-54.5 -22t-54 22t-22 54z" />
    <glyph glyph-name="copyright" unicode="&#xa9;" horiz-adv-x="821" 
d="M129 354q0 -121 81 -204.5t200 -83.5t200.5 83.5t81.5 204.5t-81.5 205t-200.5 84t-200 -84t-81 -205zM40 354q0 153 108.5 262t261.5 109t262 -109t109 -262t-109 -261.5t-262 -108.5t-261.5 108.5t-108.5 261.5zM415 442q-36 0 -60 -24t-24 -67q0 -42 24.5 -66
t60.5 -24q31 0 50 15.5t26 38.5l98 -30q-13 -52 -59 -89.5t-115 -37.5q-82 0 -139 54.5t-57 138.5t56 139t137 55q71 0 116.5 -37t58.5 -90l-100 -30q-15 54 -73 54z" />
    <glyph glyph-name="ordfeminine" unicode="&#xaa;" horiz-adv-x="426" 
d="M45 397q0 44 29 71t75 34l81 12q25 4 25 24q0 15 -13 25t-36 10q-25 0 -40.5 -14.5t-17.5 -34.5l-96 20q5 43 44 79.5t111 36.5q80 0 118 -38.5t38 -97.5v-170q0 -26 4 -54h-100q-3 15 -3 38q-30 -48 -97 -48q-56 0 -89 31.5t-33 75.5zM195 369q25 0 42.5 15.5t17.5 51.5
v15l-62 -10q-38 -5 -38 -37q0 -35 40 -35z" />
    <glyph glyph-name="guillemotleft" unicode="&#xab;" horiz-adv-x="572" 
d="M308 102h-142l-138 195l140 200h141l-139 -201zM536 102h-143l-138 195l140 200h142l-139 -201z" />
    <glyph glyph-name="logicalnot" unicode="&#xac;" horiz-adv-x="599" 
d="M548 129h-130v195h-373v125h503v-320z" />
    <glyph glyph-name="uni00AD" unicode="&#xad;" horiz-adv-x="420" 
d="M360 233h-300v137h300v-137z" />
    <glyph glyph-name="registered" unicode="&#xae;" horiz-adv-x="821" 
d="M40 354q0 153 108.5 262t261.5 109t262 -109t109 -262t-109 -261.5t-262 -108.5t-261.5 108.5t-108.5 261.5zM129 354q0 -121 81 -204.5t200 -83.5t200.5 83.5t81.5 204.5t-81.5 205t-200.5 84t-200 -84t-81 -205zM467 157l-61 134h-30v-134h-104v398h167q58 0 97.5 -38
t39.5 -93q0 -38 -19.5 -68.5t-51.5 -46.5l76 -152h-114zM376 375h43q24 0 38 13t14 35t-14 35t-38 13h-43v-96z" />
    <glyph glyph-name="macron" unicode="&#xaf;" horiz-adv-x="330" 
d="M308 577h-286v105h286v-105z" />
    <glyph glyph-name="degree" unicode="&#xb0;" horiz-adv-x="412" 
d="M145 498q0 -30 17 -48t44 -18q26 0 43 18.5t17 47.5q0 28 -17 46t-43 18t-43.5 -18t-17.5 -46zM37 498q0 69 50 117.5t119 48.5t119 -48.5t50 -117.5q0 -71 -49.5 -118.5t-120.5 -47.5q-70 0 -119 48t-49 118z" />
    <glyph glyph-name="plusminus" unicode="&#xb1;" horiz-adv-x="605" 
d="M61 438h177v117h128v-117h178v-124h-178v-116h-128v116h-177v124zM61 164h483v-124h-483v124z" />
    <glyph glyph-name="twosuperior" unicode="&#xb2;" horiz-adv-x="366" 
d="M137 563h-100q-4 16 -4 27q0 54 39 91t110 37q68 0 108 -36t40 -89q0 -65 -84 -114l-67 -39q-5 -3 -5 -5h159v-95h-302v13q0 111 91 162l60 34q36 20 36 45q0 12 -9.5 23t-29.5 11q-22 0 -33.5 -13.5t-11.5 -34.5q0 -11 3 -17z" />
    <glyph glyph-name="threesuperior" unicode="&#xb3;" horiz-adv-x="371" 
d="M25 452l103 18q1 -19 15 -32.5t37 -13.5q21 0 34 10.5t13 26.5q0 20 -13 30t-33 10q-15 0 -29 -6l-35 75l79 47h-158v92h291v-93l-85 -51q47 -7 72.5 -35.5t25.5 -71.5q0 -52 -44.5 -89.5t-117.5 -37.5q-66 0 -108.5 36t-46.5 85z" />
    <glyph glyph-name="acute" unicode="&#xb4;" horiz-adv-x="306" 
d="M284 707l-141 -151h-121l92 151h170z" />
    <glyph glyph-name="mu" unicode="&#xb5;" horiz-adv-x="626" 
d="M405 0q-4 18 -4 50q-18 -30 -55 -45.5t-78 -15.5q-19 0 -37 3v-182h-152v687h152v-282q0 -38 20.5 -62t59.5 -24q38 0 60.5 23.5t22.5 61.5v283h152v-408q0 -44 5 -89h-146z" />
    <glyph glyph-name="paragraph" unicode="&#xb6;" horiz-adv-x="717" 
d="M369 597v-788h-115v482h-18q-85 0 -146.5 59.5t-61.5 145.5q0 100 69.5 156.5t173.5 56.5h410v-112h-97v-788h-117v788h-98z" />
    <glyph glyph-name="periodcentered" unicode="&#xb7;" horiz-adv-x="284" 
d="M48 322q0 38 27.5 64.5t66.5 26.5t66.5 -26.5t27.5 -64.5q0 -39 -27.5 -65.5t-66.5 -26.5t-66.5 26.5t-27.5 65.5z" />
    <glyph glyph-name="cedilla" unicode="&#xb8;" horiz-adv-x="299" 
d="M120 -112l-37 49l48 75h90l-40 -61q44 -1 70.5 -25.5t26.5 -62.5q0 -39 -32.5 -68.5t-100.5 -29.5q-40 0 -74 17t-50 38l47 59q38 -38 76 -38t38 26q0 10 -9.5 17.5t-25.5 7.5t-27 -4z" />
    <glyph glyph-name="onesuperior" unicode="&#xb9;" horiz-adv-x="282" 
d="M227 341h-115v212h-94v74q48 0 75 25t33 57h101v-368z" />
    <glyph glyph-name="ordmasculine" unicode="&#xba;" horiz-adv-x="446" 
d="M223 392q32 0 54 21.5t22 61.5t-22 61.5t-54 21.5q-31 0 -53 -21.5t-22 -61.5t22 -61.5t53 -21.5zM223 660q79 0 132.5 -52.5t53.5 -132.5q0 -81 -53.5 -133t-132.5 -52t-132.5 52t-53.5 133q0 80 53.5 132.5t132.5 52.5z" />
    <glyph glyph-name="guillemotright" unicode="&#xbb;" horiz-adv-x="572" 
d="M405 102h-142l138 194l-139 201h142l140 -200zM178 102h-143l139 194l-139 201h141l140 -200z" />
    <glyph glyph-name="onequarter" unicode="&#xbc;" horiz-adv-x="806" 
d="M240 281h-115v212h-94v74q48 0 75 25t33 57h101v-368zM430 71v112l164 186h121v-213h59v-85h-59v-71h-111v71h-174zM604 156v102l-91 -102h91zM223 0h-129l453 649h130z" />
    <glyph glyph-name="onehalf" unicode="&#xbd;" horiz-adv-x="831" 
d="M240 281h-115v212h-94v74q48 0 75 25t33 57h101v-368zM222 0h-129l453 649h130zM597 223h-100q-4 16 -4 27q0 54 39 91t110 37q68 0 108 -36t40 -89q0 -65 -84 -114l-67 -39q-5 -3 -5 -5h159v-95h-302v13q0 111 91 162l60 34q36 20 36 45q0 12 -9.5 23t-29.5 11
q-22 0 -33.5 -13.5t-11.5 -34.5q0 -11 3 -17z" />
    <glyph glyph-name="threequarters" unicode="&#xbe;" horiz-adv-x="884" 
d="M35 392l103 18q1 -19 15 -32.5t37 -13.5q21 0 34 10.5t13 26.5q0 20 -13 30t-33 10q-15 0 -29 -6l-35 75l79 47h-158v92h291v-93l-85 -51q47 -7 72.5 -35.5t25.5 -71.5q0 -52 -44.5 -89.5t-117.5 -37.5q-66 0 -108.5 36t-46.5 85zM508 71v112l164 186h121v-213h59v-85
h-59v-71h-111v71h-174zM682 156v102l-91 -102h91zM303 0h-129l453 649h130z" />
    <glyph glyph-name="questiondown" unicode="&#xbf;" horiz-adv-x="532" 
d="M220 282h119q4 -28 4 -44q0 -85 -74 -141l-50 -38q-37 -29 -37 -70q0 -31 23 -53t66 -22q44 0 68 27t24 67q0 18 -5 38l143 -12q4 -19 4 -43q0 -92 -66 -152t-168 -60q-116 0 -179.5 58.5t-63.5 139.5q0 108 95 180l38 28q59 44 59 97zM192 427q0 36 25.5 61t60.5 25
q36 0 61 -25t25 -61q0 -35 -25 -60.5t-61 -25.5q-35 0 -60.5 25.5t-25.5 60.5z" />
    <glyph glyph-name="Agrave" unicode="&#xc0;" horiz-adv-x="729" 
d="M549 0l-51 144h-274l-51 -144h-166l267 709h183l264 -709h-172zM363 533l-87 -245h172zM311 759l-150 132h181l104 -132h-135z" />
    <glyph glyph-name="Aacute" unicode="&#xc1;" horiz-adv-x="729" 
d="M549 0l-51 144h-274l-51 -144h-166l267 709h183l264 -709h-172zM363 533l-87 -245h172zM573 891l-150 -132h-135l104 132h181z" />
    <glyph glyph-name="Acircumflex" unicode="&#xc2;" horiz-adv-x="729" 
d="M549 0l-51 144h-274l-51 -144h-166l267 709h183l264 -709h-172zM363 533l-87 -245h172zM302 759h-135l122 132h145l124 -132h-141l-58 65z" />
    <glyph glyph-name="Atilde" unicode="&#xc3;" horiz-adv-x="729" 
d="M549 0l-51 144h-274l-51 -144h-166l267 709h183l264 -709h-172zM363 533l-87 -245h172zM532 895v-34q0 -52 -30 -81t-74 -29q-37 0 -79 25l-5 3q-33 20 -47 20q-11 0 -18.5 -7.5t-7.5 -21.5v-13h-87v33q0 52 30 80t73 28q38 0 79 -24q40 -22 52 -22q27 0 27 29v14h87z
" />
    <glyph glyph-name="Adieresis" unicode="&#xc4;" horiz-adv-x="729" 
d="M117 824q0 34 22.5 57t55.5 23q34 0 57 -23t23 -57q0 -33 -23 -55t-57 -22q-33 0 -55.5 22t-22.5 55zM450 824q0 34 22 57t56 23q33 0 56 -23t23 -57q0 -33 -23 -55t-56 -22q-34 0 -56 22t-22 55zM549 0l-51 144h-274l-51 -144h-166l267 709h183l264 -709h-172zM363 533
l-87 -245h172z" />
    <glyph glyph-name="Aring" unicode="&#xc5;" horiz-adv-x="729" 
d="M410 757q0 22 -13.5 35.5t-33.5 13.5q-21 0 -35 -13t-14 -36q0 -22 14 -35t35 -13q20 0 33.5 13t13.5 35zM363 531l-87 -243h172zM549 0l-51 144h-274l-51 -144h-166l250 664q-37 39 -37 93q0 59 42 98.5t100 39.5t100 -39.5t42 -98.5q0 -51 -32 -88l249 -669h-172z" />
    <glyph glyph-name="AE" unicode="&#xc6;" horiz-adv-x="1054" 
d="M1003 0h-451v153h-274l-97 -153h-189l468 709h542v-149h-292v-135h265v-139h-265v-136h293v-150zM361 282h191v299z" />
    <glyph glyph-name="Ccedilla" unicode="&#xc7;" horiz-adv-x="765" 
d="M372 -112l-37 49l32 50q-142 14 -235 114t-93 252q0 162 107 266.5t259 104.5q76 0 137.5 -22.5t99.5 -59.5t61 -76t32 -81l-149 -47q-5 21 -16 41.5t-31 42t-55 35t-79 13.5q-80 0 -141 -56.5t-61 -160.5q0 -96 60 -153t144 -57q82 0 127 41t59 92l151 -43
q-20 -84 -91.5 -157.5t-195.5 -87.5l-24 -37q44 -1 70.5 -25.5t26.5 -62.5q0 -39 -32.5 -68.5t-100.5 -29.5q-40 0 -74 17t-50 38l47 59q38 -38 76 -38t38 26q0 10 -9.5 17.5t-25.5 7.5t-27 -4z" />
    <glyph glyph-name="Egrave" unicode="&#xc8;" horiz-adv-x="581" 
d="M270 759l-150 132h181l104 -132h-135zM530 0h-450v709h449v-149h-291v-135h264v-139h-264v-136h292v-150z" />
    <glyph glyph-name="Eacute" unicode="&#xc9;" horiz-adv-x="581" 
d="M492 891l-150 -132h-135l104 132h181zM530 0h-450v709h449v-149h-291v-135h264v-139h-264v-136h292v-150z" />
    <glyph glyph-name="Ecircumflex" unicode="&#xca;" horiz-adv-x="581" 
d="M242 759h-135l122 132h145l124 -132h-141l-58 65zM530 0h-450v709h449v-149h-291v-135h264v-139h-264v-136h292v-150z" />
    <glyph glyph-name="Edieresis" unicode="&#xcb;" horiz-adv-x="581" 
d="M530 0h-450v709h449v-149h-291v-135h264v-139h-264v-136h292v-150zM129 824q0 33 21.5 55.5t53.5 22.5q33 0 55 -22.5t22 -55.5q0 -32 -22 -53.5t-55 -21.5q-32 0 -53.5 21.5t-21.5 53.5zM327 824q0 33 22 55.5t54 22.5q33 0 55 -22.5t22 -55.5q0 -32 -22 -53.5
t-55 -21.5q-32 0 -54 21.5t-22 53.5z" />
    <glyph glyph-name="Igrave" unicode="&#xcc;" horiz-adv-x="320" 
d="M240 0h-160v709h160v-709zM103 759l-150 132h181l104 -132h-135z" />
    <glyph glyph-name="Iacute" unicode="&#xcd;" horiz-adv-x="320" 
d="M240 0h-160v709h160v-709zM366 891l-150 -132h-135l104 132h181z" />
    <glyph glyph-name="Icircumflex" unicode="&#xce;" horiz-adv-x="320" 
d="M240 0h-160v709h160v-709zM101 759h-135l122 132h145l124 -132h-141l-58 65z" />
    <glyph glyph-name="Idieresis" unicode="&#xcf;" horiz-adv-x="320" 
d="M-16 824q0 34 22 57t55 23q34 0 56.5 -23t22.5 -57q0 -33 -22.5 -55t-56.5 -22q-33 0 -55 22t-22 55zM191 824q0 34 22 57t55 23q34 0 56.5 -23t22.5 -57q0 -33 -22.5 -55t-56.5 -22q-33 0 -55 22t-22 55zM245 0h-160v709h160v-709z" />
    <glyph glyph-name="Eth" unicode="&#xd0;" horiz-adv-x="762" 
d="M364 0h-256v310h-94v111h94v288h257q161 0 258.5 -96t97.5 -259t-97.5 -258.5t-259.5 -95.5zM266 149h92q87 0 142.5 52t55.5 153q0 102 -55.5 154t-142.5 52h-92v-139h144v-111h-144v-161z" />
    <glyph glyph-name="Ntilde" unicode="&#xd1;" horiz-adv-x="776" 
d="M565 895v-34q0 -52 -30 -81t-74 -29q-37 0 -79 25l-5 3q-33 20 -47 20q-11 0 -18.5 -7.5t-7.5 -21.5v-13h-87v33q0 52 30 80t73 28q38 0 79 -24q40 -22 52 -22q27 0 27 29v14h87zM696 0h-167l-292 466v-466h-157v709h192l266 -431v431h158v-709z" />
    <glyph glyph-name="Ograve" unicode="&#xd2;" horiz-adv-x="815" 
d="M341 759l-150 132h181l104 -132h-135zM203 355q0 -104 61.5 -159t143.5 -55t143 55t61 159t-61 159.5t-143 55.5t-143.5 -55.5t-61.5 -159.5zM39 354q0 165 107.5 267.5t261.5 102.5t261 -103t107 -267t-107 -266.5t-261 -102.5t-261.5 102.5t-107.5 266.5z" />
    <glyph glyph-name="Oacute" unicode="&#xd3;" horiz-adv-x="815" 
d="M613 891l-150 -132h-135l104 132h181zM203 355q0 -104 61.5 -159t143.5 -55t143 55t61 159t-61 159.5t-143 55.5t-143.5 -55.5t-61.5 -159.5zM39 354q0 165 107.5 267.5t261.5 102.5t261 -103t107 -267t-107 -266.5t-261 -102.5t-261.5 102.5t-107.5 266.5z" />
    <glyph glyph-name="Ocircumflex" unicode="&#xd4;" horiz-adv-x="815" 
d="M347 759h-135l122 132h145l124 -132h-141l-58 65zM203 355q0 -104 61.5 -159t143.5 -55t143 55t61 159t-61 159.5t-143 55.5t-143.5 -55.5t-61.5 -159.5zM39 354q0 165 107.5 267.5t261.5 102.5t261 -103t107 -267t-107 -266.5t-261 -102.5t-261.5 102.5t-107.5 266.5z
" />
    <glyph glyph-name="Otilde" unicode="&#xd5;" horiz-adv-x="815" 
d="M576 895v-34q0 -52 -30 -81t-74 -29q-37 0 -79 25l-5 3q-33 20 -47 20q-11 0 -18.5 -7.5t-7.5 -21.5v-13h-87v33q0 52 30 80t73 28q38 0 79 -24q40 -22 52 -22q27 0 27 29v14h87zM203 355q0 -104 61.5 -159t143.5 -55t143 55t61 159t-61 159.5t-143 55.5t-143.5 -55.5
t-61.5 -159.5zM39 354q0 165 107.5 267.5t261.5 102.5t261 -103t107 -267t-107 -266.5t-261 -102.5t-261.5 102.5t-107.5 266.5z" />
    <glyph glyph-name="Odieresis" unicode="&#xd6;" horiz-adv-x="815" 
d="M153 824q0 34 22 57t56 23q33 0 56 -23t23 -57q0 -33 -23 -55t-56 -22q-34 0 -56 22t-22 55zM506 824q0 34 22 57t56 23t57 -23t23 -57q0 -33 -23 -55t-57 -22t-56 22t-22 55zM203 355q0 -104 61.5 -159t143.5 -55t143 55t61 159t-61 159.5t-143 55.5t-143.5 -55.5
t-61.5 -159.5zM39 354q0 165 107.5 267.5t261.5 102.5t261 -103t107 -267t-107 -266.5t-261 -102.5t-261.5 102.5t-107.5 266.5z" />
    <glyph glyph-name="multiply" unicode="&#xd7;" horiz-adv-x="576" 
d="M452 43l-164 165l-164 -165l-90 92l163 164l-163 165l90 90l164 -165l164 165l90 -90l-164 -165l164 -164z" />
    <glyph glyph-name="Oslash" unicode="&#xd8;" horiz-adv-x="815" 
d="M39 354q0 165 107.5 267.5t261.5 102.5q94 0 175 -42l70 90l96 -74l-69 -89q96 -103 96 -255q0 -164 -107 -266.5t-261 -102.5q-96 0 -178 42l-69 -89l-98 73l70 90q-94 102 -94 253zM612 355q0 74 -33 124l-250 -324q35 -14 79 -14q82 0 143 55t61 159zM203 355
q0 -71 32 -122l250 322q-37 15 -77 15q-82 0 -143.5 -55.5t-61.5 -159.5z" />
    <glyph glyph-name="Ugrave" unicode="&#xd9;" horiz-adv-x="708" 
d="M302 759l-150 132h181l104 -132h-135zM354 -16q-122 0 -201.5 71.5t-79.5 200.5v453h158v-440q0 -63 32.5 -96t90.5 -33t90.5 33t32.5 96v440h158v-453q0 -129 -79.5 -200.5t-201.5 -71.5z" />
    <glyph glyph-name="Uacute" unicode="&#xda;" horiz-adv-x="708" 
d="M547 891l-150 -132h-135l104 132h181zM354 -16q-122 0 -201.5 71.5t-79.5 200.5v453h158v-440q0 -63 32.5 -96t90.5 -33t90.5 33t32.5 96v440h158v-453q0 -129 -79.5 -200.5t-201.5 -71.5z" />
    <glyph glyph-name="Ucircumflex" unicode="&#xdb;" horiz-adv-x="708" 
d="M294 759h-135l122 132h145l124 -132h-141l-58 65zM354 -16q-122 0 -201.5 71.5t-79.5 200.5v453h158v-440q0 -63 32.5 -96t90.5 -33t90.5 33t32.5 96v440h158v-453q0 -129 -79.5 -200.5t-201.5 -71.5z" />
    <glyph glyph-name="Udieresis" unicode="&#xdc;" horiz-adv-x="708" 
d="M154 824q0 34 22 57t56 23t57 -23t23 -57q0 -33 -23 -55t-57 -22t-56 22t-22 55zM399 824q0 34 22 57t55 23q34 0 57 -23t23 -57q0 -33 -23 -55t-57 -22q-33 0 -55 22t-22 55zM354 -16q-122 0 -201.5 71.5t-79.5 200.5v453h158v-440q0 -63 32.5 -96t90.5 -33t90.5 33
t32.5 96v440h158v-453q0 -129 -79.5 -200.5t-201.5 -71.5z" />
    <glyph glyph-name="Yacute" unicode="&#xdd;" horiz-adv-x="665" 
d="M253 296l-246 413h185l145 -263l147 263h176l-249 -413v-296h-158v296zM537 891l-150 -132h-135l104 132h181z" />
    <glyph glyph-name="Thorn" unicode="&#xde;" horiz-adv-x="612" 
d="M239 264h92q45 0 72 25.5t27 66.5q0 43 -27 68t-72 25h-92v-185zM343 130h-105v-130h-158v709h158v-125h105q104 0 174.5 -65t70.5 -162t-70.5 -162t-174.5 -65z" />
    <glyph glyph-name="germandbls" unicode="&#xdf;" horiz-adv-x="628" 
d="M421 343q1 -18 31 -29l28 -11q54 -21 85.5 -62t31.5 -95q0 -60 -47.5 -110.5t-138.5 -50.5q-83 0 -126.5 46t-44.5 99l119 20q1 -20 14 -36t39 -16q20 0 32 11.5t12 27.5q0 31 -47 48l-26 10q-113 41 -113 135q0 74 69 121l15 10q44 29 44 65q0 26 -21.5 45t-65.5 19
q-42 0 -70.5 -28.5t-28.5 -89.5v-472h-148v483q0 119 71.5 180t175.5 61q108 0 172.5 -55t64.5 -135q0 -96 -88 -150l-16 -10q-23 -15 -23 -31z" />
    <glyph glyph-name="agrave" unicode="&#xe0;" horiz-adv-x="545" 
d="M37 137q0 63 41 101.5t106 48.5l117 18q36 5 36 34q0 23 -19.5 38.5t-53.5 15.5q-38 0 -60.5 -21.5t-24.5 -51.5l-132 27q5 62 61.5 113.5t156.5 51.5q113 0 166.5 -54t53.5 -138v-243q0 -47 6 -77h-137q-5 20 -5 56q-43 -70 -140 -70q-79 0 -125.5 44.5t-46.5 106.5z
M246 96q39 0 65 23t26 76v22l-94 -15q-56 -9 -56 -55q0 -21 14.5 -36t44.5 -15zM223 556l-142 151h173l93 -151h-124z" />
    <glyph glyph-name="aacute" unicode="&#xe1;" horiz-adv-x="545" 
d="M37 137q0 63 41 101.5t106 48.5l117 18q36 5 36 34q0 23 -19.5 38.5t-53.5 15.5q-38 0 -60.5 -21.5t-24.5 -51.5l-132 27q5 62 61.5 113.5t156.5 51.5q113 0 166.5 -54t53.5 -138v-243q0 -47 6 -77h-137q-5 20 -5 56q-43 -70 -140 -70q-79 0 -125.5 44.5t-46.5 106.5z
M246 96q39 0 65 23t26 76v22l-94 -15q-56 -9 -56 -55q0 -21 14.5 -36t44.5 -15zM452 707l-141 -151h-121l92 151h170z" />
    <glyph glyph-name="acircumflex" unicode="&#xe2;" horiz-adv-x="545" 
d="M37 137q0 63 41 101.5t106 48.5l117 18q36 5 36 34q0 23 -19.5 38.5t-53.5 15.5q-38 0 -60.5 -21.5t-24.5 -51.5l-132 27q5 62 61.5 113.5t156.5 51.5q113 0 166.5 -54t53.5 -138v-243q0 -47 6 -77h-137q-5 20 -5 56q-43 -70 -140 -70q-79 0 -125.5 44.5t-46.5 106.5z
M246 96q39 0 65 23t26 76v22l-94 -15q-56 -9 -56 -55q0 -21 14.5 -36t44.5 -15zM194 556h-113l113 151h143l114 -151h-116l-71 71z" />
    <glyph glyph-name="atilde" unicode="&#xe3;" horiz-adv-x="545" 
d="M37 137q0 63 41 101.5t106 48.5l117 18q36 5 36 34q0 23 -19.5 38.5t-53.5 15.5q-38 0 -60.5 -21.5t-24.5 -51.5l-132 27q5 62 61.5 113.5t156.5 51.5q113 0 166.5 -54t53.5 -138v-243q0 -47 6 -77h-137q-5 20 -5 56q-43 -70 -140 -70q-79 0 -125.5 44.5t-46.5 106.5z
M246 96q39 0 65 23t26 76v22l-94 -15q-56 -9 -56 -55q0 -21 14.5 -36t44.5 -15zM454 706v-20q0 -64 -30.5 -97t-81.5 -33q-32 0 -76 23q-42 21 -56 21q-33 0 -34 -43h-86v23q0 62 31.5 94.5t81.5 32.5q34 0 76 -23q37 -22 55 -22q33 0 35 44h85z" />
    <glyph glyph-name="adieresis" unicode="&#xe4;" horiz-adv-x="545" 
d="M37 137q0 63 41 101.5t106 48.5l117 18q36 5 36 34q0 23 -19.5 38.5t-53.5 15.5q-38 0 -60.5 -21.5t-24.5 -51.5l-132 27q5 62 61.5 113.5t156.5 51.5q113 0 166.5 -54t53.5 -138v-243q0 -47 6 -77h-137q-5 20 -5 56q-43 -70 -140 -70q-79 0 -125.5 44.5t-46.5 106.5z
M246 96q39 0 65 23t26 76v22l-94 -15q-56 -9 -56 -55q0 -21 14.5 -36t44.5 -15zM81 632q0 32 22 54.5t54 22.5t54.5 -22.5t22.5 -54.5t-22.5 -54t-54.5 -22t-54 22t-22 54zM302 632q0 32 22 54.5t54 22.5t54.5 -22.5t22.5 -54.5t-22.5 -54t-54.5 -22t-54 22t-22 54z" />
    <glyph glyph-name="aring" unicode="&#xe5;" horiz-adv-x="545" 
d="M37 137q0 63 41 101.5t106 48.5l117 18q36 5 36 34q0 23 -19.5 38.5t-53.5 15.5q-38 0 -60.5 -21.5t-24.5 -51.5l-132 27q5 62 61.5 113.5t156.5 51.5q113 0 166.5 -54t53.5 -138v-243q0 -47 6 -77h-137q-5 20 -5 56q-43 -70 -140 -70q-79 0 -125.5 44.5t-46.5 106.5z
M246 96q39 0 65 23t26 76v22l-94 -15q-56 -9 -56 -55q0 -21 14.5 -36t44.5 -15zM377 660q0 -48 -34 -79.5t-82 -31.5t-82 31.5t-34 79.5q0 49 34 81t82 32t82 -32t34 -81zM298 660q0 17 -10.5 27.5t-26.5 10.5t-26.5 -10.5t-10.5 -27.5t10.5 -27.5t26.5 -10.5t26.5 10.5
t10.5 27.5z" />
    <glyph glyph-name="ae" unicode="&#xe6;" horiz-adv-x="871" 
d="M699 181l126 -38q-20 -68 -80.5 -113t-150.5 -45q-114 0 -185 79q-68 -79 -180 -79q-91 0 -141.5 44t-50.5 108q0 63 41 101.5t106 48.5l120 18q37 5 37 34q0 23 -19.5 38.5t-54.5 15.5q-40 0 -63 -21.5t-26 -51.5l-131 27q5 62 62.5 113.5t158.5 51.5q113 0 165 -57
q70 57 157 57q114 0 179 -67.5t65 -187.5q0 -38 -3 -47h-349q3 -44 35.5 -70.5t78.5 -26.5q78 0 103 68zM248 96q39 0 66 23t27 76v22l-98 -15q-57 -9 -57 -56q0 -20 16.5 -35t45.5 -15zM485 308h202q-2 34 -26.5 59t-75.5 25q-45 0 -71 -26t-29 -58z" />
    <glyph glyph-name="ccedilla" unicode="&#xe7;" horiz-adv-x="567" 
d="M301 372q-49 0 -81.5 -33t-32.5 -91q0 -57 33.5 -90t82.5 -33q41 0 67.5 21.5t35.5 52.5l134 -41q-16 -62 -65.5 -109.5t-124.5 -59.5l-25 -38q44 -1 70.5 -25.5t26.5 -62.5q0 -39 -32.5 -68.5t-100.5 -29.5q-40 0 -74 17t-50 38l47 59q38 -38 76 -38t38 26
q0 10 -9.5 17.5t-25.5 7.5t-27 -4l-37 49l33 51q-97 15 -160.5 86.5t-63.5 173.5q0 115 75.5 189.5t186.5 74.5q97 0 159 -50t80 -123l-136 -41q-9 32 -34 53t-66 21z" />
    <glyph glyph-name="egrave" unicode="&#xe8;" horiz-adv-x="570" 
d="M187 308h199q-2 34 -26.5 59t-73.5 25q-44 0 -70 -26t-29 -58zM397 179l127 -36q-19 -69 -79 -113.5t-150 -44.5q-108 0 -183.5 72t-75.5 193q0 116 73.5 189t174.5 73q116 0 182.5 -67.5t66.5 -187.5q0 -38 -3 -47h-346q2 -41 35 -68.5t78 -27.5q77 0 100 65zM240 556
l-142 151h173l93 -151h-124z" />
    <glyph glyph-name="eacute" unicode="&#xe9;" horiz-adv-x="570" 
d="M475 707l-141 -151h-121l92 151h170zM187 308h199q-2 34 -26.5 59t-73.5 25q-44 0 -70 -26t-29 -58zM397 179l127 -36q-19 -69 -79 -113.5t-150 -44.5q-108 0 -183.5 72t-75.5 193q0 116 73.5 189t174.5 73q116 0 182.5 -67.5t66.5 -187.5q0 -38 -3 -47h-346
q2 -41 35 -68.5t78 -27.5q77 0 100 65z" />
    <glyph glyph-name="ecircumflex" unicode="&#xea;" horiz-adv-x="570" 
d="M216 556h-113l113 151h143l114 -151h-116l-71 71zM187 308h199q-2 34 -26.5 59t-73.5 25q-44 0 -70 -26t-29 -58zM397 179l127 -36q-19 -69 -79 -113.5t-150 -44.5q-108 0 -183.5 72t-75.5 193q0 116 73.5 189t174.5 73q116 0 182.5 -67.5t66.5 -187.5q0 -38 -3 -47h-346
q2 -41 35 -68.5t78 -27.5q77 0 100 65z" />
    <glyph glyph-name="edieresis" unicode="&#xeb;" horiz-adv-x="570" 
d="M102 632q0 32 22 54.5t54 22.5t54.5 -22.5t22.5 -54.5t-22.5 -54t-54.5 -22t-54 22t-22 54zM323 632q0 32 22 54.5t54 22.5t54.5 -22.5t22.5 -54.5t-22.5 -54t-54.5 -22t-54 22t-22 54zM187 308h199q-2 34 -26.5 59t-73.5 25q-44 0 -70 -26t-29 -58zM397 179l127 -36
q-19 -69 -79 -113.5t-150 -44.5q-108 0 -183.5 72t-75.5 193q0 116 73.5 189t174.5 73q116 0 182.5 -67.5t66.5 -187.5q0 -38 -3 -47h-346q2 -41 35 -68.5t78 -27.5q77 0 100 65z" />
    <glyph glyph-name="igrave" unicode="&#xec;" horiz-adv-x="280" 
d="M216 0h-152v497h152v-497zM86 556l-142 151h173l93 -151h-124z" />
    <glyph glyph-name="iacute" unicode="&#xed;" horiz-adv-x="280" 
d="M328 707l-141 -151h-121l92 151h170zM216 0h-152v497h152v-497z" />
    <glyph glyph-name="icircumflex" unicode="&#xee;" horiz-adv-x="280" 
d="M68 556h-113l113 151h143l114 -151h-116l-71 71zM216 0h-152v497h152v-497z" />
    <glyph glyph-name="idieresis" unicode="&#xef;" horiz-adv-x="280" 
d="M216 0h-152v497h152v-497zM-26 633q0 31 21.5 52.5t53.5 21.5q31 0 52.5 -21.5t21.5 -52.5q0 -32 -21.5 -53.5t-52.5 -21.5q-32 0 -53.5 21.5t-21.5 53.5zM155 633q0 31 21 52.5t52 21.5t53 -21.5t22 -52.5q0 -32 -21.5 -53.5t-53.5 -21.5q-31 0 -52 21.5t-21 53.5z" />
    <glyph glyph-name="eth" unicode="&#xf0;" horiz-adv-x="602" 
d="M534 613l-75 -29q101 -122 101 -299q0 -126 -68 -213t-195 -87q-111 0 -186.5 70t-75.5 176q0 108 74 169t172 61q30 0 60.5 -9t44.5 -24q-16 56 -61 104l-139 -53l-34 88l83 33q-48 26 -109 44l46 112q124 -31 211 -98l116 45zM297 122q46 0 79 29.5t33 80.5
q0 53 -32.5 82.5t-79.5 29.5q-45 0 -78 -30t-33 -81q0 -50 33 -80.5t78 -30.5z" />
    <glyph glyph-name="ntilde" unicode="&#xf1;" horiz-adv-x="590" 
d="M216 285v-285h-152v497h147v-57q19 33 58.5 51.5t80.5 18.5q89 0 135 -55.5t46 -142.5v-312h-152v286q0 39 -20.5 62.5t-60.5 23.5q-37 0 -59.5 -24.5t-22.5 -62.5zM483 706v-20q0 -64 -30.5 -97t-81.5 -33q-32 0 -76 23q-42 21 -56 21q-33 0 -34 -43h-86v23
q0 62 31.5 94.5t81.5 32.5q34 0 76 -23q37 -22 55 -22q33 0 35 44h85z" />
    <glyph glyph-name="ograve" unicode="&#xf2;" horiz-adv-x="600" 
d="M300 125q47 0 79.5 32t32.5 92t-32.5 91.5t-79.5 31.5q-46 0 -79 -32t-33 -91t33 -91.5t79 -32.5zM300 512q113 0 188.5 -74t75.5 -189t-75.5 -189.5t-188.5 -74.5q-112 0 -188 75t-76 189t76 188.5t188 74.5zM246 556l-142 151h173l93 -151h-124z" />
    <glyph glyph-name="oacute" unicode="&#xf3;" horiz-adv-x="600" 
d="M489 707l-141 -151h-121l92 151h170zM300 125q47 0 79.5 32t32.5 92t-32.5 91.5t-79.5 31.5q-46 0 -79 -32t-33 -91t33 -91.5t79 -32.5zM300 512q113 0 188.5 -74t75.5 -189t-75.5 -189.5t-188.5 -74.5q-112 0 -188 75t-76 189t76 188.5t188 74.5z" />
    <glyph glyph-name="ocircumflex" unicode="&#xf4;" horiz-adv-x="600" 
d="M230 556h-113l113 151h143l114 -151h-116l-71 71zM300 125q47 0 79.5 32t32.5 92t-32.5 91.5t-79.5 31.5q-46 0 -79 -32t-33 -91t33 -91.5t79 -32.5zM300 512q113 0 188.5 -74t75.5 -189t-75.5 -189.5t-188.5 -74.5q-112 0 -188 75t-76 189t76 188.5t188 74.5z" />
    <glyph glyph-name="otilde" unicode="&#xf5;" horiz-adv-x="600" 
d="M300 125q47 0 79.5 32t32.5 92t-32.5 91.5t-79.5 31.5q-46 0 -79 -32t-33 -91t33 -91.5t79 -32.5zM300 512q113 0 188.5 -74t75.5 -189t-75.5 -189.5t-188.5 -74.5q-112 0 -188 75t-76 189t76 188.5t188 74.5zM484 706v-20q0 -64 -30.5 -97t-81.5 -33q-32 0 -76 23
q-42 21 -56 21q-33 0 -34 -43h-86v23q0 62 31.5 94.5t81.5 32.5q34 0 76 -23q37 -22 55 -22q33 0 35 44h85z" />
    <glyph glyph-name="odieresis" unicode="&#xf6;" horiz-adv-x="600" 
d="M113 632q0 32 22 54.5t54 22.5t54.5 -22.5t22.5 -54.5t-22.5 -54t-54.5 -22t-54 22t-22 54zM334 632q0 32 22 54.5t54 22.5t54.5 -22.5t22.5 -54.5t-22.5 -54t-54.5 -22t-54 22t-22 54zM300 125q47 0 79.5 32t32.5 92t-32.5 91.5t-79.5 31.5q-46 0 -79 -32t-33 -91
t33 -91.5t79 -32.5zM300 512q113 0 188.5 -74t75.5 -189t-75.5 -189.5t-188.5 -74.5q-112 0 -188 75t-76 189t76 188.5t188 74.5z" />
    <glyph glyph-name="divide" unicode="&#xf7;" horiz-adv-x="572" 
d="M197 113q0 35 25 59.5t60 24.5q34 0 59 -24.5t25 -59.5t-25 -60t-59 -25q-35 0 -60 25t-25 60zM197 485q0 35 25 59.5t60 24.5q34 0 59 -24.5t25 -59.5t-25 -60t-59 -25q-35 0 -60 25t-25 60zM33 236v125h505v-125h-505z" />
    <glyph glyph-name="oslash" unicode="&#xf8;" horiz-adv-x="600" 
d="M300 512q75 0 135 -34l54 65l68 -57l-53 -64q60 -71 60 -173q0 -115 -75.5 -189.5t-188.5 -74.5q-69 0 -130 32l-51 -62l-69 57l50 60q-64 74 -64 177q0 114 76 188.5t188 74.5zM188 249q0 -30 10 -57l143 172q-21 8 -41 8q-46 0 -79 -32t-33 -91zM300 125q47 0 79.5 32
t32.5 92q0 27 -8 51l-140 -169q16 -6 36 -6z" />
    <glyph glyph-name="ugrave" unicode="&#xf9;" horiz-adv-x="591" 
d="M385 0q-4 18 -4 50q-18 -30 -55 -45.5t-78 -15.5q-88 0 -138.5 55.5t-50.5 138.5v314h152v-282q0 -38 20.5 -62t59.5 -24q38 0 60.5 23.5t22.5 61.5v283h152v-408q0 -49 5 -89h-146zM256 556l-142 151h173l93 -151h-124z" />
    <glyph glyph-name="uacute" unicode="&#xfa;" horiz-adv-x="591" 
d="M464 707l-141 -151h-121l92 151h170zM385 0q-4 18 -4 50q-18 -30 -55 -45.5t-78 -15.5q-88 0 -138.5 55.5t-50.5 138.5v314h152v-282q0 -38 20.5 -62t59.5 -24q38 0 60.5 23.5t22.5 61.5v283h152v-408q0 -49 5 -89h-146z" />
    <glyph glyph-name="ucircumflex" unicode="&#xfb;" horiz-adv-x="591" 
d="M223 556h-113l113 151h143l114 -151h-116l-71 71zM385 0q-4 18 -4 50q-18 -30 -55 -45.5t-78 -15.5q-88 0 -138.5 55.5t-50.5 138.5v314h152v-282q0 -38 20.5 -62t59.5 -24q38 0 60.5 23.5t22.5 61.5v283h152v-408q0 -49 5 -89h-146z" />
    <glyph glyph-name="udieresis" unicode="&#xfc;" horiz-adv-x="591" 
d="M110 632q0 32 22 54.5t54 22.5t54.5 -22.5t22.5 -54.5t-22.5 -54t-54.5 -22t-54 22t-22 54zM331 632q0 32 22 54.5t54 22.5t54.5 -22.5t22.5 -54.5t-22.5 -54t-54.5 -22t-54 22t-22 54zM385 0q-4 18 -4 50q-18 -30 -55 -45.5t-78 -15.5q-88 0 -138.5 55.5t-50.5 138.5
v314h152v-282q0 -38 20.5 -62t59.5 -24q38 0 60.5 23.5t22.5 61.5v283h152v-408q0 -49 5 -89h-146z" />
    <glyph glyph-name="yacute" unicode="&#xfd;" horiz-adv-x="576" 
d="M264 -191h-160l113 258l-209 430h170l121 -266l110 266h161zM471 707l-141 -151h-121l92 151h170z" />
    <glyph glyph-name="thorn" unicode="&#xfe;" horiz-adv-x="625" 
d="M216 -190h-152v914h152v-272q19 24 56.5 40.5t84.5 16.5q106 0 168.5 -72.5t62.5 -186.5t-66.5 -187.5t-170.5 -73.5q-94 0 -135 50v-229zM439 249q0 59 -32.5 91t-80.5 32q-47 0 -79.5 -32t-32.5 -91t32.5 -91.5t79.5 -32.5q48 0 80.5 32.5t32.5 91.5z" />
    <glyph glyph-name="ydieresis" unicode="&#xff;" horiz-adv-x="576" 
d="M264 -191h-160l113 258l-209 430h170l121 -266l110 266h161zM107 632q0 32 22 54.5t54 22.5t54.5 -22.5t22.5 -54.5t-22.5 -54t-54.5 -22t-54 22t-22 54zM328 632q0 32 22 54.5t54 22.5t54.5 -22.5t22.5 -54.5t-22.5 -54t-54.5 -22t-54 22t-22 54z" />
    <glyph glyph-name="Amacron" unicode="&#x100;" horiz-adv-x="729" 
d="M549 0l-51 144h-274l-51 -144h-166l267 709h183l264 -709h-172zM363 533l-87 -245h172zM517 771h-311v109h311v-109z" />
    <glyph glyph-name="amacron" unicode="&#x101;" horiz-adv-x="545" 
d="M37 137q0 63 41 101.5t106 48.5l117 18q36 5 36 34q0 23 -19.5 38.5t-53.5 15.5q-38 0 -60.5 -21.5t-24.5 -51.5l-132 27q5 62 61.5 113.5t156.5 51.5q113 0 166.5 -54t53.5 -138v-243q0 -47 6 -77h-137q-5 20 -5 56q-43 -70 -140 -70q-79 0 -125.5 44.5t-46.5 106.5z
M246 96q39 0 65 23t26 76v22l-94 -15q-56 -9 -56 -55q0 -21 14.5 -36t44.5 -15zM414 577h-286v105h286v-105z" />
    <glyph glyph-name="Abreve" unicode="&#x102;" horiz-adv-x="729" 
d="M549 0l-51 144h-274l-51 -144h-166l267 709h183l264 -709h-172zM363 533l-87 -245h172zM362 753q-78 0 -121.5 41t-45.5 97h113q1 -22 15 -36t39 -14q26 0 40 14t15 36h112q-2 -56 -45 -97t-122 -41z" />
    <glyph glyph-name="abreve" unicode="&#x103;" horiz-adv-x="545" 
d="M37 137q0 63 41 101.5t106 48.5l117 18q36 5 36 34q0 23 -19.5 38.5t-53.5 15.5q-38 0 -60.5 -21.5t-24.5 -51.5l-132 27q5 62 61.5 113.5t156.5 51.5q113 0 166.5 -54t53.5 -138v-243q0 -47 6 -77h-137q-5 20 -5 56q-43 -70 -140 -70q-79 0 -125.5 44.5t-46.5 106.5z
M246 96q39 0 65 23t26 76v22l-94 -15q-56 -9 -56 -55q0 -21 14.5 -36t44.5 -15zM265 551q-78 0 -122 45t-46 111h96q2 -23 20 -39.5t52 -16.5t52 16.5t20 39.5h97q-2 -66 -46 -111t-123 -45z" />
    <glyph glyph-name="Aogonek" unicode="&#x104;" horiz-adv-x="729" 
d="M363 531l-87 -243h172zM542 -117q0 74 72 117h-65l-51 144h-274l-51 -144h-166l267 709h183l264 -709q-31 -15 -53.5 -40t-22.5 -53q0 -20 13 -31.5t34 -11.5q15 0 29 2v-84q-21 -8 -53 -8q-56 0 -91 30t-35 79z" />
    <glyph glyph-name="aogonek" unicode="&#x105;" horiz-adv-x="545" 
d="M246 96q39 0 65 23t26 76v22l-94 -15q-56 -9 -56 -55q0 -21 14.5 -36t44.5 -15zM312 -117q0 74 72 117h-30q-5 25 -5 56q-43 -70 -140 -70q-79 0 -125.5 44.5t-46.5 106.5q0 63 41 101.5t106 48.5l117 18q36 5 36 34q0 23 -19.5 38.5t-53.5 15.5q-38 0 -60.5 -21.5
t-24.5 -51.5l-132 27q5 62 61.5 113.5t156.5 51.5q113 0 166.5 -54t53.5 -138v-243q0 -41 6 -77q-31 -15 -53.5 -40t-22.5 -53q0 -20 13 -31.5t34 -11.5q15 0 29 2v-84q-21 -8 -53 -8q-56 0 -91 30t-35 79z" />
    <glyph glyph-name="Cacute" unicode="&#x106;" horiz-adv-x="765" 
d="M407 -15q-156 0 -262 102.5t-106 265.5q0 162 107 266.5t259 104.5q76 0 137.5 -22.5t99.5 -59.5t61 -76t32 -81l-149 -47q-5 21 -16 41.5t-31 42t-55 35t-79 13.5q-80 0 -141 -56.5t-61 -160.5q0 -96 60 -153t144 -57q82 0 127 41t59 92l151 -43q-10 -41 -32.5 -81
t-61 -79t-102 -63.5t-141.5 -24.5zM613 891l-150 -132h-135l104 132h181z" />
    <glyph glyph-name="cacute" unicode="&#x107;" horiz-adv-x="567" 
d="M487 707l-141 -151h-121l92 151h170zM301 372q-49 0 -81.5 -33t-32.5 -91q0 -57 33.5 -90t82.5 -33q41 0 67.5 21.5t35.5 52.5l134 -41q-18 -71 -80.5 -122t-156.5 -51q-112 0 -189.5 74.5t-77.5 188.5q0 115 75.5 189.5t186.5 74.5q97 0 159 -50t80 -123l-136 -41
q-9 32 -34 53t-66 21z" />
    <glyph glyph-name="Ccircumflex" unicode="&#x108;" horiz-adv-x="765" 
d="M346 759h-135l122 132h145l124 -132h-141l-58 65zM407 -15q-156 0 -262 102.5t-106 265.5q0 162 107 266.5t259 104.5q76 0 137.5 -22.5t99.5 -59.5t61 -76t32 -81l-149 -47q-5 21 -16 41.5t-31 42t-55 35t-79 13.5q-80 0 -141 -56.5t-61 -160.5q0 -96 60 -153t144 -57
q82 0 127 41t59 92l151 -43q-10 -41 -32.5 -81t-61 -79t-102 -63.5t-141.5 -24.5z" />
    <glyph glyph-name="ccircumflex" unicode="&#x109;" horiz-adv-x="567" 
d="M227 556h-113l113 151h143l114 -151h-116l-71 71zM301 372q-49 0 -81.5 -33t-32.5 -91q0 -57 33.5 -90t82.5 -33q41 0 67.5 21.5t35.5 52.5l134 -41q-18 -71 -80.5 -122t-156.5 -51q-112 0 -189.5 74.5t-77.5 188.5q0 115 75.5 189.5t186.5 74.5q97 0 159 -50t80 -123
l-136 -41q-9 32 -34 53t-66 21z" />
    <glyph glyph-name="Cdotaccent" unicode="&#x10a;" horiz-adv-x="765" 
d="M407 -15q-156 0 -262 102.5t-106 265.5q0 162 107 266.5t259 104.5q76 0 137.5 -22.5t99.5 -59.5t61 -76t32 -81l-149 -47q-5 21 -16 41.5t-31 42t-55 35t-79 13.5q-80 0 -141 -56.5t-61 -160.5q0 -96 60 -153t144 -57q82 0 127 41t59 92l151 -43q-10 -41 -32.5 -81
t-61 -79t-102 -63.5t-141.5 -24.5zM316 850q0 37 25.5 62t63.5 25q37 0 63 -25t26 -62t-26 -62t-63 -25q-38 0 -63.5 25t-25.5 62z" />
    <glyph glyph-name="cdotaccent" unicode="&#x10b;" horiz-adv-x="567" 
d="M301 372q-49 0 -81.5 -33t-32.5 -91q0 -57 33.5 -90t82.5 -33q41 0 67.5 21.5t35.5 52.5l134 -41q-18 -71 -80.5 -122t-156.5 -51q-112 0 -189.5 74.5t-77.5 188.5q0 115 75.5 189.5t186.5 74.5q97 0 159 -50t80 -123l-136 -41q-9 32 -34 53t-66 21zM208 635
q0 37 25.5 62t63.5 25q37 0 63 -25t26 -62q0 -36 -26 -61t-63 -25q-38 0 -63.5 24.5t-25.5 61.5z" />
    <glyph glyph-name="Ccaron" unicode="&#x10c;" horiz-adv-x="765" 
d="M212 891h140l58 -65l58 65h135l-123 -132h-145zM407 -15q-156 0 -262 102.5t-106 265.5q0 162 107 266.5t259 104.5q76 0 137.5 -22.5t99.5 -59.5t61 -76t32 -81l-149 -47q-5 21 -16 41.5t-31 42t-55 35t-79 13.5q-80 0 -141 -56.5t-61 -160.5q0 -96 60 -153t144 -57
q82 0 127 41t59 92l151 -43q-10 -41 -32.5 -81t-61 -79t-102 -63.5t-141.5 -24.5z" />
    <glyph glyph-name="ccaron" unicode="&#x10d;" horiz-adv-x="567" 
d="M107 707h116l71 -72l70 72h113l-112 -151h-145zM301 372q-49 0 -81.5 -33t-32.5 -91q0 -57 33.5 -90t82.5 -33q41 0 67.5 21.5t35.5 52.5l134 -41q-18 -71 -80.5 -122t-156.5 -51q-112 0 -189.5 74.5t-77.5 188.5q0 115 75.5 189.5t186.5 74.5q97 0 159 -50t80 -123
l-136 -41q-9 32 -34 53t-66 21z" />
    <glyph glyph-name="Dcaron" unicode="&#x10e;" horiz-adv-x="734" 
d="M163 891h140l58 -65l58 65h135l-123 -132h-145zM238 149h92q87 0 142.5 52t55.5 153q0 102 -55.5 154t-142.5 52h-92v-411zM336 0h-256v709h257q161 0 258.5 -96t97.5 -259t-97.5 -258.5t-259.5 -95.5z" />
    <glyph glyph-name="dcaron" unicode="&#x10f;" horiz-adv-x="627" 
d="M775 724l-75 -207h-99l29 207h145zM562 724v-635q0 -45 4 -89h-146q-4 24 -4 48q-18 -26 -53.5 -42.5t-79.5 -16.5q-106 0 -176 73.5t-70 187.5q0 112 68 185.5t173 73.5q102 0 134 -51v266h150zM190 249q0 -59 32.5 -91.5t79.5 -32.5t79.5 32.5t32.5 91.5t-32.5 91
t-79.5 32t-79.5 -32t-32.5 -91z" />
    <glyph glyph-name="Dcroat" unicode="&#x110;" horiz-adv-x="762" 
d="M364 0h-256v310h-94v111h94v288h257q161 0 258.5 -96t97.5 -259t-97.5 -258.5t-259.5 -95.5zM266 149h92q87 0 142.5 52t55.5 153q0 102 -55.5 154t-142.5 52h-92v-139h144v-111h-144v-161z" />
    <glyph glyph-name="dcroat" unicode="&#x111;" horiz-adv-x="627" 
d="M562 724v-70h69v-105h-69v-460q0 -45 4 -89h-146q-4 24 -4 48q-18 -26 -53.5 -42.5t-79.5 -16.5q-106 0 -176 73.5t-70 187.5q0 112 68 185.5t173 73.5q102 0 134 -51v91h-108v105h108v70h150zM190 249q0 -59 32.5 -91.5t79.5 -32.5t79.5 32.5t32.5 91.5t-32.5 91
t-79.5 32t-79.5 -32t-32.5 -91z" />
    <glyph glyph-name="Emacron" unicode="&#x112;" horiz-adv-x="581" 
d="M530 0h-450v709h449v-149h-291v-135h264v-139h-264v-136h292v-150zM460 771h-311v109h311v-109z" />
    <glyph glyph-name="emacron" unicode="&#x113;" horiz-adv-x="570" 
d="M187 308h199q-2 34 -26.5 59t-73.5 25q-44 0 -70 -26t-29 -58zM397 179l127 -36q-19 -69 -79 -113.5t-150 -44.5q-108 0 -183.5 72t-75.5 193q0 116 73.5 189t174.5 73q116 0 182.5 -67.5t66.5 -187.5q0 -38 -3 -47h-346q2 -41 35 -68.5t78 -27.5q77 0 100 65zM430 577
h-286v105h286v-105z" />
    <glyph glyph-name="Ebreve" unicode="&#x114;" horiz-adv-x="581" 
d="M530 0h-450v709h449v-149h-291v-135h264v-139h-264v-136h292v-150zM300 753q-78 0 -121.5 41t-45.5 97h113q1 -22 15 -36t39 -14q26 0 40 14t15 36h112q-2 -56 -45 -97t-122 -41z" />
    <glyph glyph-name="ebreve" unicode="&#x115;" horiz-adv-x="570" 
d="M187 308h199q-2 34 -26.5 59t-73.5 25q-44 0 -70 -26t-29 -58zM397 179l127 -36q-19 -69 -79 -113.5t-150 -44.5q-108 0 -183.5 72t-75.5 193q0 116 73.5 189t174.5 73q116 0 182.5 -67.5t66.5 -187.5q0 -38 -3 -47h-346q2 -41 35 -68.5t78 -27.5q77 0 100 65zM286 551
q-78 0 -122 45t-46 111h96q2 -23 20 -39.5t52 -16.5t52 16.5t20 39.5h97q-2 -66 -46 -111t-123 -45z" />
    <glyph glyph-name="Edotaccent" unicode="&#x116;" horiz-adv-x="581" 
d="M214 841q0 37 25.5 62t63.5 25q37 0 63 -25t26 -62t-26 -62t-63 -25q-38 0 -63.5 25t-25.5 62zM530 0h-450v709h449v-149h-291v-135h264v-139h-264v-136h292v-150z" />
    <glyph glyph-name="edotaccent" unicode="&#x117;" horiz-adv-x="570" 
d="M187 308h199q-2 34 -26.5 59t-73.5 25q-44 0 -70 -26t-29 -58zM397 179l127 -36q-19 -69 -79 -113.5t-150 -44.5q-108 0 -183.5 72t-75.5 193q0 116 73.5 189t174.5 73q116 0 182.5 -67.5t66.5 -187.5q0 -38 -3 -47h-346q2 -41 35 -68.5t78 -27.5q77 0 100 65zM200 633
q0 37 25.5 62t63.5 25q37 0 63 -25t26 -62q0 -36 -26 -61t-63 -25q-38 0 -63.5 24.5t-25.5 61.5z" />
    <glyph glyph-name="Eogonek" unicode="&#x118;" horiz-adv-x="581" 
d="M351 -117q0 74 72 117h-343v709h449v-149h-291v-135h264v-139h-264v-136h292v-150q-31 -15 -53.5 -40t-22.5 -53q0 -20 13 -31.5t34 -11.5q15 0 29 2v-84q-21 -8 -53 -8q-56 0 -91 30t-35 79z" />
    <glyph glyph-name="eogonek" unicode="&#x119;" horiz-adv-x="570" 
d="M397 179l127 -36q-30 -105 -136 -143q-31 -11 -53.5 -35.5t-22.5 -52.5q0 -23 13 -35.5t34 -12.5q14 0 29 2v-84q-21 -8 -53 -8q-56 0 -91 30t-35 79q0 66 53 104q-96 11 -161 81.5t-65 181.5q0 116 73.5 189t174.5 73q116 0 182.5 -67.5t66.5 -187.5q0 -38 -3 -47h-346
q2 -41 35 -68.5t78 -27.5q77 0 100 65zM187 308h199q-2 34 -26.5 59t-73.5 25q-44 0 -70 -26t-29 -58z" />
    <glyph glyph-name="Ecaron" unicode="&#x11a;" horiz-adv-x="581" 
d="M108 891h140l58 -65l58 65h135l-123 -132h-145zM530 0h-450v709h449v-149h-291v-135h264v-139h-264v-136h292v-150z" />
    <glyph glyph-name="ecaron" unicode="&#x11b;" horiz-adv-x="570" 
d="M100 707h116l71 -72l70 72h113l-112 -151h-145zM187 308h199q-2 34 -26.5 59t-73.5 25q-44 0 -70 -26t-29 -58zM397 179l127 -36q-19 -69 -79 -113.5t-150 -44.5q-108 0 -183.5 72t-75.5 193q0 116 73.5 189t174.5 73q116 0 182.5 -67.5t66.5 -187.5q0 -38 -3 -47h-346
q2 -41 35 -68.5t78 -27.5q77 0 100 65z" />
    <glyph glyph-name="Gcircumflex" unicode="&#x11c;" horiz-adv-x="789" 
d="M345 759h-135l122 132h145l124 -132h-141l-58 65zM735 0h-128l-10 72q-26 -37 -77 -62t-122 -25q-152 0 -255.5 102.5t-103.5 266.5q0 163 107.5 266.5t261.5 103.5q138 0 219 -65t109 -154l-152 -53q-11 45 -54.5 84.5t-121.5 39.5q-82 0 -145.5 -56.5t-63.5 -165.5
q0 -106 61 -165.5t152 -59.5q78 0 122 37.5t53 78.5h-213v134h361v-379z" />
    <glyph glyph-name="gcircumflex" unicode="&#x11d;" horiz-adv-x="614" 
d="M231 556h-113l113 151h143l114 -151h-116l-71 71zM36 -28l134 38q8 -37 36.5 -60t70.5 -23q123 0 123 127v23q-37 -56 -133 -56q-99 0 -165 69t-66 173q0 100 65.5 171.5t165.5 71.5q55 0 90 -19t48 -43v53h145v-435q0 -116 -67 -191.5t-199 -75.5q-102 0 -169.5 52.5
t-78.5 124.5zM295 153q47 0 76.5 30t29.5 80q0 49 -31 79.5t-75 30.5t-75.5 -30.5t-31.5 -79.5q0 -50 30 -80t77 -30z" />
    <glyph glyph-name="Gbreve" unicode="&#x11e;" horiz-adv-x="789" 
d="M405 753q-78 0 -121.5 41t-45.5 97h113q1 -22 15 -36t39 -14q26 0 40 14t15 36h112q-2 -56 -45 -97t-122 -41zM735 0h-128l-10 72q-26 -37 -77 -62t-122 -25q-152 0 -255.5 102.5t-103.5 266.5q0 163 107.5 266.5t261.5 103.5q138 0 219 -65t109 -154l-152 -53
q-11 45 -54.5 84.5t-121.5 39.5q-82 0 -145.5 -56.5t-63.5 -165.5q0 -106 61 -165.5t152 -59.5q78 0 122 37.5t53 78.5h-213v134h361v-379z" />
    <glyph glyph-name="gbreve" unicode="&#x11f;" horiz-adv-x="614" 
d="M36 -28l134 38q8 -37 36.5 -60t70.5 -23q123 0 123 127v23q-37 -56 -133 -56q-99 0 -165 69t-66 173q0 100 65.5 171.5t165.5 71.5q55 0 90 -19t48 -43v53h145v-435q0 -116 -67 -191.5t-199 -75.5q-102 0 -169.5 52.5t-78.5 124.5zM295 153q47 0 76.5 30t29.5 80
q0 49 -31 79.5t-75 30.5t-75.5 -30.5t-31.5 -79.5q0 -50 30 -80t77 -30zM295 551q-78 0 -122 45t-46 111h96q2 -23 20 -39.5t52 -16.5t52 16.5t20 39.5h97q-2 -66 -46 -111t-123 -45z" />
    <glyph glyph-name="Gdotaccent" unicode="&#x120;" horiz-adv-x="789" 
d="M317 846q0 37 25.5 62t63.5 25q37 0 63 -25t26 -62t-26 -62t-63 -25q-38 0 -63.5 25t-25.5 62zM735 0h-128l-10 72q-26 -37 -77 -62t-122 -25q-152 0 -255.5 102.5t-103.5 266.5q0 163 107.5 266.5t261.5 103.5q138 0 219 -65t109 -154l-152 -53q-11 45 -54.5 84.5
t-121.5 39.5q-82 0 -145.5 -56.5t-63.5 -165.5q0 -106 61 -165.5t152 -59.5q78 0 122 37.5t53 78.5h-213v134h361v-379z" />
    <glyph glyph-name="gdotaccent" unicode="&#x121;" horiz-adv-x="614" 
d="M36 -28l134 38q8 -37 36.5 -60t70.5 -23q123 0 123 127v23q-37 -56 -133 -56q-99 0 -165 69t-66 173q0 100 65.5 171.5t165.5 71.5q55 0 90 -19t48 -43v53h145v-435q0 -116 -67 -191.5t-199 -75.5q-102 0 -169.5 52.5t-78.5 124.5zM295 153q47 0 76.5 30t29.5 80
q0 49 -31 79.5t-75 30.5t-75.5 -30.5t-31.5 -79.5q0 -50 30 -80t77 -30zM200 633q0 37 25.5 62t63.5 25q37 0 63 -25t26 -62q0 -36 -26 -61t-63 -25q-38 0 -63.5 24.5t-25.5 61.5z" />
    <glyph glyph-name="Gcommaaccent" unicode="&#x122;" horiz-adv-x="789" 
d="M329 -114q0 29 22 49t57 20q39 0 64.5 -27t25.5 -65t-13.5 -66t-36 -42.5t-45.5 -21t-48 -6.5q-6 0 -12 1v52q83 0 88 46q-14 -7 -31 -7q-34 0 -52.5 19t-18.5 48zM735 0h-128l-10 72q-26 -37 -77 -62t-122 -25q-152 0 -255.5 102.5t-103.5 266.5q0 163 107.5 266.5
t261.5 103.5q138 0 219 -65t109 -154l-152 -53q-11 45 -54.5 84.5t-121.5 39.5q-82 0 -145.5 -56.5t-63.5 -165.5q0 -106 61 -165.5t152 -59.5q78 0 122 37.5t53 78.5h-213v134h361v-379z" />
    <glyph glyph-name="gcommaaccent" unicode="&#x123;" horiz-adv-x="614" 
d="M371 614q0 -29 -22 -49t-57 -20q-39 0 -64.5 26.5t-25.5 65.5q0 68 46.5 101t100.5 33h8v-51q-39 0 -62 -13.5t-26 -31.5q14 7 31 7q34 0 52.5 -19.5t18.5 -48.5zM36 -28l134 38q8 -37 36.5 -60t70.5 -23q123 0 123 127v23q-37 -56 -133 -56q-99 0 -165 69t-66 173
q0 100 65.5 171.5t165.5 71.5q55 0 90 -19t48 -43v53h145v-435q0 -116 -67 -191.5t-199 -75.5q-102 0 -169.5 52.5t-78.5 124.5zM295 153q47 0 76.5 30t29.5 80q0 49 -31 79.5t-75 30.5t-75.5 -30.5t-31.5 -79.5q0 -50 30 -80t77 -30z" />
    <glyph glyph-name="Hcircumflex" unicode="&#x124;" horiz-adv-x="760" 
d="M680 0h-159v282h-283v-282h-158v709h158v-278h283v278h159v-709zM319 759h-135l122 132h145l124 -132h-141l-58 65z" />
    <glyph glyph-name="hcircumflex" unicode="&#x125;" horiz-adv-x="590" 
d="M242 769h-135l122 132h145l124 -132h-141l-58 65zM216 292v-292h-152v724h152v-259q45 45 127 45q93 0 140.5 -55.5t47.5 -142.5v-312h-152v286q0 39 -20.5 62.5t-60.5 23.5q-35 0 -57.5 -22.5t-24.5 -57.5z" />
    <glyph glyph-name="Hbar" unicode="&#x126;" horiz-adv-x="773" 
d="M686 0h-159v282h-283v-282h-158v518h-69v93h69v98h158v-98h283v98h159v-98h70v-93h-70v-518zM244 429h283v89h-283v-89z" />
    <glyph glyph-name="hbar" unicode="&#x127;" horiz-adv-x="590" 
d="M216 292v-292h-152v549h-77v105h77v70h152v-70h107v-105h-107v-84q45 45 127 45q93 0 140.5 -55.5t47.5 -142.5v-312h-152v286q0 39 -20.5 62.5t-60.5 23.5q-35 0 -57.5 -22.5t-24.5 -57.5z" />
    <glyph glyph-name="Itilde" unicode="&#x128;" horiz-adv-x="320" 
d="M240 0h-160v709h160v-709zM336 895v-34q0 -52 -30 -81t-74 -29q-37 0 -79 25l-5 3q-33 20 -47 20q-11 0 -18.5 -7.5t-7.5 -21.5v-13h-87v33q0 52 30 80t73 28q38 0 79 -24q40 -22 52 -22q27 0 27 29v14h87z" />
    <glyph glyph-name="itilde" unicode="&#x129;" horiz-adv-x="280" 
d="M216 0h-152v497h152v-497zM320 706v-20q0 -64 -30.5 -97t-81.5 -33q-32 0 -76 23q-42 21 -56 21q-33 0 -34 -43h-86v23q0 62 31.5 94.5t81.5 32.5q34 0 76 -23q37 -22 55 -22q33 0 35 44h85z" />
    <glyph glyph-name="Imacron" unicode="&#x12a;" horiz-adv-x="320" 
d="M240 0h-160v709h160v-709zM316 771h-311v109h311v-109z" />
    <glyph glyph-name="imacron" unicode="&#x12b;" horiz-adv-x="280" 
d="M216 0h-152v497h152v-497zM283 577h-286v105h286v-105z" />
    <glyph glyph-name="Ibreve" unicode="&#x12c;" horiz-adv-x="320" 
d="M240 0h-160v709h160v-709zM159 753q-78 0 -121.5 41t-45.5 97h113q1 -22 15 -36t39 -14q26 0 40 14t15 36h112q-2 -56 -45 -97t-122 -41z" />
    <glyph glyph-name="ibreve" unicode="&#x12d;" horiz-adv-x="280" 
d="M216 0h-152v497h152v-497zM139 551q-78 0 -122 45t-46 111h96q2 -23 20 -39.5t52 -16.5t52 16.5t20 39.5h97q-2 -66 -46 -111t-123 -45z" />
    <glyph glyph-name="Iogonek" unicode="&#x12e;" horiz-adv-x="320" 
d="M61 -117q0 74 72 117h-53v709h160v-709q-31 -15 -53.5 -40t-22.5 -53q0 -20 13 -31.5t34 -11.5q15 0 29 2v-84q-21 -8 -53 -8q-56 0 -91 30t-35 79z" />
    <glyph glyph-name="iogonek" unicode="&#x12f;" horiz-adv-x="280" 
d="M51 649q0 37 26 63t62 26q37 0 63.5 -26t26.5 -63t-26.5 -63t-63.5 -26q-36 0 -62 26t-26 63zM37 -117q0 74 72 117h-45v497h152v-497q-31 -15 -53.5 -40t-22.5 -53q0 -20 13 -31.5t34 -11.5q15 0 29 2v-84q-21 -8 -53 -8q-56 0 -91 30t-35 79z" />
    <glyph glyph-name="Idotaccent" unicode="&#x130;" horiz-adv-x="320" 
d="M240 0h-160v709h160v-709zM71 841q0 37 25.5 62t63.5 25q37 0 63 -25t26 -62t-26 -62t-63 -25q-38 0 -63.5 25t-25.5 62z" />
    <glyph glyph-name="dotlessi" unicode="&#x131;" horiz-adv-x="280" 
d="M216 0h-152v497h152v-497z" />
    <glyph glyph-name="IJ" unicode="&#x132;" horiz-adv-x="630" 
d="M233 313h-160v396h160v-396zM73 219l160 25v-17q0 -45 22.5 -68.5t59.5 -23.5q38 0 60 25.5t22 65.5v483h159v-487q0 -99 -68 -168t-172 -69q-106 0 -174.5 64.5t-68.5 169.5z" />
    <glyph glyph-name="ij" unicode="&#x133;" horiz-adv-x="560" 
d="M216 0h-152v497h152v-497zM51 649q0 37 26 63t62 26q37 0 63.5 -26t26.5 -63t-26.5 -63t-63.5 -26q-36 0 -62 26t-26 63zM344 -20v517h152v-533q0 -76 -44.5 -122.5t-119.5 -46.5q-51 0 -84 14v126q21 -6 45 -6q51 0 51 51zM331 649q0 37 26 63t62 26q38 0 64 -26t26 -63
t-26.5 -63t-63.5 -26q-36 0 -62 26t-26 63z" />
    <glyph glyph-name="Jcircumflex" unicode="&#x134;" horiz-adv-x="570" 
d="M357 759h-135l122 132h145l124 -132h-141l-58 65zM19 219v47l150 26v-65q0 -45 24.5 -68.5t61.5 -23.5q38 0 60.5 25.5t22.5 65.5v483h158v-487q0 -99 -68 -168t-172 -69q-106 0 -171.5 64.5t-65.5 169.5z" />
    <glyph glyph-name="jcircumflex" unicode="&#x135;" horiz-adv-x="280" 
d="M65 556h-113l113 151h143l114 -151h-116l-71 71zM64 -20v517h152v-533q0 -76 -44.5 -122.5t-119.5 -46.5q-54 0 -84 13v128q21 -7 45 -7q51 0 51 51z" />
    <glyph glyph-name="Kcommaaccent" unicode="&#x136;" horiz-adv-x="705" 
d="M509 0l-191 279l-80 -89v-190h-158v709h158v-298l259 298h208l-276 -307l277 -402h-197zM292 -104q0 29 22 49t57 20q39 0 64.5 -27t25.5 -65t-13.5 -66t-36 -42.5t-45.5 -21t-48 -6.5q-6 0 -12 1v52q83 0 88 46q-14 -7 -31 -7q-34 0 -52.5 19t-18.5 48z" />
    <glyph glyph-name="kcommaaccent" unicode="&#x137;" horiz-adv-x="575" 
d="M564 497l-194 -209l198 -288h-186l-117 175l-49 -53v-122h-152v724h152v-394l151 167h197zM229 -109q0 29 22 49t57 20q39 0 64.5 -27t25.5 -65t-13.5 -66t-36 -42.5t-45.5 -21t-48 -6.5q-6 0 -12 1v52q83 0 88 46q-14 -7 -31 -7q-34 0 -52.5 19t-18.5 48z" />
    <glyph glyph-name="kgreenlandic" unicode="&#x138;" horiz-adv-x="575" 
d="M564 497l-194 -209l198 -288h-186l-117 175l-49 -53v-122h-152v498h152v-168l151 167h197z" />
    <glyph glyph-name="Lacute" unicode="&#x139;" horiz-adv-x="560" 
d="M382 891l-150 -132h-135l104 132h181zM544 0h-464v709h158v-558h306v-151z" />
    <glyph glyph-name="lacute" unicode="&#x13a;" horiz-adv-x="280" 
d="M357 901l-150 -132h-135l104 132h181zM216 0h-152v724h152v-724z" />
    <glyph glyph-name="Lcommaaccent" unicode="&#x13b;" horiz-adv-x="560" 
d="M544 0h-464v709h158v-558h306v-151zM231 -109q0 29 22 49t57 20q39 0 64.5 -27t25.5 -65t-13.5 -66t-36 -42.5t-45.5 -21t-48 -6.5q-6 0 -12 1v52q83 0 88 46q-14 -7 -31 -7q-34 0 -52.5 19t-18.5 48z" />
    <glyph glyph-name="lcommaaccent" unicode="&#x13c;" horiz-adv-x="280" 
d="M216 0h-152v724h152v-724zM54 -109q0 29 22 49t57 20q39 0 64.5 -27t25.5 -65t-13.5 -66t-36 -42.5t-45.5 -21t-48 -6.5q-6 0 -12 1v52q83 0 88 46q-14 -7 -31 -7q-34 0 -52.5 19t-18.5 48z" />
    <glyph glyph-name="Lcaron" unicode="&#x13d;" horiz-adv-x="561" 
d="M502 760l-79 -217h-104l31 217h152zM544 0h-464v709h158v-558h306v-151z" />
    <glyph glyph-name="lcaron" unicode="&#x13e;" horiz-adv-x="280" 
d="M432 724l-75 -207h-99l29 207h145zM216 0h-152v724h152v-724z" />
    <glyph glyph-name="Ldot" unicode="&#x13f;" horiz-adv-x="563" 
d="M343 421q0 34 24.5 58t59.5 24t59.5 -24t24.5 -58q0 -36 -24 -59.5t-60 -23.5q-35 0 -59.5 23.5t-24.5 59.5zM544 0h-464v709h158v-558h306v-151z" />
    <glyph glyph-name="ldot" unicode="&#x140;" horiz-adv-x="428" 
d="M216 0h-152v724h152v-724zM262 338q0 37 25.5 62t63.5 25q37 0 63 -25t26 -62q0 -36 -26 -61t-63 -25q-38 0 -63.5 24.5t-25.5 61.5z" />
    <glyph glyph-name="Lslash" unicode="&#x141;" horiz-adv-x="598" 
d="M582 0h-464v244l-91 -42v123l91 42v342h158v-269l161 74v-122l-161 -75v-166h306v-151z" />
    <glyph glyph-name="lslash" unicode="&#x142;" horiz-adv-x="392" 
d="M270 0h-152v250l-83 -38v123l83 38v351h152v-281l84 39v-122l-84 -39v-321z" />
    <glyph glyph-name="Nacute" unicode="&#x143;" horiz-adv-x="776" 
d="M568 891l-150 -132h-135l104 132h181zM696 0h-167l-292 466v-466h-157v709h192l266 -431v431h158v-709z" />
    <glyph glyph-name="nacute" unicode="&#x144;" horiz-adv-x="590" 
d="M463 707l-141 -151h-121l92 151h170zM216 285v-285h-152v497h147v-57q19 33 58.5 51.5t80.5 18.5q89 0 135 -55.5t46 -142.5v-312h-152v286q0 39 -20.5 62.5t-60.5 23.5q-37 0 -59.5 -24.5t-22.5 -62.5z" />
    <glyph glyph-name="Ncommaaccent" unicode="&#x145;" horiz-adv-x="776" 
d="M328 -109q0 29 22 49t57 20q39 0 64.5 -27t25.5 -65t-13.5 -66t-36 -42.5t-45.5 -21t-48 -6.5q-6 0 -12 1v52q83 0 88 46q-14 -7 -31 -7q-34 0 -52.5 19t-18.5 48zM696 0h-167l-292 466v-466h-157v709h192l266 -431v431h158v-709z" />
    <glyph glyph-name="ncommaaccent" unicode="&#x146;" horiz-adv-x="590" 
d="M219 -105q0 29 22 49t57 20q39 0 64.5 -27t25.5 -65t-13.5 -66t-36 -42.5t-45.5 -21t-48 -6.5q-6 0 -12 1v52q83 0 88 46q-14 -7 -31 -7q-34 0 -52.5 19t-18.5 48zM216 285v-285h-152v497h147v-57q19 33 58.5 51.5t80.5 18.5q89 0 135 -55.5t46 -142.5v-312h-152v286
q0 39 -20.5 62.5t-60.5 23.5q-37 0 -59.5 -24.5t-22.5 -62.5z" />
    <glyph glyph-name="Ncaron" unicode="&#x147;" horiz-adv-x="776" 
d="M188 891h140l58 -65l58 65h135l-123 -132h-145zM696 0h-167l-292 466v-466h-157v709h192l266 -431v431h158v-709z" />
    <glyph glyph-name="ncaron" unicode="&#x148;" horiz-adv-x="590" 
d="M105 707h116l71 -72l70 72h113l-112 -151h-145zM216 285v-285h-152v497h147v-57q19 33 58.5 51.5t80.5 18.5q89 0 135 -55.5t46 -142.5v-312h-152v286q0 39 -20.5 62.5t-60.5 23.5q-37 0 -59.5 -24.5t-22.5 -62.5z" />
    <glyph glyph-name="napostrophe" unicode="&#x149;" horiz-adv-x="590" 
d="M50 693q0 29 22 49.5t57 20.5q40 0 65 -27t25 -66q0 -40 -14 -68.5t-38 -42t-47 -19t-48 -5.5h-8v52q83 0 88 45q0 -1 -3.5 -2.5t-11 -3t-16.5 -1.5q-34 0 -52.5 19t-18.5 49zM216 285v-285h-152v497h147v-57q19 33 58.5 51.5t80.5 18.5q89 0 135 -55.5t46 -142.5v-312
h-152v286q0 39 -20.5 62.5t-60.5 23.5q-37 0 -59.5 -24.5t-22.5 -62.5z" />
    <glyph glyph-name="Eng" unicode="&#x14a;" horiz-adv-x="776" 
d="M538 -9l-301 475v-466h-157v709h192l266 -427v427h158v-741q0 -77 -48.5 -124.5t-127.5 -47.5q-63 0 -91 14v129q27 -6 52 -6q57 0 57 50v8z" />
    <glyph glyph-name="eng" unicode="&#x14b;" horiz-adv-x="590" 
d="M379 -15v301q0 39 -20.5 62.5t-60.5 23.5q-37 0 -59.5 -24.5t-22.5 -62.5v-285h-152v497h147v-57q19 33 58.5 51.5t80.5 18.5q89 0 135 -55.5t46 -142.5v-344q0 -75 -47 -122t-122 -47q-66 0 -86 14v125q24 -6 48 -6q55 0 55 53z" />
    <glyph glyph-name="Omacron" unicode="&#x14c;" horiz-adv-x="815" 
d="M203 355q0 -104 61.5 -159t143.5 -55t143 55t61 159t-61 159.5t-143 55.5t-143.5 -55.5t-61.5 -159.5zM39 354q0 165 107.5 267.5t261.5 102.5t261 -103t107 -267t-107 -266.5t-261 -102.5t-261.5 102.5t-107.5 266.5zM563 771h-311v109h311v-109z" />
    <glyph glyph-name="omacron" unicode="&#x14d;" horiz-adv-x="600" 
d="M443 577h-286v105h286v-105zM300 125q47 0 79.5 32t32.5 92t-32.5 91.5t-79.5 31.5q-46 0 -79 -32t-33 -91t33 -91.5t79 -32.5zM300 512q113 0 188.5 -74t75.5 -189t-75.5 -189.5t-188.5 -74.5q-112 0 -188 75t-76 189t76 188.5t188 74.5z" />
    <glyph glyph-name="Obreve" unicode="&#x14e;" horiz-adv-x="815" 
d="M408 753q-78 0 -121.5 41t-45.5 97h113q1 -22 15 -36t39 -14q26 0 40 14t15 36h112q-2 -56 -45 -97t-122 -41zM203 355q0 -104 61.5 -159t143.5 -55t143 55t61 159t-61 159.5t-143 55.5t-143.5 -55.5t-61.5 -159.5zM39 354q0 165 107.5 267.5t261.5 102.5t261 -103
t107 -267t-107 -266.5t-261 -102.5t-261.5 102.5t-107.5 266.5z" />
    <glyph glyph-name="obreve" unicode="&#x14f;" horiz-adv-x="600" 
d="M300 125q47 0 79.5 32t32.5 92t-32.5 91.5t-79.5 31.5q-46 0 -79 -32t-33 -91t33 -91.5t79 -32.5zM300 512q113 0 188.5 -74t75.5 -189t-75.5 -189.5t-188.5 -74.5q-112 0 -188 75t-76 189t76 188.5t188 74.5zM300 551q-78 0 -122 45t-46 111h96q2 -23 20 -39.5t52 -16.5
t52 16.5t20 39.5h97q-2 -66 -46 -111t-123 -45z" />
    <glyph glyph-name="Ohungarumlaut" unicode="&#x150;" horiz-adv-x="815" 
d="M455 891l-93 -132h-94l48 132h139zM636 891l-110 -132h-96l65 132h141zM203 355q0 -104 61.5 -159t143.5 -55t143 55t61 159t-61 159.5t-143 55.5t-143.5 -55.5t-61.5 -159.5zM39 354q0 165 107.5 267.5t261.5 102.5t261 -103t107 -267t-107 -266.5t-261 -102.5
t-261.5 102.5t-107.5 266.5z" />
    <glyph glyph-name="ohungarumlaut" unicode="&#x151;" horiz-adv-x="600" 
d="M300 125q47 0 79.5 32t32.5 92t-32.5 91.5t-79.5 31.5q-46 0 -79 -32t-33 -91t33 -91.5t79 -32.5zM300 512q113 0 188.5 -74t75.5 -189t-75.5 -189.5t-188.5 -74.5q-112 0 -188 75t-76 189t76 188.5t188 74.5zM360 707l-102 -151h-92l53 151h141zM538 707l-118 -151h-93
l69 151h142z" />
    <glyph glyph-name="OE" unicode="&#x152;" horiz-adv-x="1114" 
d="M203 355q0 -104 61.5 -159t143.5 -55t143 55t61 159t-61 159.5t-143 55.5t-143.5 -55.5t-61.5 -159.5zM1063 0h-451v60q-75 -75 -204 -75q-154 0 -261.5 102.5t-107.5 266.5q0 165 107.5 267.5t261.5 102.5q131 0 204 -75v60h450v-149h-291v-135h264v-139h-264v-136h292
v-150z" />
    <glyph glyph-name="oe" unicode="&#x153;" horiz-adv-x="948" 
d="M565 308h199q-2 34 -26.5 59t-73.5 25q-44 0 -70 -26t-29 -58zM300 125q47 0 79.5 32t32.5 92t-32.5 91.5t-79.5 31.5q-46 0 -79 -32t-33 -91t33 -91.5t79 -32.5zM300 512q112 0 187 -73q71 73 175 73q116 0 182.5 -67.5t66.5 -187.5q0 -38 -3 -47h-346q2 -41 35 -68.5
t78 -27.5q77 0 100 65l127 -36q-19 -69 -79 -113.5t-150 -44.5q-112 0 -186 74q-76 -74 -187 -74q-112 0 -188 75t-76 189t76 188.5t188 74.5z" />
    <glyph glyph-name="Racute" unicode="&#x154;" horiz-adv-x="634" 
d="M501 891l-150 -132h-135l104 132h181zM421 0l-127 264h-56v-264h-158v709h281q103 0 166.5 -63t63.5 -159q0 -72 -37 -124.5t-103 -75.5l144 -287h-174zM238 400h93q48 0 74 23.5t26 62.5q0 40 -26 63t-74 23h-93v-172z" />
    <glyph glyph-name="racute" unicode="&#x155;" horiz-adv-x="401" 
d="M357 707l-141 -151h-121l92 151h170zM380 497v-150q-21 5 -48 5q-50 0 -83 -33t-33 -102v-217h-152v497h147v-67q18 38 55 55t74 17q23 0 40 -5z" />
    <glyph glyph-name="Rcommaaccent" unicode="&#x156;" horiz-adv-x="634" 
d="M421 0l-127 264h-56v-264h-158v709h281q103 0 166.5 -63t63.5 -159q0 -72 -37 -124.5t-103 -75.5l144 -287h-174zM238 400h93q48 0 74 23.5t26 62.5q0 40 -26 63t-74 23h-93v-172zM253 -104q0 29 22 49t57 20q39 0 64.5 -27t25.5 -65t-13.5 -66t-36 -42.5t-45.5 -21
t-48 -6.5q-6 0 -12 1v52q83 0 88 46q-14 -7 -31 -7q-34 0 -52.5 19t-18.5 48z" />
    <glyph glyph-name="rcommaaccent" unicode="&#x157;" horiz-adv-x="401" 
d="M380 497v-150q-21 5 -48 5q-50 0 -83 -33t-33 -102v-217h-152v497h147v-67q18 38 55 55t74 17q23 0 40 -5zM57 -109q0 29 22 49t57 20q39 0 64.5 -27t25.5 -65t-13.5 -66t-36 -42.5t-45.5 -21t-48 -6.5q-6 0 -12 1v52q83 0 88 46q-14 -7 -31 -7q-34 0 -52.5 19t-18.5 48z
" />
    <glyph glyph-name="Rcaron" unicode="&#x158;" horiz-adv-x="634" 
d="M122 891h140l58 -65l58 65h135l-123 -132h-145zM421 0l-127 264h-56v-264h-158v709h281q103 0 166.5 -63t63.5 -159q0 -72 -37 -124.5t-103 -75.5l144 -287h-174zM238 400h93q48 0 74 23.5t26 62.5q0 40 -26 63t-74 23h-93v-172z" />
    <glyph glyph-name="rcaron" unicode="&#x159;" horiz-adv-x="401" 
d="M24 707h116l71 -72l70 72h113l-112 -151h-145zM380 497v-150q-21 5 -48 5q-50 0 -83 -33t-33 -102v-217h-152v497h147v-67q18 38 55 55t74 17q23 0 40 -5z" />
    <glyph glyph-name="Sacute" unicode="&#x15a;" horiz-adv-x="623" 
d="M526 891l-150 -132h-135l104 132h181zM571 535l-142 -40q-5 33 -33 61t-85 28q-43 0 -70 -22.5t-27 -53.5q0 -55 70 -68l95 -18q98 -18 151.5 -76.5t53.5 -136.5q0 -89 -71 -156.5t-191 -67.5q-134 0 -207.5 69.5t-82.5 157.5l145 35q5 -53 41.5 -87.5t105.5 -34.5
q46 0 73 20.5t27 53.5q0 27 -20 45.5t-56 25.5l-97 18q-90 17 -141.5 73t-51.5 135q0 98 75 163t179 65q63 0 112.5 -17.5t78.5 -46.5t45.5 -60t22.5 -65z" />
    <glyph glyph-name="sacute" unicode="&#x15b;" horiz-adv-x="480" 
d="M433 707l-141 -151h-121l92 151h170zM34 141l129 23q2 -28 21.5 -47.5t56.5 -19.5q28 0 43 12.5t15 30.5q0 30 -49 41l-57 13q-76 16 -112 56.5t-36 96.5q0 69 54.5 117t136.5 48q97 0 145.5 -46.5t53.5 -101.5l-126 -23q-3 27 -20.5 44t-50.5 17q-22 0 -38 -12t-16 -31
q0 -30 39 -37l66 -13q75 -15 114 -57t39 -99q0 -69 -52 -118.5t-146 -49.5q-55 0 -97.5 16t-65 41.5t-34 50.5t-13.5 48z" />
    <glyph glyph-name="Scircumflex" unicode="&#x15c;" horiz-adv-x="623" 
d="M265 759h-135l122 132h145l124 -132h-141l-58 65zM571 535l-142 -40q-5 33 -33 61t-85 28q-43 0 -70 -22.5t-27 -53.5q0 -55 70 -68l95 -18q98 -18 151.5 -76.5t53.5 -136.5q0 -89 -71 -156.5t-191 -67.5q-134 0 -207.5 69.5t-82.5 157.5l145 35q5 -53 41.5 -87.5
t105.5 -34.5q46 0 73 20.5t27 53.5q0 27 -20 45.5t-56 25.5l-97 18q-90 17 -141.5 73t-51.5 135q0 98 75 163t179 65q63 0 112.5 -17.5t78.5 -46.5t45.5 -60t22.5 -65z" />
    <glyph glyph-name="scircumflex" unicode="&#x15d;" horiz-adv-x="480" 
d="M178 556h-113l113 151h143l114 -151h-116l-71 71zM34 141l129 23q2 -28 21.5 -47.5t56.5 -19.5q28 0 43 12.5t15 30.5q0 30 -49 41l-57 13q-76 16 -112 56.5t-36 96.5q0 69 54.5 117t136.5 48q97 0 145.5 -46.5t53.5 -101.5l-126 -23q-3 27 -20.5 44t-50.5 17
q-22 0 -38 -12t-16 -31q0 -30 39 -37l66 -13q75 -15 114 -57t39 -99q0 -69 -52 -118.5t-146 -49.5q-55 0 -97.5 16t-65 41.5t-34 50.5t-13.5 48z" />
    <glyph glyph-name="Scedilla" unicode="&#x15e;" horiz-adv-x="623" 
d="M284 -112l-37 49l32 50q-115 12 -177 78.5t-70 146.5l145 35q5 -53 41.5 -87.5t105.5 -34.5q46 0 73 20.5t27 53.5q0 27 -20 45.5t-56 25.5l-97 18q-90 17 -141.5 73t-51.5 135q0 98 75 163t179 65q63 0 112.5 -17.5t78.5 -46.5t45.5 -60t22.5 -65l-142 -40q-5 33 -33 61
t-85 28q-43 0 -70 -22.5t-27 -53.5q0 -55 70 -68l95 -18q98 -18 151.5 -76.5t53.5 -136.5q0 -80 -57.5 -144t-157.5 -77l-24 -37q44 -1 70.5 -25.5t26.5 -62.5q0 -39 -32.5 -68.5t-100.5 -29.5q-40 0 -74 17t-50 38l47 59q38 -38 76 -38t38 26q0 10 -9.5 17.5t-25.5 7.5
t-27 -4z" />
    <glyph glyph-name="scedilla" unicode="&#x15f;" horiz-adv-x="480" 
d="M205 -112l-37 49l33 51q-82 11 -123 58t-44 95l129 23q2 -28 21.5 -47.5t56.5 -19.5q28 0 43 12.5t15 30.5q0 30 -49 41l-57 13q-76 16 -112 56.5t-36 96.5q0 69 54.5 117t136.5 48q97 0 145.5 -46.5t53.5 -101.5l-126 -23q-3 27 -20.5 44t-50.5 17q-22 0 -38 -12
t-16 -31q0 -30 39 -37l66 -13q75 -15 114 -57t39 -99q0 -60 -39.5 -106.5t-111.5 -57.5l-25 -38q44 -1 70.5 -25.5t26.5 -62.5q0 -39 -32.5 -68.5t-100.5 -29.5q-40 0 -74 17t-50 38l47 59q38 -38 76 -38t38 26q0 10 -9.5 17.5t-25.5 7.5t-27 -4z" />
    <glyph glyph-name="Scaron" unicode="&#x160;" horiz-adv-x="623" 
d="M122 891h140l58 -65l58 65h135l-123 -132h-145zM571 535l-142 -40q-5 33 -33 61t-85 28q-43 0 -70 -22.5t-27 -53.5q0 -55 70 -68l95 -18q98 -18 151.5 -76.5t53.5 -136.5q0 -89 -71 -156.5t-191 -67.5q-134 0 -207.5 69.5t-82.5 157.5l145 35q5 -53 41.5 -87.5
t105.5 -34.5q46 0 73 20.5t27 53.5q0 27 -20 45.5t-56 25.5l-97 18q-90 17 -141.5 73t-51.5 135q0 98 75 163t179 65q63 0 112.5 -17.5t78.5 -46.5t45.5 -60t22.5 -65z" />
    <glyph glyph-name="scaron" unicode="&#x161;" horiz-adv-x="480" 
d="M56 707h116l71 -72l70 72h113l-112 -151h-145zM34 141l129 23q2 -28 21.5 -47.5t56.5 -19.5q28 0 43 12.5t15 30.5q0 30 -49 41l-57 13q-76 16 -112 56.5t-36 96.5q0 69 54.5 117t136.5 48q97 0 145.5 -46.5t53.5 -101.5l-126 -23q-3 27 -20.5 44t-50.5 17q-22 0 -38 -12
t-16 -31q0 -30 39 -37l66 -13q75 -15 114 -57t39 -99q0 -69 -52 -118.5t-146 -49.5q-55 0 -97.5 16t-65 41.5t-34 50.5t-13.5 48z" />
    <glyph glyph-name="Tcommaaccent" unicode="&#x162;" horiz-adv-x="629" 
d="M266 -112l-37 49l40 63h-34v558h-218v151h595v-151h-219v-558h-34l-32 -49q44 -1 70.5 -25.5t26.5 -62.5q0 -39 -32.5 -68.5t-100.5 -29.5q-40 0 -74 17t-50 38l47 59q38 -38 76 -38t38 26q0 10 -9.5 17.5t-25.5 7.5t-27 -4z" />
    <glyph glyph-name="tcommaaccent" unicode="&#x163;" horiz-adv-x="395" 
d="M193 -112l-37 49l43 67q-90 36 -90 147v213h-88v133h25q38 0 57.5 22.5t19.5 58.5v64h136v-145h97v-133h-97v-186q0 -52 55 -52q18 0 40 5v-126q-26 -13 -74 -14l-26 -40q44 -1 70.5 -25.5t26.5 -62.5q0 -39 -32.5 -68.5t-100.5 -29.5q-40 0 -74 17t-50 38l47 59
q38 -38 76 -38t38 26q0 10 -9.5 17.5t-25.5 7.5t-27 -4z" />
    <glyph glyph-name="Tcaron" unicode="&#x164;" horiz-adv-x="629" 
d="M119 891h140l58 -65l58 65h135l-123 -132h-145zM612 558h-219v-558h-158v558h-218v151h595v-151z" />
    <glyph glyph-name="tcaron" unicode="&#x165;" horiz-adv-x="394" 
d="M479 759l-75 -207h-99l29 207h145zM258 642v-145h97v-133h-97v-186q0 -52 55 -52q17 0 40 5v-126q-28 -14 -79 -14q-77 0 -121.5 43t-44.5 117v213h-88v133h25q38 0 57.5 22.5t19.5 58.5v64h136z" />
    <glyph glyph-name="Tbar" unicode="&#x166;" horiz-adv-x="641" 
d="M618 558h-219v-186h128v-113h-128v-259h-158v259h-124v113h124v186h-218v151h595v-151z" />
    <glyph glyph-name="tbar" unicode="&#x167;" horiz-adv-x="399" 
d="M263 642v-145h97v-133h-97v-67h97v-104h-97v-15q0 -52 55 -52q20 0 42 4v-125q-28 -14 -81 -14q-77 0 -121.5 43t-44.5 117v42h-88v104h88v67h-88v133h25q38 0 57.5 22.5t19.5 58.5v64h136z" />
    <glyph glyph-name="Utilde" unicode="&#x168;" horiz-adv-x="708" 
d="M354 -16q-122 0 -201.5 71.5t-79.5 200.5v453h158v-440q0 -63 32.5 -96t90.5 -33t90.5 33t32.5 96v440h158v-453q0 -129 -79.5 -200.5t-201.5 -71.5zM525 895v-34q0 -52 -30 -81t-74 -29q-37 0 -79 25l-5 3q-33 20 -47 20q-11 0 -18.5 -7.5t-7.5 -21.5v-13h-87v33
q0 52 30 80t73 28q38 0 79 -24q40 -22 52 -22q27 0 27 29v14h87z" />
    <glyph glyph-name="utilde" unicode="&#x169;" horiz-adv-x="591" 
d="M385 0q-4 18 -4 50q-18 -30 -55 -45.5t-78 -15.5q-88 0 -138.5 55.5t-50.5 138.5v314h152v-282q0 -38 20.5 -62t59.5 -24q38 0 60.5 23.5t22.5 61.5v283h152v-408q0 -49 5 -89h-146zM480 706v-20q0 -64 -30.5 -97t-81.5 -33q-32 0 -76 23q-42 21 -56 21q-33 0 -34 -43
h-86v23q0 62 31.5 94.5t81.5 32.5q34 0 76 -23q37 -22 55 -22q33 0 35 44h85z" />
    <glyph glyph-name="Umacron" unicode="&#x16a;" horiz-adv-x="708" 
d="M354 -16q-122 0 -201.5 71.5t-79.5 200.5v453h158v-440q0 -63 32.5 -96t90.5 -33t90.5 33t32.5 96v440h158v-453q0 -129 -79.5 -200.5t-201.5 -71.5zM511 771h-311v109h311v-109z" />
    <glyph glyph-name="umacron" unicode="&#x16b;" horiz-adv-x="591" 
d="M385 0q-4 18 -4 50q-18 -30 -55 -45.5t-78 -15.5q-88 0 -138.5 55.5t-50.5 138.5v314h152v-282q0 -38 20.5 -62t59.5 -24q38 0 60.5 23.5t22.5 61.5v283h152v-408q0 -49 5 -89h-146zM436 577h-286v105h286v-105z" />
    <glyph glyph-name="Ubreve" unicode="&#x16c;" horiz-adv-x="708" 
d="M354 -16q-122 0 -201.5 71.5t-79.5 200.5v453h158v-440q0 -63 32.5 -96t90.5 -33t90.5 33t32.5 96v440h158v-453q0 -129 -79.5 -200.5t-201.5 -71.5zM354 753q-78 0 -121.5 41t-45.5 97h113q1 -22 15 -36t39 -14q26 0 40 14t15 36h112q-2 -56 -45 -97t-122 -41z" />
    <glyph glyph-name="ubreve" unicode="&#x16d;" horiz-adv-x="591" 
d="M385 0q-4 18 -4 50q-18 -30 -55 -45.5t-78 -15.5q-88 0 -138.5 55.5t-50.5 138.5v314h152v-282q0 -38 20.5 -62t59.5 -24q38 0 60.5 23.5t22.5 61.5v283h152v-408q0 -49 5 -89h-146zM289 551q-78 0 -122 45t-46 111h96q2 -23 20 -39.5t52 -16.5t52 16.5t20 39.5h97
q-2 -66 -46 -111t-123 -45z" />
    <glyph glyph-name="Uring" unicode="&#x16e;" horiz-adv-x="708" 
d="M354 -16q-122 0 -201.5 71.5t-79.5 200.5v453h158v-440q0 -63 32.5 -96t90.5 -33t90.5 33t32.5 96v440h158v-453q0 -129 -79.5 -200.5t-201.5 -71.5zM495 861q0 -58 -42 -97t-99 -39t-98.5 39t-41.5 97q0 59 41.5 98t98.5 39q58 0 99.5 -39t41.5 -98zM402 861
q0 22 -13.5 35t-33.5 13q-21 0 -35 -13t-14 -35t14 -34.5t35 -12.5q20 0 33.5 12.5t13.5 34.5z" />
    <glyph glyph-name="uring" unicode="&#x16f;" horiz-adv-x="591" 
d="M410 652q0 -48 -34 -79.5t-82 -31.5t-82 31.5t-34 79.5q0 49 34 81t82 32t82 -32t34 -81zM331 652q0 17 -10.5 27.5t-26.5 10.5t-26.5 -10.5t-10.5 -27.5t10.5 -27.5t26.5 -10.5t26.5 10.5t10.5 27.5zM385 0q-4 18 -4 50q-18 -30 -55 -45.5t-78 -15.5q-88 0 -138.5 55.5
t-50.5 138.5v314h152v-282q0 -38 20.5 -62t59.5 -24q38 0 60.5 23.5t22.5 61.5v283h152v-408q0 -49 5 -89h-146z" />
    <glyph glyph-name="Uhungarumlaut" unicode="&#x170;" horiz-adv-x="708" 
d="M404 891l-93 -132h-94l48 132h139zM585 891l-110 -132h-96l65 132h141zM354 -16q-122 0 -201.5 71.5t-79.5 200.5v453h158v-440q0 -63 32.5 -96t90.5 -33t90.5 33t32.5 96v440h158v-453q0 -129 -79.5 -200.5t-201.5 -71.5z" />
    <glyph glyph-name="uhungarumlaut" unicode="&#x171;" horiz-adv-x="591" 
d="M385 0q-4 18 -4 50q-18 -30 -55 -45.5t-78 -15.5q-88 0 -138.5 55.5t-50.5 138.5v314h152v-282q0 -38 20.5 -62t59.5 -24q38 0 60.5 23.5t22.5 61.5v283h152v-408q0 -49 5 -89h-146zM340 707l-102 -151h-92l53 151h141zM518 707l-118 -151h-93l69 151h142z" />
    <glyph glyph-name="Uogonek" unicode="&#x172;" horiz-adv-x="708" 
d="M406 -226q-56 0 -91 30t-35 79q0 61 50 102q-113 6 -185 77.5t-72 193.5v453h158v-440q0 -63 32.5 -96t90.5 -33t90.5 33t32.5 96v440h158v-453q0 -98 -48 -163.5t-128 -92.5q-30 -10 -53 -35.5t-23 -53.5q0 -23 12.5 -35t34.5 -12q15 0 29 2v-84q-21 -8 -53 -8z" />
    <glyph glyph-name="uogonek" unicode="&#x173;" horiz-adv-x="591" 
d="M352 -117q0 75 72 117h-39q-4 18 -4 50q-18 -30 -55 -45.5t-78 -15.5q-88 0 -138.5 55.5t-50.5 138.5v314h152v-282q0 -38 20.5 -62t59.5 -24q38 0 60.5 23.5t22.5 61.5v283h152v-408q0 -39 5 -89q-31 -15 -53.5 -40t-22.5 -53q0 -20 13 -31.5t34 -11.5q15 0 29 2v-84
q-21 -8 -53 -8q-56 0 -91 30t-35 79z" />
    <glyph glyph-name="Wcircumflex" unicode="&#x174;" horiz-adv-x="1052" 
d="M465 759h-135l122 132h145l124 -132h-141l-58 65zM758 254l115 455h162l-193 -709h-163l-151 470l-152 -470h-166l-193 709h168l117 -454l147 454h162z" />
    <glyph glyph-name="wcircumflex" unicode="&#x175;" horiz-adv-x="862" 
d="M362 556h-113l113 151h143l114 -151h-116l-71 71zM355 497h161l97 -295l83 295h149l-154 -497h-151l-108 321l-106 -321h-154l-156 497h158l83 -294z" />
    <glyph glyph-name="Ycircumflex" unicode="&#x176;" horiz-adv-x="665" 
d="M253 296l-246 413h185l145 -263l147 263h176l-249 -413v-296h-158v296zM273 759h-135l122 132h145l124 -132h-141l-58 65z" />
    <glyph glyph-name="ycircumflex" unicode="&#x177;" horiz-adv-x="576" 
d="M264 -191h-160l113 258l-209 430h170l121 -266l110 266h161zM219 556h-113l113 151h143l114 -151h-116l-71 71z" />
    <glyph glyph-name="Ydieresis" unicode="&#x178;" horiz-adv-x="665" 
d="M136 824q0 34 22 57t56 23t57 -23t23 -57q0 -33 -23 -55t-57 -22t-56 22t-22 55zM381 824q0 34 22 57t55 23q34 0 57 -23t23 -57q0 -33 -23 -55t-57 -22q-33 0 -55 22t-22 55zM253 296l-246 413h185l145 -263l147 263h176l-249 -413v-296h-158v296z" />
    <glyph glyph-name="Zacute" unicode="&#x179;" horiz-adv-x="649" 
d="M509 891l-150 -132h-135l104 132h181zM604 0h-563v152l342 406h-327v151h544v-146l-350 -412h354v-151z" />
    <glyph glyph-name="zacute" unicode="&#x17a;" horiz-adv-x="506" 
d="M436 707l-141 -151h-121l92 151h170zM462 0h-417v134l219 233h-213v130h407v-125l-229 -241h233v-131z" />
    <glyph glyph-name="Zdotaccent" unicode="&#x17b;" horiz-adv-x="649" 
d="M604 0h-563v152l342 406h-327v151h544v-146l-350 -412h354v-151zM244 841q0 37 25.5 62t63.5 25q37 0 63 -25t26 -62t-26 -62t-63 -25q-38 0 -63.5 25t-25.5 62z" />
    <glyph glyph-name="zdotaccent" unicode="&#x17c;" horiz-adv-x="506" 
d="M462 0h-417v134l219 233h-213v130h407v-125l-229 -241h233v-131zM167 633q0 37 25.5 62t63.5 25q37 0 63 -25t26 -62q0 -36 -26 -61t-63 -25q-38 0 -63.5 24.5t-25.5 61.5z" />
    <glyph glyph-name="Zcaron" unicode="&#x17d;" horiz-adv-x="649" 
d="M136 891h140l58 -65l58 65h135l-123 -132h-145zM604 0h-563v152l342 406h-327v151h544v-146l-350 -412h354v-151z" />
    <glyph glyph-name="zcaron" unicode="&#x17e;" horiz-adv-x="506" 
d="M73 707h116l71 -72l70 72h113l-112 -151h-145zM462 0h-417v134l219 233h-213v130h407v-125l-229 -241h233v-131z" />
    <glyph glyph-name="uni018F" unicode="&#x18f;" horiz-adv-x="789" 
d="M391 725q157 0 257.5 -100t100.5 -276q0 -163 -103 -264t-257 -101q-148 0 -252 99t-104 275q0 13 1 25h551q-4 95 -61.5 143t-137.5 48q-82 0 -132.5 -42.5t-64.5 -92.5l-147 53q25 93 117.5 163t231.5 70zM391 131q67 0 118.5 33t60.5 93h-350q8 -53 53.5 -89.5
t117.5 -36.5z" />
    <glyph glyph-name="florin" unicode="&#x192;" horiz-adv-x="568" 
d="M132 30l69 340h-93v126h118l17 82q16 80 73 121.5t125 41.5q50 0 97 -16v-130q-34 8 -67 8q-24 0 -47 -15t-31 -53l-8 -39h110v-126h-136l-77 -383q-16 -81 -73 -122t-125 -41q-52 0 -100 15v131q32 -8 70 -8q24 0 47 15t31 53z" />
    <glyph glyph-name="uni01B5" unicode="&#x1b5;" horiz-adv-x="660" 
d="M609 0h-563v152l124 147h-106v128h213l111 131h-327v151h544v-146l-116 -136h110v-128h-219l-125 -148h354v-151z" />
    <glyph glyph-name="uni01B6" unicode="&#x1b6;" horiz-adv-x="511" 
d="M464 0h-418v107l78 90h-71v104h162l62 71h-224v125h406v-111l-74 -85h75v-104h-165l-62 -71h231v-126z" />
    <glyph glyph-name="Aringacute" unicode="&#x1fa;" horiz-adv-x="729" 
d="M363 531l-87 -243h172zM577 1049l-150 -132h-135l104 132h181zM409 756q0 22 -13.5 35t-33.5 13q-21 0 -35 -13t-14 -35t14 -34.5t35 -12.5q20 0 33.5 12.5t13.5 34.5zM502 756q0 -47 -31 -85l250 -671h-172l-51 144h-274l-51 -144h-166l250 664q-36 39 -36 92
q0 59 41.5 98t98.5 39q58 0 99.5 -39t41.5 -98z" />
    <glyph glyph-name="aringacute" unicode="&#x1fb;" horiz-adv-x="545" 
d="M37 137q0 63 41 101.5t106 48.5l117 18q36 5 36 34q0 23 -19.5 38.5t-53.5 15.5q-38 0 -60.5 -21.5t-24.5 -51.5l-132 27q5 62 61.5 113.5t156.5 51.5q113 0 166.5 -54t53.5 -138v-243q0 -47 6 -77h-137q-5 20 -5 56q-43 -70 -140 -70q-79 0 -125.5 44.5t-46.5 106.5z
M246 96q39 0 65 23t26 76v22l-94 -15q-56 -9 -56 -55q0 -21 14.5 -36t44.5 -15zM465 939l-141 -151h-121l92 151h170zM383 648q0 -48 -34 -79.5t-82 -31.5t-82 31.5t-34 79.5q0 49 34 81t82 32t82 -32t34 -81zM304 648q0 17 -10.5 27.5t-26.5 10.5t-26.5 -10.5t-10.5 -27.5
t10.5 -27.5t26.5 -10.5t26.5 10.5t10.5 27.5z" />
    <glyph glyph-name="AEacute" unicode="&#x1fc;" horiz-adv-x="1054" 
d="M770 891l-150 -132h-135l104 132h181zM1003 0h-451v153h-274l-97 -153h-189l468 709h542v-149h-292v-135h265v-139h-265v-136h293v-150zM361 282h191v299z" />
    <glyph glyph-name="aeacute" unicode="&#x1fd;" horiz-adv-x="871" 
d="M622 707l-141 -151h-121l92 151h170zM699 181l126 -38q-20 -68 -80.5 -113t-150.5 -45q-114 0 -185 79q-68 -79 -180 -79q-91 0 -141.5 44t-50.5 108q0 63 41 101.5t106 48.5l120 18q37 5 37 34q0 23 -19.5 38.5t-54.5 15.5q-40 0 -63 -21.5t-26 -51.5l-131 27
q5 62 62.5 113.5t158.5 51.5q113 0 165 -57q70 57 157 57q114 0 179 -67.5t65 -187.5q0 -38 -3 -47h-349q3 -44 35.5 -70.5t78.5 -26.5q78 0 103 68zM248 96q39 0 66 23t27 76v22l-98 -15q-57 -9 -57 -56q0 -20 16.5 -35t45.5 -15zM485 308h202q-2 34 -26.5 59t-75.5 25
q-45 0 -71 -26t-29 -58z" />
    <glyph glyph-name="Oslashacute" unicode="&#x1fe;" horiz-adv-x="815" 
d="M619 891l-150 -132h-135l104 132h181zM39 354q0 165 107.5 267.5t261.5 102.5q94 0 175 -42l70 90l96 -74l-69 -89q96 -103 96 -255q0 -164 -107 -266.5t-261 -102.5q-96 0 -178 42l-69 -89l-98 73l70 90q-94 102 -94 253zM612 355q0 74 -33 124l-250 -324q35 -14 79 -14
q82 0 143 55t61 159zM203 355q0 -71 32 -122l250 322q-37 15 -77 15q-82 0 -143.5 -55.5t-61.5 -159.5z" />
    <glyph glyph-name="oslashacute" unicode="&#x1ff;" horiz-adv-x="600" 
d="M490 707l-141 -151h-121l92 151h170zM300 512q75 0 135 -34l54 65l68 -57l-53 -64q60 -71 60 -173q0 -115 -75.5 -189.5t-188.5 -74.5q-69 0 -130 32l-51 -62l-69 57l50 60q-64 74 -64 177q0 114 76 188.5t188 74.5zM188 249q0 -30 10 -57l143 172q-21 8 -41 8
q-46 0 -79 -32t-33 -91zM300 125q47 0 79.5 32t32.5 92q0 27 -8 51l-140 -169q16 -6 36 -6z" />
    <glyph glyph-name="Scommaaccent" unicode="&#x218;" horiz-adv-x="623" 
d="M571 535l-142 -40q-5 33 -33 61t-85 28q-43 0 -70 -22.5t-27 -53.5q0 -55 70 -68l95 -18q98 -18 151.5 -76.5t53.5 -136.5q0 -89 -71 -156.5t-191 -67.5q-134 0 -207.5 69.5t-82.5 157.5l145 35q5 -53 41.5 -87.5t105.5 -34.5q46 0 73 20.5t27 53.5q0 27 -20 45.5
t-56 25.5l-97 18q-90 17 -141.5 73t-51.5 135q0 98 75 163t179 65q63 0 112.5 -17.5t78.5 -46.5t45.5 -60t22.5 -65zM241 -109q0 29 22 49t57 20q39 0 64.5 -27t25.5 -65t-13.5 -66t-36 -42.5t-45.5 -21t-48 -6.5q-6 0 -12 1v52q83 0 88 46q-14 -7 -31 -7q-34 0 -52.5 19
t-18.5 48z" />
    <glyph glyph-name="scommaaccent" unicode="&#x219;" horiz-adv-x="480" 
d="M34 141l129 23q2 -28 21.5 -47.5t56.5 -19.5q28 0 43 12.5t15 30.5q0 30 -49 41l-57 13q-76 16 -112 56.5t-36 96.5q0 69 54.5 117t136.5 48q97 0 145.5 -46.5t53.5 -101.5l-126 -23q-3 27 -20.5 44t-50.5 17q-22 0 -38 -12t-16 -31q0 -30 39 -37l66 -13q75 -15 114 -57
t39 -99q0 -69 -52 -118.5t-146 -49.5q-55 0 -97.5 16t-65 41.5t-34 50.5t-13.5 48zM160 -114q0 29 22 49t57 20q39 0 64.5 -27t25.5 -65t-13.5 -66t-36 -42.5t-45.5 -21t-48 -6.5q-6 0 -12 1v52q83 0 88 46q-14 -7 -31 -7q-34 0 -52.5 19t-18.5 48z" />
    <glyph glyph-name="uni021A" unicode="&#x21a;" horiz-adv-x="629" 
d="M612 558h-219v-558h-158v558h-218v151h595v-151zM232 -109q0 29 22 49t57 20q39 0 64.5 -27t25.5 -65t-13.5 -66t-36 -42.5t-45.5 -21t-48 -6.5q-6 0 -12 1v52q83 0 88 46q-14 -7 -31 -7q-34 0 -52.5 19t-18.5 48z" />
    <glyph glyph-name="uni021B" unicode="&#x21b;" horiz-adv-x="394" 
d="M258 642v-145h97v-133h-97v-186q0 -52 55 -52q17 0 40 5v-126q-28 -14 -79 -14q-77 0 -121.5 43t-44.5 117v213h-88v133h25q38 0 57.5 22.5t19.5 58.5v64h136zM154 -109q0 29 22 49t57 20q39 0 64.5 -27t25.5 -65t-13.5 -66t-36 -42.5t-45.5 -21t-48 -6.5q-6 0 -12 1v52
q83 0 88 46q-14 -7 -31 -7q-34 0 -52.5 19t-18.5 48z" />
    <glyph glyph-name="dotlessj" unicode="&#x237;" horiz-adv-x="280" 
d="M64 -20v517h152v-533q0 -76 -44.5 -122.5t-119.5 -46.5q-54 0 -84 13v128q21 -7 45 -7q51 0 51 51z" />
    <glyph glyph-name="uni0259" unicode="&#x259;" horiz-adv-x="573" 
d="M388 189h-207q2 -35 28 -61t78 -26q46 0 72 27t29 60zM168 314l-124 45q22 64 85.5 109t154.5 45q112 0 182 -73t70 -193q0 -117 -72.5 -190t-176.5 -73q-112 0 -182 70t-70 186q0 31 3 43h353q-2 47 -32.5 75t-78.5 28q-41 0 -70.5 -20t-41.5 -52z" />
    <glyph glyph-name="circumflex" unicode="&#x2c6;" horiz-adv-x="414" 
d="M135 556h-113l113 151h143l114 -151h-116l-71 71z" />
    <glyph glyph-name="caron" unicode="&#x2c7;" horiz-adv-x="414" 
d="M22 707h116l71 -72l70 72h113l-112 -151h-145z" />
    <glyph glyph-name="uni02C9" unicode="&#x2c9;" horiz-adv-x="330" 
d="M308 577h-286v105h286v-105z" />
    <glyph glyph-name="breve" unicode="&#x2d8;" horiz-adv-x="380" 
d="M190 551q-78 0 -122 45t-46 111h96q2 -23 20 -39.5t52 -16.5t52 16.5t20 39.5h97q-2 -66 -46 -111t-123 -45z" />
    <glyph glyph-name="dotaccent" unicode="&#x2d9;" horiz-adv-x="201" 
d="M12 633q0 37 25.5 62t63.5 25q37 0 63 -25t26 -62q0 -36 -26 -61t-63 -25q-38 0 -63.5 24.5t-25.5 61.5z" />
    <glyph glyph-name="ring" unicode="&#x2da;" horiz-adv-x="276" 
d="M254 652q0 -48 -34 -79.5t-82 -31.5t-82 31.5t-34 79.5q0 49 34 81t82 32t82 -32t34 -81zM175 652q0 17 -10.5 27.5t-26.5 10.5t-26.5 -10.5t-10.5 -27.5t10.5 -27.5t26.5 -10.5t26.5 10.5t10.5 27.5z" />
    <glyph glyph-name="ogonek" unicode="&#x2db;" horiz-adv-x="220" 
d="M145 -226q-56 0 -91 30t-35 79q0 87 103 133l76 -16q-31 -15 -53.5 -40t-22.5 -53q0 -20 13 -31.5t34 -11.5q15 0 29 2v-84q-21 -8 -53 -8z" />
    <glyph glyph-name="tilde" unicode="&#x2dc;" horiz-adv-x="398" 
d="M381 706v-20q0 -64 -30.5 -97t-81.5 -33q-32 0 -76 23q-42 21 -56 21q-33 0 -34 -43h-86v23q0 62 31.5 94.5t81.5 32.5q34 0 76 -23q37 -22 55 -22q33 0 35 44h85z" />
    <glyph glyph-name="hungarumlaut" unicode="&#x2dd;" horiz-adv-x="410" 
d="M213 707l-102 -151h-92l53 151h141zM391 707l-118 -151h-93l69 151h142z" />
    <glyph glyph-name="uni0394" unicode="&#x394;" horiz-adv-x="719" 
d="M7 0l266 709h173l266 -709h-705zM359 539l-136 -391h273z" />
    <glyph glyph-name="uni03A9" unicode="&#x3a9;" horiz-adv-x="781" 
d="M390 574q-73 0 -125.5 -48.5t-52.5 -129.5q0 -70 41.5 -117.5t103.5 -60.5v-218h-300v145h162q-75 31 -123 100.5t-48 164.5q0 139 100.5 226.5t241.5 87.5t241.5 -87.5t100.5 -226.5q0 -96 -47.5 -165t-123.5 -100h163v-145h-301v218q62 13 104 60.5t42 117.5
q0 81 -52.5 129.5t-126.5 48.5z" />
    <glyph glyph-name="uni03BC" unicode="&#x3bc;" horiz-adv-x="596" 
d="M390 0q-4 18 -4 50q-18 -30 -55 -45.5t-78 -15.5q-19 0 -37 3v-182h-152v687h152v-282q0 -38 20.5 -62t59.5 -24q38 0 60.5 23.5t22.5 61.5v283h152v-408q0 -44 5 -89h-146z" />
    <glyph glyph-name="pi" unicode="&#x3c0;" horiz-adv-x="660" 
d="M613 5l-3 -1q-4 -2 -10.5 -4t-15 -4t-21 -3.5t-25.5 -1.5q-75 0 -114.5 41.5t-39.5 114.5v221h-116v-368h-153v368h-83v129h579v-129h-75v-200q0 -45 46 -45q18 0 31 3v-121z" />
    <glyph glyph-name="uni0401" unicode="&#x401;" horiz-adv-x="581" 
d="M530 0h-450v709h449v-149h-291v-135h264v-139h-264v-136h292v-150zM129 824q0 33 21.5 55.5t53.5 22.5q33 0 55 -22.5t22 -55.5q0 -32 -22 -53.5t-55 -21.5q-32 0 -53.5 21.5t-21.5 53.5zM327 824q0 33 22 55.5t54 22.5q33 0 55 -22.5t22 -55.5q0 -32 -22 -53.5
t-55 -21.5q-32 0 -54 21.5t-22 53.5z" />
    <glyph glyph-name="uni0402" unicode="&#x402;" horiz-adv-x="831" 
d="M559 -6q-36 0 -63 7v134q24 -5 50 -5q43 0 73.5 24.5t30.5 69.5q0 42 -27 66.5t-83 24.5q-70 0 -108.5 -43t-38.5 -120v-152h-158v558h-218v151h595v-151h-219v-172q64 70 173 70q117 0 181 -62t64 -163q0 -110 -68 -173.5t-184 -63.5z" />
    <glyph glyph-name="uni0403" unicode="&#x403;" horiz-adv-x="543" 
d="M80 0v709h447v-150h-288v-559h-159zM496 891l-150 -132h-135l104 132h181z" />
    <glyph glyph-name="uni0404" unicode="&#x404;" horiz-adv-x="768" 
d="M407 -15q-157 0 -262.5 101.5t-105.5 266.5q0 166 106.5 268.5t259.5 102.5q76 0 137.5 -22.5t99.5 -59.5t61 -76t32 -81l-149 -47q-5 21 -16 41.5t-31 42t-55 35t-79 13.5q-66 0 -122 -37t-69 -107h307v-139h-307q12 -64 68 -104t125 -40q82 0 127 41t59 92l151 -43
q-10 -41 -32.5 -81t-61 -79t-102 -63.5t-141.5 -24.5z" />
    <glyph glyph-name="uni0405" unicode="&#x405;" horiz-adv-x="623" 
d="M571 535l-142 -40q-5 33 -33 61t-85 28q-43 0 -70 -22.5t-27 -53.5q0 -55 70 -68l95 -18q98 -18 151.5 -76.5t53.5 -136.5q0 -89 -71 -156.5t-191 -67.5q-134 0 -207.5 69.5t-82.5 157.5l145 35q5 -53 41.5 -87.5t105.5 -34.5q46 0 73 20.5t27 53.5q0 27 -20 45.5
t-56 25.5l-97 18q-90 17 -141.5 73t-51.5 135q0 98 75 163t179 65q63 0 112.5 -17.5t78.5 -46.5t45.5 -60t22.5 -65z" />
    <glyph glyph-name="uni0406" unicode="&#x406;" horiz-adv-x="320" 
d="M240 0h-160v709h160v-709z" />
    <glyph glyph-name="uni0407" unicode="&#x407;" horiz-adv-x="320" 
d="M-16 824q0 34 22 57t55 23q34 0 56.5 -23t22.5 -57q0 -33 -22.5 -55t-56.5 -22q-33 0 -55 22t-22 55zM191 824q0 34 22 57t55 23q34 0 56.5 -23t22.5 -57q0 -33 -22.5 -55t-56.5 -22q-33 0 -55 22t-22 55zM245 0h-160v709h160v-709z" />
    <glyph glyph-name="uni0408" unicode="&#x408;" horiz-adv-x="570" 
d="M19 219v47l150 26v-65q0 -45 24.5 -68.5t61.5 -23.5q38 0 60.5 25.5t22.5 65.5v483h158v-487q0 -99 -68 -168t-172 -69q-106 0 -171.5 64.5t-65.5 169.5z" />
    <glyph glyph-name="uni0409" unicode="&#x409;" horiz-adv-x="1017" 
d="M84 -8q-16 0 -30.5 2t-21.5 4l-6 2v133q6 -1 15 -1q55 0 77.5 67.5t29.5 237.5l10 271h477v-234h109q111 0 180 -66t69 -171q0 -104 -69.5 -170.5t-179.5 -66.5h-267v560h-167l-6 -170q-3 -82 -10 -140.5t-22 -109.5t-39 -82t-61 -48.5t-88 -17.5zM636 137h92
q48 0 77.5 27t29.5 74q0 46 -29.5 73t-77.5 27h-92v-201z" />
    <glyph glyph-name="uni040A" unicode="&#x40a;" horiz-adv-x="1034" 
d="M80 0v709h158v-258h263v258h159v-258h108q109 0 176.5 -62.5t67.5 -162.5q0 -99 -68 -162.5t-176 -63.5h-267v302h-263v-302h-158zM660 137h92q46 0 74 24t28 66q0 40 -28 64t-74 24h-92v-178z" />
    <glyph glyph-name="uni040B" unicode="&#x40b;" horiz-adv-x="814" 
d="M235 0v558h-218v151h595v-151h-219v-160q21 26 62.5 42t82.5 16q108 0 173.5 -64t65.5 -190v-202h-158v185q0 61 -29 91t-80 30q-55 0 -86 -34.5t-31 -96.5v-175h-158z" />
    <glyph glyph-name="uni040C" unicode="&#x40c;" horiz-adv-x="697" 
d="M80 0v709h158v-283h51l210 283h193l-255 -334l261 -375h-199l-198 287h-63v-287h-158zM567 892l-150 -132h-135l104 132h181z" />
    <glyph glyph-name="uni040E" unicode="&#x40e;" horiz-adv-x="650" 
d="M155 -10q-17 0 -34 2.5t-25 5.5l-9 2v133q15 -5 48 -5q79 0 115 80l-242 501h185l151 -329l141 329h176l-239 -503q-27 -56 -48.5 -91t-52.5 -66t-71.5 -45t-94.5 -14zM343 753q-91 0 -132.5 40t-44.5 98h125q1 -23 14.5 -37.5t37.5 -14.5q25 0 38.5 14.5t14.5 37.5h124
q-2 -58 -43.5 -98t-133.5 -40z" />
    <glyph glyph-name="uni040F" unicode="&#x40f;" horiz-adv-x="750" 
d="M295 -150v150h-215v709h158v-560h273v560h159v-709h-216v-150h-159z" />
    <glyph glyph-name="uni0410" unicode="&#x410;" horiz-adv-x="729" 
d="M549 0l-51 144h-274l-51 -144h-166l267 709h183l264 -709h-172zM363 533l-87 -245h172z" />
    <glyph glyph-name="uni0411" unicode="&#x411;" horiz-adv-x="625" 
d="M80 0v709h447v-150h-289v-111h112q109 0 177.5 -62.5t68.5 -161.5q0 -98 -68.5 -161t-177.5 -63h-270zM239 137h95q47 0 75.5 23.5t28.5 64.5q0 40 -28.5 63.5t-75.5 23.5h-95v-175z" />
    <glyph glyph-name="uni0412" unicode="&#x412;" horiz-adv-x="629" 
d="M80 709h265q103 0 162 -53t59 -137q0 -53 -29.5 -95t-74.5 -57q52 -12 89 -56.5t37 -109.5q0 -88 -61.5 -144.5t-160.5 -56.5h-286v709zM234 425h86q42 0 66.5 20.5t24.5 56.5q0 35 -24 55.5t-69 20.5h-84v-153zM234 129h99q46 0 72 22.5t26 60.5q0 37 -26 60t-72 23h-99
v-166z" />
    <glyph glyph-name="uni0413" unicode="&#x413;" horiz-adv-x="543" 
d="M80 0v709h447v-150h-288v-559h-159z" />
    <glyph glyph-name="uni0414" unicode="&#x414;" horiz-adv-x="805" 
d="M28 -150v299h53q32 24 46.5 81.5t19.5 170.5l12 308h518v-560h100v-299h-159v150h-431v-150h-159zM258 149h260v411h-207l-6 -170q-6 -172 -47 -241z" />
    <glyph glyph-name="uni0415" unicode="&#x415;" horiz-adv-x="581" 
d="M530 0h-450v709h449v-149h-291v-135h264v-139h-264v-136h292v-150z" />
    <glyph glyph-name="uni0416" unicode="&#x416;" horiz-adv-x="1038" 
d="M3 0l249 370l-249 339h196l200 -283h41v283h158v-283h41l200 283h193l-246 -335l252 -374h-197l-190 287h-53v-287h-158v287h-49l-194 -287h-194z" />
    <glyph glyph-name="uni0417" unicode="&#x417;" horiz-adv-x="607" 
d="M298 -15q-118 0 -187.5 60.5t-77.5 144.5l152 28q2 -36 33.5 -65.5t82.5 -29.5q47 0 77 23.5t30 65.5q0 38 -28.5 60.5t-79.5 22.5h-84v130h79q42 0 67.5 21t25.5 59q0 35 -24.5 57.5t-71.5 22.5q-45 0 -74 -28.5t-31 -67.5l-152 28q8 84 79 143t185 59q116 0 180 -56
t64 -144q0 -53 -29.5 -95t-74.5 -57q52 -12 89 -56.5t37 -109.5q0 -95 -69 -155.5t-198 -60.5z" />
    <glyph glyph-name="uni0418" unicode="&#x418;" horiz-adv-x="776" 
d="M80 0v709h158v-468l291 468h167v-709h-157v464l-292 -464h-167z" />
    <glyph glyph-name="uni0419" unicode="&#x419;" horiz-adv-x="776" 
d="M80 0v709h158v-468l291 468h167v-709h-157v464l-292 -464h-167zM383 753q-91 0 -132.5 40t-44.5 98h125q1 -23 14.5 -37.5t37.5 -14.5q25 0 38.5 14.5t14.5 37.5h124q-2 -58 -43.5 -98t-133.5 -40z" />
    <glyph glyph-name="uni041A" unicode="&#x41a;" horiz-adv-x="697" 
d="M80 0v709h158v-283h51l210 283h193l-255 -334l261 -375h-199l-198 287h-63v-287h-158z" />
    <glyph glyph-name="uni041B" unicode="&#x41b;" horiz-adv-x="736" 
d="M84 -8q-16 0 -30.5 2t-21.5 4l-6 2v133q6 -1 15 -1q55 0 78 64.5t28 217.5l11 295h498v-709h-159v560h-187l-6 -175q-3 -81 -9.5 -138t-21.5 -108t-39 -81.5t-61.5 -48t-88.5 -17.5z" />
    <glyph glyph-name="uni041C" unicode="&#x41c;" horiz-adv-x="963" 
d="M883 0h-155v470l-185 -470h-128l-185 464v-464h-150v709h206l195 -479l185 479h217v-709z" />
    <glyph glyph-name="uni041D" unicode="&#x41d;" horiz-adv-x="760" 
d="M680 0h-159v282h-283v-282h-158v709h158v-278h283v278h159v-709z" />
    <glyph glyph-name="uni041E" unicode="&#x41e;" horiz-adv-x="815" 
d="M203 355q0 -104 61.5 -159t143.5 -55t143 55t61 159t-61 159.5t-143 55.5t-143.5 -55.5t-61.5 -159.5zM39 354q0 165 107.5 267.5t261.5 102.5t261 -103t107 -267t-107 -266.5t-261 -102.5t-261.5 102.5t-107.5 266.5z" />
    <glyph glyph-name="uni041F" unicode="&#x41f;" horiz-adv-x="750" 
d="M80 0v709h590v-709h-159v560h-273v-560h-158z" />
    <glyph glyph-name="uni0420" unicode="&#x420;" horiz-adv-x="612" 
d="M239 391h92q45 0 73 24.5t28 65.5q0 42 -27.5 66.5t-73.5 24.5h-92v-181zM347 255h-109v-255h-158v709h267q108 0 175.5 -64t67.5 -163q0 -101 -67.5 -164t-175.5 -63z" />
    <glyph glyph-name="uni0421" unicode="&#x421;" horiz-adv-x="765" 
d="M407 -15q-156 0 -262 102.5t-106 265.5q0 162 107 266.5t259 104.5q76 0 137.5 -22.5t99.5 -59.5t61 -76t32 -81l-149 -47q-5 21 -16 41.5t-31 42t-55 35t-79 13.5q-80 0 -141 -56.5t-61 -160.5q0 -96 60 -153t144 -57q82 0 127 41t59 92l151 -43q-10 -41 -32.5 -81
t-61 -79t-102 -63.5t-141.5 -24.5z" />
    <glyph glyph-name="uni0422" unicode="&#x422;" horiz-adv-x="629" 
d="M612 558h-219v-558h-158v558h-218v151h595v-151z" />
    <glyph glyph-name="uni0423" unicode="&#x423;" horiz-adv-x="650" 
d="M155 -10q-17 0 -34 2.5t-25 5.5l-9 2v133q15 -5 48 -5q79 0 115 80l-242 501h185l151 -329l141 329h176l-239 -503q-27 -56 -48.5 -91t-52.5 -66t-71.5 -45t-94.5 -14z" />
    <glyph glyph-name="uni0424" unicode="&#x424;" horiz-adv-x="890" 
d="M365 -16v69q-141 7 -235 86.5t-94 217.5q0 139 94 219t235 87v60h160v-60q141 -7 235 -87t94 -218t-94 -217.5t-235 -86.5v-70h-160zM365 198v318q-72 0 -118.5 -41.5t-46.5 -117.5t46.5 -117.5t118.5 -41.5zM525 199q72 0 118.5 41.5t46.5 117.5t-46.5 117.5
t-118.5 41.5v-318z" />
    <glyph glyph-name="uni0425" unicode="&#x425;" horiz-adv-x="668" 
d="M661 709l-228 -356l230 -353h-192l-140 230l-139 -230h-186l229 355l-229 354h190l140 -230l140 230h185z" />
    <glyph glyph-name="uni0426" unicode="&#x426;" horiz-adv-x="788" 
d="M601 -150v150h-521v709h158v-560h263v560h159v-560h100v-299h-159z" />
    <glyph glyph-name="uni0427" unicode="&#x427;" horiz-adv-x="678" 
d="M440 0v270q-57 -32 -148 -32q-111 0 -183.5 68t-72.5 194v209h158v-187q0 -134 139 -134q69 0 107 35v286h158v-709h-158z" />
    <glyph glyph-name="uni0428" unicode="&#x428;" horiz-adv-x="1001" 
d="M80 0v709h158v-560h183v560h159v-560h182v560h159v-709h-841z" />
    <glyph glyph-name="uni0429" unicode="&#x429;" horiz-adv-x="1049" 
d="M862 -150v150h-782v709h158v-560h183v560h159v-560h182v560h159v-560h100v-299h-159z" />
    <glyph glyph-name="uni042A" unicode="&#x42a;" horiz-adv-x="719" 
d="M179 0v560h-160v149h318v-235h109q111 0 180 -66t69 -171q0 -104 -69.5 -170.5t-179.5 -66.5h-267zM338 137h92q48 0 77.5 27t29.5 74q0 46 -29.5 73t-77.5 27h-92v-201z" />
    <glyph glyph-name="uni042B" unicode="&#x42b;" horiz-adv-x="910" 
d="M80 0v709h158v-235h109q111 0 180 -66t69 -171q0 -104 -69.5 -170.5t-179.5 -66.5h-267zM239 137h92q48 0 77.5 27t29.5 74q0 46 -29.5 73t-77.5 27h-92v-201zM830 0h-160v709h160v-709z" />
    <glyph glyph-name="uni042C" unicode="&#x42c;" horiz-adv-x="620" 
d="M80 0v709h158v-235h109q111 0 180 -66t69 -171q0 -104 -69.5 -170.5t-179.5 -66.5h-267zM239 137h92q48 0 77.5 27t29.5 74q0 46 -29.5 73t-77.5 27h-92v-201z" />
    <glyph glyph-name="uni042D" unicode="&#x42d;" horiz-adv-x="767" 
d="M372 -15q-67 0 -123 16.5t-93.5 42t-66 58.5t-43 64t-21.5 62l152 43q12 -47 59 -87.5t134 -40.5q70 0 121.5 37.5t62.5 106.5h-298v139h298q-13 74 -65 109t-120 35q-85 0 -131 -40.5t-57 -86.5l-149 47q9 41 32.5 79.5t63 74.5t103.5 58t143 22q154 0 253.5 -101
t99.5 -270q0 -167 -99.5 -267.5t-255.5 -100.5z" />
    <glyph glyph-name="uni042E" unicode="&#x42e;" horiz-adv-x="1070" 
d="M673 -15q-132 0 -231 81t-122 216h-82v-282h-158v709h158v-278h83q24 134 122.5 213.5t229.5 79.5q150 0 254 -102.5t104 -267.5q0 -164 -104 -266.5t-254 -102.5zM673 141q78 0 136 55t58 159t-58.5 159.5t-135.5 55.5q-78 0 -136.5 -55.5t-58.5 -159.5t58.5 -159
t136.5 -55z" />
    <glyph glyph-name="uni042F" unicode="&#x42f;" horiz-adv-x="652" 
d="M27 0l162 283q-64 18 -101.5 73.5t-37.5 125.5q0 100 68 163.5t177 63.5h277v-709h-158v255h-66l-144 -255h-177zM311 391h102v181h-102q-47 0 -75 -24.5t-28 -66.5q0 -41 28 -65.5t75 -24.5z" />
    <glyph glyph-name="uni0430" unicode="&#x430;" horiz-adv-x="545" 
d="M37 137q0 63 41 101.5t106 48.5l117 18q36 5 36 34q0 23 -19.5 38.5t-53.5 15.5q-38 0 -60.5 -21.5t-24.5 -51.5l-132 27q5 62 61.5 113.5t156.5 51.5q113 0 166.5 -54t53.5 -138v-243q0 -47 6 -77h-137q-5 20 -5 56q-43 -70 -140 -70q-79 0 -125.5 44.5t-46.5 106.5z
M246 96q39 0 65 23t26 76v22l-94 -15q-56 -9 -56 -55q0 -21 14.5 -36t44.5 -15z" />
    <glyph glyph-name="uni0431" unicode="&#x431;" horiz-adv-x="613" 
d="M314 -15q-126 0 -197 90t-71 230q0 178 72 274.5t258 122.5q140 20 163 28v-127q-33 -14 -163 -31q-102 -14 -144 -55t-52 -120q55 79 170 79q100 0 163 -64.5t63 -166.5q0 -112 -74 -186t-188 -74zM313 121q46 0 79 30.5t33 84.5q0 55 -32.5 85t-79.5 30q-46 0 -79 -30
t-33 -85q0 -53 33 -84t79 -31z" />
    <glyph glyph-name="uni0432" unicode="&#x432;" horiz-adv-x="555" 
d="M64 0v497h285q70 0 111 -37.5t41 -95.5q0 -37 -20.5 -66.5t-50.5 -40.5q35 -8 60.5 -39.5t25.5 -76.5q0 -62 -42 -101.5t-110 -39.5h-300zM216 108h84q61 0 61 48q0 21 -15.5 34.5t-42.5 13.5h-87v-96zM216 301h73q29 0 44 12.5t15 31.5q0 44 -59 44h-73v-88z" />
    <glyph glyph-name="uni0433" unicode="&#x433;" horiz-adv-x="427" 
d="M64 0v497h344v-128h-192v-369h-152z" />
    <glyph glyph-name="uni0434" unicode="&#x434;" horiz-adv-x="633" 
d="M24 -130v258h45q37 26 44 165l11 204h402v-369h80v-258h-132v130h-318v-130h-132zM222 128h152v241h-117l-4 -82q-5 -108 -31 -159z" />
    <glyph glyph-name="uni0435" unicode="&#x435;" horiz-adv-x="570" 
d="M187 308h199q-2 34 -26.5 59t-73.5 25q-44 0 -70 -26t-29 -58zM397 179l127 -36q-19 -69 -79 -113.5t-150 -44.5q-108 0 -183.5 72t-75.5 193q0 116 73.5 189t174.5 73q116 0 182.5 -67.5t66.5 -187.5q0 -38 -3 -47h-346q2 -41 35 -68.5t78 -27.5q77 0 100 65z" />
    <glyph glyph-name="uni0436" unicode="&#x436;" horiz-adv-x="819" 
d="M15 0l158 267l-161 230h184l115 -189h22v189h152v-189h22l115 189h181l-157 -224l161 -273h-186l-111 210h-25v-210h-152v210h-25l-111 -210h-182z" />
    <glyph glyph-name="uni0437" unicode="&#x437;" horiz-adv-x="514" 
d="M256 -15q-90 0 -152 40.5t-76 95.5l130 51q3 -22 29 -40t67 -18q26 0 47.5 10t21.5 33q0 40 -63 40h-66v109h61q58 0 58 38q0 21 -19.5 31.5t-46.5 10.5q-36 0 -59.5 -17.5t-29.5 -42.5l-126 42q17 66 76.5 105t151.5 39q96 0 150.5 -40.5t54.5 -101.5q0 -38 -23 -69
t-68 -44q43 -9 72 -41.5t29 -77.5q0 -67 -57.5 -110t-161.5 -43z" />
    <glyph glyph-name="uni0438" unicode="&#x438;" horiz-adv-x="605" 
d="M64 0v497h152v-269l183 269h142v-497h-152v269l-183 -269h-142z" />
    <glyph glyph-name="uni0439" unicode="&#x439;" horiz-adv-x="605" 
d="M64 0v497h152v-269l183 269h142v-497h-152v269l-183 -269h-142zM302 551q-80 0 -122.5 44t-44.5 112h115q2 -70 52 -70q51 0 53 70h114q-2 -68 -44 -112t-123 -44z" />
    <glyph glyph-name="uni043A" unicode="&#x43a;" horiz-adv-x="565" 
d="M64 0v497h152v-189h23l134 189h181l-175 -224l179 -273h-186l-132 210h-24v-210h-152z" />
    <glyph glyph-name="uni043B" unicode="&#x43b;" horiz-adv-x="582" 
d="M78 -8q-18 0 -46 7v121q5 -3 22 -3q33 0 46 45t16 131l7 204h395v-497h-152v369h-106l-3 -82q-2 -56 -6.5 -96t-16.5 -80t-31 -64.5t-50.5 -39.5t-74.5 -15z" />
    <glyph glyph-name="uni043C" unicode="&#x43c;" horiz-adv-x="777" 
d="M64 0v497h186l136 -315l131 315h196v-497h-152v286l-125 -286h-105l-125 283v-283h-142z" />
    <glyph glyph-name="uni043D" unicode="&#x43d;" horiz-adv-x="595" 
d="M64 0v497h152v-174h163v174h152v-497h-152v195h-163v-195h-152z" />
    <glyph glyph-name="uni043E" unicode="&#x43e;" horiz-adv-x="600" 
d="M300 125q47 0 79.5 32t32.5 92t-32.5 91.5t-79.5 31.5q-46 0 -79 -32t-33 -91t33 -91.5t79 -32.5zM300 512q113 0 188.5 -74t75.5 -189t-75.5 -189.5t-188.5 -74.5q-112 0 -188 75t-76 189t76 188.5t188 74.5z" />
    <glyph glyph-name="uni043F" unicode="&#x43f;" horiz-adv-x="585" 
d="M64 0v497h457v-497h-152v369h-153v-369h-152z" />
    <glyph glyph-name="uni0440" unicode="&#x440;" horiz-adv-x="625" 
d="M216 -190h-152v687h147v-51q17 26 56.5 44.5t89.5 18.5q106 0 168.5 -72.5t62.5 -186.5t-66.5 -187.5t-170.5 -73.5q-94 0 -135 50v-229zM439 249q0 59 -32.5 91t-80.5 32q-47 0 -79.5 -32t-32.5 -91t32.5 -91.5t79.5 -32.5q48 0 80.5 32.5t32.5 91.5z" />
    <glyph glyph-name="uni0441" unicode="&#x441;" horiz-adv-x="567" 
d="M301 372q-49 0 -81.5 -33t-32.5 -91q0 -57 33.5 -90t82.5 -33q41 0 67.5 21.5t35.5 52.5l134 -41q-18 -71 -80.5 -122t-156.5 -51q-112 0 -189.5 74.5t-77.5 188.5q0 115 75.5 189.5t186.5 74.5q97 0 159 -50t80 -123l-136 -41q-9 32 -34 53t-66 21z" />
    <glyph glyph-name="uni0442" unicode="&#x442;" horiz-adv-x="502" 
d="M175 0v369h-155v128h462v-128h-155v-369h-152z" />
    <glyph glyph-name="uni0443" unicode="&#x443;" horiz-adv-x="576" 
d="M264 -191h-160l113 258l-209 430h170l121 -266l110 266h161z" />
    <glyph glyph-name="uni0444" unicode="&#x444;" horiz-adv-x="758" 
d="M305 -190v175q-114 5 -192 78.5t-78 185.5q0 113 77.5 185.5t192.5 77.5v162h148v-162q115 -5 192.5 -77.5t77.5 -185.5q0 -112 -78 -185.5t-192 -78.5v-175h-148zM305 122v254q-51 -4 -84.5 -35.5t-33.5 -91.5q0 -59 33.5 -91t84.5 -36zM453 122q51 4 84.5 36t33.5 91
q0 60 -33.5 91.5t-84.5 35.5v-254z" />
    <glyph glyph-name="uni0445" unicode="&#x445;" horiz-adv-x="551" 
d="M14 0l171 248l-174 249h179l89 -136l87 136h170l-172 -243q167 -238 178 -254h-178l-92 140q-15 -23 -48 -74t-43 -66h-167z" />
    <glyph glyph-name="uni0446" unicode="&#x446;" horiz-adv-x="628" 
d="M469 -130v130h-405v497h152v-369h153v369h152v-369h80v-258h-132z" />
    <glyph glyph-name="uni0447" unicode="&#x447;" horiz-adv-x="562" 
d="M346 0v182q-49 -33 -115 -33q-95 0 -147.5 55t-52.5 139v154h152v-122q0 -38 20.5 -62t59.5 -24q27 0 47.5 8t27.5 16l8 8v176h152v-497h-152z" />
    <glyph glyph-name="uni0448" unicode="&#x448;" horiz-adv-x="810" 
d="M64 0v497h152v-369h113v369h152v-369h113v369h152v-497h-682z" />
    <glyph glyph-name="uni0449" unicode="&#x449;" horiz-adv-x="853" 
d="M694 -130v130h-630v497h152v-369h113v369h152v-369h113v369h152v-369h80v-258h-132z" />
    <glyph glyph-name="uni044A" unicode="&#x44a;" horiz-adv-x="586" 
d="M137 0v369h-118v128h270v-141h75q92 0 145.5 -49t53.5 -129q0 -78 -53.5 -128t-145.5 -50h-227zM289 122h63q27 0 44 15t17 40q0 26 -17 42t-44 16h-63v-113z" />
    <glyph glyph-name="uni044B" unicode="&#x44b;" horiz-adv-x="745" 
d="M64 0v497h152v-141h77q89 0 143 -49.5t54 -128.5t-54 -128.5t-143 -49.5h-229zM216 122h63q27 0 44 15t17 40q0 26 -17 42t-44 16h-63v-113zM529 0v497h152v-497h-152z" />
    <glyph glyph-name="uni044C" unicode="&#x44c;" horiz-adv-x="513" 
d="M64 0v497h152v-141h77q89 0 143 -49.5t54 -128.5t-54 -128.5t-143 -49.5h-229zM216 122h63q27 0 44 15t17 40q0 26 -17 42t-44 16h-63v-113z" />
    <glyph glyph-name="uni044D" unicode="&#x44d;" horiz-adv-x="563" 
d="M265 -15q-94 0 -158 48.5t-80 114.5l131 41q9 -25 39 -44.5t71 -19.5q40 0 69.5 21t32.5 55h-163v102h160q-5 33 -33 51t-64 18q-41 0 -69.5 -19t-36.5 -44l-133 41q18 67 80.5 114.5t158.5 47.5q111 0 184 -71t73 -193q0 -117 -75.5 -190t-186.5 -73z" />
    <glyph glyph-name="uni044E" unicode="&#x44e;" horiz-adv-x="819" 
d="M525 -15q-96 0 -166.5 58t-87.5 152h-55v-195h-152v497h152v-174h59q23 86 91 137.5t159 51.5q110 0 184 -74t74 -189t-74 -189.5t-184 -74.5zM525 125q44 0 75 32t31 92t-30.5 91.5t-75.5 31.5q-44 0 -75.5 -32t-31.5 -91t31.5 -91.5t75.5 -32.5z" />
    <glyph glyph-name="uni044F" unicode="&#x44f;" horiz-adv-x="549" 
d="M24 0l127 178q-47 17 -75 55.5t-28 92.5q0 76 55 123.5t144 47.5h238v-497h-152v157h-28l-105 -157h-176zM256 266h77v107h-77q-25 0 -40.5 -14.5t-15.5 -39.5q0 -24 15.5 -38.5t40.5 -14.5z" />
    <glyph glyph-name="uni0451" unicode="&#x451;" horiz-adv-x="570" 
d="M102 632q0 32 22 54.5t54 22.5t54.5 -22.5t22.5 -54.5t-22.5 -54t-54.5 -22t-54 22t-22 54zM323 632q0 32 22 54.5t54 22.5t54.5 -22.5t22.5 -54.5t-22.5 -54t-54.5 -22t-54 22t-22 54zM187 308h199q-2 34 -26.5 59t-73.5 25q-44 0 -70 -26t-29 -58zM397 179l127 -36
q-19 -69 -79 -113.5t-150 -44.5q-108 0 -183.5 72t-75.5 193q0 116 73.5 189t174.5 73q116 0 182.5 -67.5t66.5 -187.5q0 -38 -3 -47h-346q2 -41 35 -68.5t78 -27.5q77 0 100 65z" />
    <glyph glyph-name="uni0452" unicode="&#x452;" horiz-adv-x="590" 
d="M367 -205q-51 0 -84 14v126q21 -6 45 -6q51 0 51 51v306q0 39 -20.5 62.5t-60.5 23.5q-35 0 -57.5 -22.5t-24.5 -57.5v-292h-152v549h-77v105h77v70h152v-70h107v-105h-107v-84q45 45 127 45q93 0 140.5 -55.5t47.5 -142.5v-348q0 -76 -44.5 -122.5t-119.5 -46.5z" />
    <glyph glyph-name="uni0453" unicode="&#x453;" horiz-adv-x="426" 
d="M64 0v497h344v-128h-192v-369h-152zM417 707l-141 -151h-121l92 151h170z" />
    <glyph glyph-name="uni0454" unicode="&#x454;" horiz-adv-x="563" 
d="M303 -15q-116 0 -191.5 73.5t-75.5 189.5t75.5 190t186.5 74q95 0 155 -46.5t79 -115.5l-138 -41q-20 63 -98 63q-37 0 -66.5 -18t-37.5 -51h157v-102h-160q4 -34 34.5 -55t72.5 -21q81 0 104 64l136 -41q-18 -67 -79.5 -115t-153.5 -48z" />
    <glyph glyph-name="uni0455" unicode="&#x455;" horiz-adv-x="480" 
d="M34 141l129 23q2 -28 21.5 -47.5t56.5 -19.5q28 0 43 12.5t15 30.5q0 30 -49 41l-57 13q-76 16 -112 56.5t-36 96.5q0 69 54.5 117t136.5 48q97 0 145.5 -46.5t53.5 -101.5l-126 -23q-3 27 -20.5 44t-50.5 17q-22 0 -38 -12t-16 -31q0 -30 39 -37l66 -13q75 -15 114 -57
t39 -99q0 -69 -52 -118.5t-146 -49.5q-55 0 -97.5 16t-65 41.5t-34 50.5t-13.5 48z" />
    <glyph glyph-name="uni0456" unicode="&#x456;" horiz-adv-x="280" 
d="M216 0h-152v497h152v-497zM51 649q0 37 26 63t62 26q37 0 63.5 -26t26.5 -63t-26.5 -63t-63.5 -26q-36 0 -62 26t-26 63z" />
    <glyph glyph-name="uni0457" unicode="&#x457;" horiz-adv-x="280" 
d="M47 563q-33 0 -55.5 24.5t-22.5 61.5t22.5 62t55.5 25t56 -25t23 -62t-23 -61.5t-56 -24.5zM64 0v497h152v-497h-152zM233 563q-33 0 -55.5 24.5t-22.5 61.5t22.5 62t55.5 25t56 -25t23 -62t-23 -61.5t-56 -24.5z" />
    <glyph glyph-name="uni0458" unicode="&#x458;" horiz-adv-x="280" 
d="M64 -20v517h152v-533q0 -76 -44.5 -122.5t-119.5 -46.5q-51 0 -84 14v126q21 -6 45 -6q51 0 51 51zM51 649q0 37 26 63t62 26q38 0 64 -26t26 -63t-26.5 -63t-63.5 -26q-36 0 -62 26t-26 63z" />
    <glyph glyph-name="uni0459" unicode="&#x459;" horiz-adv-x="811" 
d="M74 -8q-11 0 -22.5 2t-17.5 4l-6 1v121q6 -3 22 -3q37 0 52 52.5t19 167.5l6 160h387v-141h77q89 0 143 -49.5t54 -128.5t-54 -128.5t-143 -49.5h-229v369h-97l-1 -38q-3 -70 -8 -117.5t-17.5 -92.5t-33 -71.5t-53 -42t-78.5 -15.5zM514 122h63q27 0 44 15t17 40
q0 26 -17 42t-44 16h-63v-113z" />
    <glyph glyph-name="uni045A" unicode="&#x45a;" horiz-adv-x="823" 
d="M64 0v497h152v-160h163v160h152v-160h77q88 0 141 -46.5t53 -121.5t-53 -122t-141 -47h-229v209h-163v-209h-152zM531 121h67q24 0 38 13t14 35q0 21 -14.5 34t-37.5 13h-67v-95z" />
    <glyph glyph-name="uni045B" unicode="&#x45b;" horiz-adv-x="590" 
d="M216 292v-292h-152v549h-77v105h77v70h152v-70h107v-105h-107v-84q45 45 127 45q93 0 140.5 -55.5t47.5 -142.5v-312h-152v286q0 39 -20.5 62.5t-60.5 23.5q-35 0 -57.5 -22.5t-24.5 -57.5z" />
    <glyph glyph-name="uni045C" unicode="&#x45c;" horiz-adv-x="565" 
d="M64 0v497h152v-189h23l134 189h181l-175 -224l179 -273h-186l-132 210h-24v-210h-152zM484 707l-141 -151h-121l92 151h170z" />
    <glyph glyph-name="uni045E" unicode="&#x45e;" horiz-adv-x="576" 
d="M264 -191h-160l113 258l-209 430h170l121 -266l110 266h161zM298 551q-80 0 -122.5 44t-44.5 112h115q2 -70 52 -70q51 0 53 70h114q-2 -68 -44 -112t-123 -44z" />
    <glyph glyph-name="uni045F" unicode="&#x45f;" horiz-adv-x="585" 
d="M226 -130v130h-162v497h152v-369h153v369h152v-497h-163v-130h-132z" />
    <glyph glyph-name="uni0490" unicode="&#x490;" horiz-adv-x="543" 
d="M80 0v709h288v150h159v-300h-288v-559h-159z" />
    <glyph glyph-name="uni0491" unicode="&#x491;" horiz-adv-x="426" 
d="M64 0v497h212v130h132v-258h-192v-369h-152z" />
    <glyph glyph-name="uni0492" unicode="&#x492;" horiz-adv-x="575" 
d="M111 0v308h-95v113h95v288h447v-150h-288v-138h153v-113h-153v-308h-159z" />
    <glyph glyph-name="uni0493" unicode="&#x493;" horiz-adv-x="445" 
d="M82 0v174h-60v105h60v218h344v-128h-192v-90h108v-105h-108v-174h-152z" />
    <glyph glyph-name="uni049A" unicode="&#x49a;" horiz-adv-x="719" 
d="M537 -150v150h-38l-198 287h-63v-287h-158v709h158v-283h51l210 283h193l-255 -334l156 -226h103v-299h-159z" />
    <glyph glyph-name="uni049B" unicode="&#x49b;" horiz-adv-x="585" 
d="M426 -130v130h-54l-132 210h-24v-210h-152v497h152v-189h23l134 189h181l-175 -224l95 -145h84v-258h-132z" />
    <glyph glyph-name="uni04A2" unicode="&#x4a2;" horiz-adv-x="808" 
d="M621 -150v150h-100v282h-283v-282h-158v709h158v-278h283v278h159v-560h100v-299h-159z" />
    <glyph glyph-name="uni04A3" unicode="&#x4a3;" horiz-adv-x="638" 
d="M479 -130v130h-100v195h-163v-195h-152v497h152v-174h163v174h152v-369h80v-258h-132z" />
    <glyph glyph-name="uni04AE" unicode="&#x4ae;" horiz-adv-x="665" 
d="M253 296l-246 413h185l145 -263l147 263h176l-249 -413v-296h-158v296z" />
    <glyph glyph-name="uni04AF" unicode="&#x4af;" horiz-adv-x="568" 
d="M214 -250v250l-204 497h165l115 -309l106 309h160l-189 -497v-250h-153z" />
    <glyph glyph-name="uni04B0" unicode="&#x4b0;" horiz-adv-x="672" 
d="M257 0v228h-140v111h114l-220 370h185l145 -263l147 263h176l-223 -370h114v-111h-140v-228h-158z" />
    <glyph glyph-name="uni04B1" unicode="&#x4b1;" horiz-adv-x="568" 
d="M214 -250v145h-130v105h130l-204 497h165l115 -309l106 309h160l-189 -497h130v-105h-130v-145h-153z" />
    <glyph glyph-name="uni04B2" unicode="&#x4b2;" horiz-adv-x="690" 
d="M504 -150v150h-33l-140 230l-139 -230h-186l229 355l-229 354h190l140 -230l140 230h185l-228 -356l133 -204h97v-299h-159z" />
    <glyph glyph-name="uni04B3" unicode="&#x4b3;" horiz-adv-x="571" 
d="M410 -130v130h-46l-92 140q-15 -23 -48 -74t-43 -66h-167l171 248l-174 249h179l89 -136l87 136h170l-172 -243q28 -40 88 -126h90v-258h-132z" />
    <glyph glyph-name="uni04BA" unicode="&#x4ba;" horiz-adv-x="678" 
d="M238 709v-270q57 32 148 32q111 0 183.5 -68t72.5 -194v-209h-158v187q0 134 -139 134q-69 0 -107 -35v-286h-158v709h158z" />
    <glyph glyph-name="uni04BB" unicode="&#x4bb;" horiz-adv-x="590" 
d="M216 292v-292h-152v724h152v-259q45 45 127 45q93 0 140.5 -55.5t47.5 -142.5v-312h-152v286q0 39 -20.5 62.5t-60.5 23.5q-35 0 -57.5 -22.5t-24.5 -57.5z" />
    <glyph glyph-name="uni04D8" unicode="&#x4d8;" horiz-adv-x="783" 
d="M385 -15q-156 0 -257.5 104t-99.5 293h554q0 91 -60 142.5t-131 51.5q-85 0 -133.5 -40t-59.5 -84l-152 53q13 40 37.5 76.5t65 69.5t103.5 53t141 20q70 0 132.5 -23.5t111.5 -68t77.5 -116t28.5 -160.5q0 -156 -99 -263.5t-259 -107.5zM390 129q63 0 111 32.5t67 93.5
h-362q7 -49 53 -87.5t131 -38.5z" />
    <glyph glyph-name="uni04D9" unicode="&#x4d9;" horiz-adv-x="570" 
d="M285 -15q-112 0 -180.5 70.5t-68.5 184.5q0 38 3 47h348q-2 45 -32.5 70.5t-75.5 25.5q-40 0 -68 -17.5t-39 -47.5l-127 36q19 68 82 113t154 45q112 0 182 -71t70 -194q0 -116 -73.5 -189t-174.5 -73zM283 107q44 0 71 26t30 58h-203q2 -32 29.5 -58t72.5 -26z" />
    <glyph glyph-name="uni04E8" unicode="&#x4e8;" horiz-adv-x="815" 
d="M408 -15q-154 0 -261.5 102.5t-107.5 266.5q0 165 107.5 267.5t261.5 102.5t261 -103t107 -267t-107 -266.5t-261 -102.5zM408 141q69 0 126.5 39t70.5 112h-395q13 -73 71 -112t127 -39zM211 422h393q-14 71 -71 109.5t-125 38.5t-125.5 -38.5t-71.5 -109.5z" />
    <glyph glyph-name="uni04E9" unicode="&#x4e9;" horiz-adv-x="600" 
d="M300 -15q-112 0 -188 75t-76 189t76 188.5t188 74.5q113 0 188.5 -74t75.5 -189t-75.5 -189.5t-188.5 -74.5zM300 121q39 0 70 21t39 59h-218q8 -38 39 -59t70 -21zM191 299h218q-9 37 -39.5 57t-69.5 20q-38 0 -69 -20t-40 -57z" />
    <glyph glyph-name="Wgrave" unicode="&#x1e80;" horiz-adv-x="1052" 
d="M470 759l-150 132h181l104 -132h-135zM758 254l115 455h162l-193 -709h-163l-151 470l-152 -470h-166l-193 709h168l117 -454l147 454h162z" />
    <glyph glyph-name="wgrave" unicode="&#x1e81;" horiz-adv-x="862" 
d="M355 497h161l97 -295l83 295h149l-154 -497h-151l-108 321l-106 -321h-154l-156 497h158l83 -294zM374 556l-142 151h173l93 -151h-124z" />
    <glyph glyph-name="Wacute" unicode="&#x1e82;" horiz-adv-x="1052" 
d="M742 891l-150 -132h-135l104 132h181zM758 254l115 455h162l-193 -709h-163l-151 470l-152 -470h-166l-193 709h168l117 -454l147 454h162z" />
    <glyph glyph-name="wacute" unicode="&#x1e83;" horiz-adv-x="862" 
d="M629 707l-141 -151h-121l92 151h170zM355 497h161l97 -295l83 295h149l-154 -497h-151l-108 321l-106 -321h-154l-156 497h158l83 -294z" />
    <glyph glyph-name="Wdieresis" unicode="&#x1e84;" horiz-adv-x="1052" 
d="M300 824q0 34 22.5 57t55.5 23q34 0 57 -23t23 -57q0 -33 -23 -55t-57 -22q-33 0 -55.5 22t-22.5 55zM599 824q0 34 22 57t56 23q33 0 56 -23t23 -57q0 -33 -23 -55t-56 -22q-34 0 -56 22t-22 55zM758 254l115 455h162l-193 -709h-163l-151 470l-152 -470h-166l-193 709
h168l117 -454l147 454h162z" />
    <glyph glyph-name="wdieresis" unicode="&#x1e85;" horiz-adv-x="862" 
d="M355 497h161l97 -295l83 295h149l-154 -497h-151l-108 321l-106 -321h-154l-156 497h158l83 -294zM245 632q0 32 22 54.5t54 22.5t54.5 -22.5t22.5 -54.5t-22.5 -54t-54.5 -22t-54 22t-22 54zM466 632q0 32 22 54.5t54 22.5t54.5 -22.5t22.5 -54.5t-22.5 -54t-54.5 -22
t-54 22t-22 54z" />
    <glyph glyph-name="uni1E8A" unicode="&#x1e8a;" horiz-adv-x="668" 
d="M661 709l-228 -356l230 -353h-192l-140 230l-139 -230h-186l229 355l-229 354h190l140 -230l140 230h185zM244 841q0 37 25.5 62t63.5 25q37 0 63 -25t26 -62t-26 -62t-63 -25q-38 0 -63.5 25t-25.5 62z" />
    <glyph glyph-name="uni1E8B" unicode="&#x1e8b;" horiz-adv-x="551" 
d="M14 0l171 248l-174 249h179l89 -136l87 136h170l-172 -243q167 -238 178 -254h-178l-92 140q-15 -23 -48 -74t-43 -66h-167zM190 633q0 37 25.5 62t63.5 25q37 0 63 -25t26 -62q0 -36 -26 -61t-63 -25q-38 0 -63.5 24.5t-25.5 61.5z" />
    <glyph glyph-name="Ygrave" unicode="&#x1ef2;" horiz-adv-x="665" 
d="M253 296l-246 413h185l145 -263l147 263h176l-249 -413v-296h-158v296zM285 759l-150 132h181l104 -132h-135z" />
    <glyph glyph-name="ygrave" unicode="&#x1ef3;" horiz-adv-x="576" 
d="M264 -191h-160l113 258l-209 430h170l121 -266l110 266h161zM241 556l-142 151h173l93 -151h-124z" />
    <glyph glyph-name="uni2007" unicode="&#x2007;" horiz-adv-x="639" 
 />
    <glyph glyph-name="uni2008" unicode="&#x2008;" horiz-adv-x="289" 
 />
    <glyph glyph-name="uni200B" unicode="&#x200b;" horiz-adv-x="0" 
 />
    <glyph glyph-name="endash" unicode="&#x2013;" horiz-adv-x="637" 
d="M577 236h-517v132h517v-132z" />
    <glyph glyph-name="emdash" unicode="&#x2014;" horiz-adv-x="1053" 
d="M993 236h-933v132h933v-132z" />
    <glyph glyph-name="quoteleft" unicode="&#x2018;" horiz-adv-x="263" 
d="M219 499q0 -32 -24.5 -54.5t-61.5 -22.5q-43 0 -68 30t-25 71q0 93 51 140t113 52v-68q-30 -3 -56.5 -24.5t-28.5 -53.5q10 5 22 5q37 0 57.5 -20.5t20.5 -54.5z" />
    <glyph glyph-name="quoteright" unicode="&#x2019;" horiz-adv-x="264" 
d="M49 637q0 32 24 54.5t62 22.5q43 0 68 -30t25 -71q0 -93 -51 -140t-113 -52v68q30 3 56 23.5t29 52.5q-4 -4 -22 -4q-36 0 -57 21.5t-21 54.5z" />
    <glyph glyph-name="quotesinglbase" unicode="&#x201a;" horiz-adv-x="269" 
d="M45 73q0 32 24 54.5t62 22.5q43 0 68 -30t25 -71q0 -49 -16 -87.5t-41.5 -59.5t-52.5 -32t-54 -13v67q30 3 56 23.5t29 53.5q-10 -5 -22 -5q-37 0 -57.5 21.5t-20.5 55.5z" />
    <glyph glyph-name="quotedblleft" unicode="&#x201c;" horiz-adv-x="473" 
d="M219 499q0 -32 -24.5 -54.5t-61.5 -22.5q-43 0 -68 30t-25 71q0 93 51 140t113 52v-68q-30 -3 -56.5 -24t-28.5 -53q10 5 22 5q37 0 57.5 -21t20.5 -55zM429 499q0 -32 -24.5 -54.5t-61.5 -22.5q-43 0 -67.5 30t-24.5 71q0 93 50.5 140t112.5 52v-68q-30 -3 -56.5 -24
t-28.5 -53q10 5 22 5q37 0 57.5 -21t20.5 -55z" />
    <glyph glyph-name="quotedblright" unicode="&#x201d;" horiz-adv-x="471" 
d="M49 637q0 32 24 54.5t62 22.5q42 0 67.5 -30t25.5 -71q0 -93 -51 -139.5t-113 -51.5v67q30 3 56 23.5t29 53.5q-10 -5 -22 -5q-36 0 -57 21.5t-21 54.5zM257 637q0 32 24 54.5t62 22.5q42 0 67 -30t25 -71q0 -93 -50.5 -139.5t-112.5 -51.5v67q30 3 56 23.5t29 53.5
q-10 -5 -22 -5q-36 0 -57 21.5t-21 54.5z" />
    <glyph glyph-name="quotedblbase" unicode="&#x201e;" horiz-adv-x="476" 
d="M45 73q0 32 24 54.5t62 22.5q43 0 68 -30t25 -71q0 -49 -16 -87.5t-41.5 -59.5t-52.5 -32t-54 -13v67q30 3 56 23.5t29 53.5q-10 -5 -22 -5q-37 0 -57.5 21.5t-20.5 55.5zM252 73q0 32 24 54.5t62 22.5q43 0 68 -30t25 -71q0 -49 -16 -87.5t-41.5 -59.5t-52.5 -32
t-54 -13v67q30 3 56 23.5t29 53.5q-10 -5 -22 -5q-37 0 -57.5 21.5t-20.5 55.5z" />
    <glyph glyph-name="dagger" unicode="&#x2020;" horiz-adv-x="433" 
d="M279 163h-126v293h-120v114h120v139h126v-139h121v-114h-121v-293z" />
    <glyph glyph-name="daggerdbl" unicode="&#x2021;" horiz-adv-x="1014" 
d="M443 242q0 15 -10 26t-25 11t-25 -11t-10 -26q0 -14 10 -24.5t25 -10.5t25 10.5t10 24.5zM485 502v-482q0 -8 -6 -14t-14 -6q-6 0 -12 4q-83 71 -196.5 183t-146.5 160q-42 61 -42 133q0 87 65 147.5t156 60.5q84 0 140 -53.5t56 -132.5zM634 271q37 0 63 -25.5t26 -62.5
t-26 -63t-63 -26t-63 26t-26 63t26 62.5t63 25.5zM545 71q13 0 22 -9t9 -22t-9 -22t-22 -9q-12 0 -21 9t-9 22t9 22t21 9zM803 486q49 0 83 -34t34 -83t-34 -83.5t-83 -34.5t-83.5 34.5t-34.5 83.5t34.5 83t83.5 34zM885 632q25 0 43 -18.5t18 -44.5q0 -25 -18 -43t-43 -18
q-26 0 -44.5 18t-18.5 43q0 26 18.5 44.5t44.5 18.5zM648 483q-47 0 -79.5 33t-32.5 80t33 80t79 33t79.5 -33.5t33.5 -79.5q0 -47 -33 -80t-80 -33zM653 384q0 -28 -20 -48t-48 -20q-27 0 -46.5 20t-19.5 48q0 27 19.5 46.5t46.5 19.5q28 0 48 -19.5t20 -46.5z" />
    <glyph glyph-name="bullet" unicode="&#x2022;" horiz-adv-x="542" 
d="M62 303q0 87 61.5 148.5t147.5 61.5t147.5 -61.5t61.5 -148.5q0 -85 -61.5 -146.5t-147.5 -61.5t-147.5 61.5t-61.5 146.5z" />
    <glyph glyph-name="ellipsis" unicode="&#x2026;" horiz-adv-x="866" 
d="M823 75q0 -36 -26 -62t-63 -26q-36 0 -62 26.5t-26 61.5q0 37 26 63.5t62 26.5q37 0 63 -26t26 -64zM521 75q0 -36 -26 -62t-63 -26q-36 0 -62 26t-26 62q0 38 25.5 64t62.5 26t63 -26t26 -64zM220 75q0 -35 -26 -61.5t-63 -26.5q-36 0 -62 26t-26 62q0 38 25.5 64
t62.5 26t63 -26.5t26 -63.5z" />
    <glyph glyph-name="perthousand" unicode="&#x2030;" horiz-adv-x="1095" 
d="M134 494q0 -29 17 -47t44 -18q26 0 43 18.5t17 46.5q0 29 -17 47t-43 18q-27 0 -44 -18t-17 -47zM26 494q0 70 49.5 118.5t119.5 48.5t119.5 -48.5t49.5 -118.5t-49.5 -117.5t-120.5 -47.5q-70 0 -119 48t-49 117zM589 155q0 -29 18 -47.5t45 -18.5t44.5 18.5t17.5 47.5
q0 28 -17.5 46t-44.5 18t-45 -18t-18 -46zM261 0h-128l454 649h129zM836 155q0 -29 18 -47.5t45 -18.5t44.5 18.5t17.5 47.5q0 28 -17.5 46t-44.5 18t-45 -18t-18 -46zM481 155q0 69 50.5 117.5t120.5 48.5q76 0 123 -57q47 57 124 57q70 0 120.5 -48.5t50.5 -117.5
q0 -71 -50.5 -118.5t-121.5 -47.5q-76 0 -123 55q-46 -55 -124 -55q-70 0 -120 48.5t-50 117.5z" />
    <glyph glyph-name="guilsinglleft" unicode="&#x2039;" horiz-adv-x="344" 
d="M308 102h-142l-138 195l140 200h141l-139 -201z" />
    <glyph glyph-name="guilsinglright" unicode="&#x203a;" horiz-adv-x="344" 
d="M178 102h-143l139 194l-139 201h142l139 -200z" />
    <glyph glyph-name="uni2042" unicode="&#x2042;" horiz-adv-x="827" 
d="M461 709v-105l98 32l32 -94l-98 -33l60 -83l-81 -59l-62 84l-62 -84l-80 59l60 83l-99 33l32 94l97 -32v105h103zM260 327v-105l98 32l32 -94l-98 -33l60 -83l-81 -59l-62 84l-62 -84l-80 59l60 83l-99 33l32 94l97 -32v105h103zM670 327v-105l98 32l32 -94l-98 -33
l60 -83l-81 -59l-62 84l-62 -84l-80 59l60 83l-99 33l32 94l97 -32v105h103z" />
    <glyph glyph-name="fraction" unicode="&#x2044;" horiz-adv-x="200" 
d="M-69 0h-129l453 649h130z" />
    <glyph glyph-name="uni2051" unicode="&#x2051;" horiz-adv-x="446" 
d="M274 709v-105l98 32l32 -94l-98 -33l60 -83l-81 -59l-62 84l-62 -84l-80 59l60 83l-99 33l32 94l97 -32v105h103zM274 331v-105l98 32l32 -94l-98 -33l60 -83l-81 -59l-62 84l-62 -84l-80 59l60 83l-99 33l32 94l97 -32v105h103z" />
    <glyph glyph-name="uni2070" unicode="&#x2070;" horiz-adv-x="402" 
d="M145 525q0 -100 56 -100t56 100t-56 100t-56 -100zM29 525q0 81 36 130q46 63 136 63q91 0 137 -63q36 -49 36 -130t-36 -130q-48 -63 -137 -63t-136 64q-36 48 -36 129z" />
    <glyph glyph-name="uni2074" unicode="&#x2074;" horiz-adv-x="391" 
d="M23 411v112l164 186h121v-213h59v-85h-59v-71h-111v71h-174zM197 496v102l-91 -102h91z" />
    <glyph glyph-name="uni2075" unicode="&#x2075;" horiz-adv-x="360" 
d="M22 454l100 18q1 -20 17 -32.5t38 -12.5q21 0 33.5 11t12.5 29q0 46 -50 46q-29 0 -47 -20l-92 26l44 190h231v-90h-165l-12 -52q26 20 71 20q60 0 95 -31.5t35 -87.5q0 -57 -41.5 -95.5t-114.5 -38.5q-63 0 -106.5 34.5t-48.5 85.5z" />
    <glyph glyph-name="uni2076" unicode="&#x2076;" horiz-adv-x="381" 
d="M341 701l-19 -88q-31 11 -67 11q-90 0 -114 -71q33 28 82 28q57 0 93.5 -30t36.5 -86q0 -60 -44.5 -97.5t-116.5 -37.5q-71 0 -117.5 46.5t-46.5 123.5q0 99 63 157t158 58q44 0 92 -14zM146 461q0 -18 13 -30t33 -12t33.5 12t13.5 30q0 19 -13.5 31.5t-33.5 12.5
t-33 -12.5t-13 -31.5z" />
    <glyph glyph-name="uni2077" unicode="&#x2077;" horiz-adv-x="348" 
d="M332 709v-92q-120 -102 -136 -277h-120q3 49 17 95.5t31.5 77.5t34.5 55.5t29 35.5l11 12h-179v93h312z" />
    <glyph glyph-name="uni2078" unicode="&#x2078;" horiz-adv-x="378" 
d="M189 563q19 1 29.5 11t10.5 23q0 12 -10.5 22t-29.5 10t-29.5 -10t-10.5 -22q0 -13 10.5 -23t29.5 -11zM189 418q25 0 37 11.5t12 27.5q0 14 -12.5 25t-36.5 11t-36.5 -11t-12.5 -25q0 -16 12 -27.5t37 -11.5zM189 332q-75 0 -118 30t-43 80q0 32 21.5 56t54.5 32
q-31 9 -48 32t-17 51q0 45 39.5 74.5t110.5 29.5q72 0 111 -29.5t39 -74.5q0 -28 -17 -51t-48 -32q32 -9 54 -32t22 -52q0 -52 -42 -83t-119 -31z" />
    <glyph glyph-name="uni2079" unicode="&#x2079;" horiz-adv-x="378" 
d="M45 345l17 88q25 -11 62 -11q99 0 118 72q-33 -28 -84 -28q-53 0 -92.5 31t-39.5 85q0 60 43.5 98t117.5 38q71 0 117 -47.5t46 -123.5q0 -101 -60.5 -159t-153.5 -58q-41 0 -91 15zM230 586q0 18 -13 30t-33 12t-33 -12t-13 -30q0 -19 13 -31t33 -12t33 12t13 31z" />
    <glyph glyph-name="uni2080" unicode="&#x2080;" horiz-adv-x="403" 
d="M145 110q0 -100 56 -100t56 100t-56 100t-56 -100zM29 110q0 81 36 130q46 63 136 63q91 0 137 -63q36 -49 36 -130t-36 -130q-48 -63 -137 -63t-136 64q-36 48 -36 129z" />
    <glyph glyph-name="uni2081" unicode="&#x2081;" horiz-adv-x="285" 
d="M229 -120h-115v212h-94v74q48 0 75 25t33 57h101v-368z" />
    <glyph glyph-name="uni2082" unicode="&#x2082;" horiz-adv-x="366" 
d="M137 103h-100q-4 16 -4 27q0 54 39 91t110 37q68 0 108 -36t40 -89q0 -65 -84 -114l-67 -39q-5 -3 -5 -5h159v-95h-302v13q0 111 91 162l60 34q36 20 36 45q0 12 -9.5 23t-29.5 11q-22 0 -33.5 -13.5t-11.5 -34.5q0 -11 3 -17z" />
    <glyph glyph-name="uni2083" unicode="&#x2083;" horiz-adv-x="372" 
d="M25 -7l103 18q1 -19 15 -32.5t37 -13.5q21 0 34 10.5t13 26.5q0 20 -13 30t-33 10q-15 0 -29 -6l-35 75l79 47h-158v92h291v-93l-85 -51q47 -7 72.5 -35.5t25.5 -71.5q0 -52 -44.5 -89.5t-117.5 -37.5q-66 0 -108.5 36t-46.5 85z" />
    <glyph glyph-name="uni2084" unicode="&#x2084;" horiz-adv-x="391" 
d="M23 -49v112l164 186h121v-213h59v-85h-59v-71h-111v71h-174zM197 36v102l-91 -102h91z" />
    <glyph glyph-name="uni2085" unicode="&#x2085;" horiz-adv-x="362" 
d="M23 -6l100 18q1 -20 17 -32.5t38 -12.5q21 0 33.5 11t12.5 29q0 46 -50 46q-29 0 -47 -20l-92 26l44 190h231v-90h-165l-12 -52q26 20 71 20q60 0 95 -31.5t35 -87.5q0 -57 -41.5 -95.5t-114.5 -38.5q-63 0 -106.5 34.5t-48.5 85.5z" />
    <glyph glyph-name="uni2086" unicode="&#x2086;" horiz-adv-x="381" 
d="M341 243l-19 -88q-31 11 -67 11q-90 0 -114 -71q33 28 82 28q57 0 93.5 -30t36.5 -86q0 -60 -44.5 -97.5t-116.5 -37.5q-71 0 -117.5 46.5t-46.5 123.5q0 99 63 157t158 58q44 0 92 -14zM146 3q0 -18 13 -30t33 -12t33.5 12t13.5 30q0 19 -13.5 31.5t-33.5 12.5
t-33 -12.5t-13 -31.5z" />
    <glyph glyph-name="uni2087" unicode="&#x2087;" horiz-adv-x="348" 
d="M332 248v-92q-120 -102 -136 -277h-120q3 49 17 95.5t31.5 78t34.5 55.5t29 36l11 11h-179v93h312z" />
    <glyph glyph-name="uni2088" unicode="&#x2088;" horiz-adv-x="380" 
d="M190 103q19 1 29.5 11t10.5 23q0 12 -10.5 22t-29.5 10t-29.5 -10t-10.5 -22q0 -13 10.5 -23t29.5 -11zM190 -42q25 0 37 11.5t12 27.5q0 14 -12.5 25t-36.5 11t-36.5 -11t-12.5 -25q0 -16 12 -27.5t37 -11.5zM190 -128q-75 0 -118 30t-43 80q0 32 21.5 56t54.5 32
q-31 9 -48 32t-17 51q0 45 39.5 74.5t110.5 29.5q72 0 111 -29.5t39 -74.5q0 -28 -17 -51t-48 -32q32 -9 54 -32t22 -52q0 -52 -42 -83t-119 -31z" />
    <glyph glyph-name="uni2089" unicode="&#x2089;" horiz-adv-x="378" 
d="M45 -113l17 88q25 -11 62 -11q99 0 118 72q-33 -28 -84 -28q-53 0 -92.5 31t-39.5 85q0 60 43.5 98t117.5 38q71 0 117 -47.5t46 -123.5q0 -101 -60.5 -159t-153.5 -58q-41 0 -91 15zM230 128q0 18 -13 30t-33 12t-33 -12t-13 -30q0 -19 13 -31t33 -12t33 12t13 31z" />
    <glyph glyph-name="Euro" unicode="&#x20ac;" horiz-adv-x="667" 
d="M572 161l69 -113q-79 -63 -191 -63t-197 55t-122 153h-91v102h70q-1 10 -1 28q0 16 1 26h-70v101h91q37 98 123 156t194 58q100 0 172 -45l-56 -120q-42 29 -116 29q-100 0 -150 -78h244l-47 -101h-227q-1 -10 -1 -26q0 -18 1 -28h206l-45 -102h-125q50 -69 146 -69
q75 0 122 37z" />
    <glyph glyph-name="uni20B4" unicode="&#x20b4;" horiz-adv-x="568" 
d="M282 -15q-94 0 -159 49.5t-65 125.5q0 40 11 62h-45v88h520v-88h-330q-15 -15 -15 -40q0 -32 26.5 -51t67.5 -19q84 0 106 81l133 -30q-5 -29 -21 -58t-44.5 -57t-76.5 -45.5t-108 -17.5zM24 361v88h333q6 10 6 28q0 28 -22.5 45.5t-53.5 17.5q-45 0 -66.5 -21t-25.5 -46
l-131 35q12 62 69 110t161 48q84 0 147 -46t63 -128q0 -19 -8 -43h48v-88h-520z" />
    <glyph glyph-name="uni20B8" unicode="&#x20b8;" horiz-adv-x="589" 
d="M215 0v392h-198v102h555v-102h-199v-392h-158zM17 548v101h555v-101h-555z" />
    <glyph glyph-name="uni20B9" unicode="&#x20b9;" horiz-adv-x="626" 
d="M319 0l-213 247l53 94h62q45 0 74.5 25.5t29.5 65.5q0 41 -26 67t-70 26h-201l72 124h498l-63 -112h-363v101h65q121 0 183.5 -56t62.5 -150q0 -87 -52 -138.5t-143 -65.5h-97v48h87l242 -276h-201zM28 384l63 112h507l-63 -112h-507z" />
    <glyph glyph-name="uni20BD" unicode="&#x20bd;" horiz-adv-x="592" 
d="M105 0v112h-85v96h85v51h-85v95h85v295h244q97 0 158.5 -55t61.5 -140q0 -86 -61.5 -140.5t-158.5 -54.5h-94v-51h215v-96h-215v-112h-150zM256 378h77q39 0 63 20.5t24 54.5q0 36 -23.5 56t-63.5 20h-77v-151z" />
    <glyph glyph-name="uni2113" unicode="&#x2113;" horiz-adv-x="453" 
d="M35 277q37 10 70 22v193q0 79 45 125t115 46q72 0 114.5 -43t42.5 -121q0 -73 -49 -147t-133 -128v-21q0 -40 22 -58.5t47 -18.5q55 0 92 22v-124q-35 -29 -111 -29q-82 0 -131.5 44.5t-53.5 122.5q-29 -9 -70 -16v131zM288 506q0 14 -6.5 22.5t-16.5 8.5q-25 0 -25 -37
v-114q48 55 48 120z" />
    <glyph glyph-name="afii61352" unicode="&#x2116;" horiz-adv-x="1118" 
d="M80 0v649h176l245 -393v393h145v-649h-153l-269 426v-426h-144zM736 148v104h332v-104h-332zM902 392q32 0 54 21.5t22 61.5t-22 61.5t-54 21.5q-31 0 -53 -21.5t-22 -61.5t22 -61.5t53 -21.5zM902 290q-79 0 -132.5 52t-53.5 133q0 80 53.5 132.5t132.5 52.5
t132.5 -52.5t53.5 -132.5q0 -81 -53.5 -133t-132.5 -52z" />
    <glyph glyph-name="trademark" unicode="&#x2122;" horiz-adv-x="889" 
d="M334 618h-99v-274h-102v274h-100v91h301v-91zM822 344h-100v222l-82 -222h-76l-83 218v-218h-99v365h142l80 -194l76 194h142v-365z" />
    <glyph glyph-name="Omega" unicode="&#x2126;" horiz-adv-x="782" 
d="M391 574q-73 0 -125.5 -48.5t-52.5 -129.5q0 -70 41.5 -117.5t103.5 -60.5v-218h-300v145h162q-75 31 -123 100.5t-48 164.5q0 139 100.5 226.5t241.5 87.5t241.5 -87.5t100.5 -226.5q0 -96 -47.5 -165t-123.5 -100h163v-145h-301v218q62 13 104 60.5t42 117.5
q0 81 -52.5 129.5t-126.5 48.5z" />
    <glyph glyph-name="uni2160" unicode="&#x2160;" horiz-adv-x="508" 
d="M459 649v-131h-126v-387h126v-131h-410v131h127v387h-127v131h410z" />
    <glyph glyph-name="uni2161" unicode="&#x2161;" horiz-adv-x="808" 
d="M759 131v-131h-710v131h135v387h-135v131h710v-131h-134v-387h134zM341 518v-387h127v387h-127z" />
    <glyph glyph-name="uni2162" unicode="&#x2162;" horiz-adv-x="1082" 
d="M1033 131v-131h-984v131h135v387h-135v131h984v-131h-134v-387h134zM341 518v-387h122v387h-122zM620 518v-387h122v387h-122z" />
    <glyph glyph-name="uni2163" unicode="&#x2163;" horiz-adv-x="1092" 
d="M1043 131v-131h-994v131h132v387h-132v131h994v-131h-104l-121 -387h225zM338 518v-387h200l-124 387h-76zM680 179l99 339h-200z" />
    <glyph glyph-name="uni2164" unicode="&#x2164;" horiz-adv-x="825" 
d="M776 649v-131h-104l-120 -387h223v-131h-726v131h223l-124 387h-99v131h727zM414 179l99 339h-200z" />
    <glyph glyph-name="uni2165" unicode="&#x2165;" horiz-adv-x="1087" 
d="M1038 131v-131h-989v131h223l-124 387h-99v131h989v-131h-133v-387h133zM673 518l-120 -387h195v387h-75zM414 179l99 339h-200z" />
    <glyph glyph-name="uni2166" unicode="&#x2166;" horiz-adv-x="1362" 
d="M1313 131v-131h-1264v131h223l-124 387h-99v131h1264v-131h-133v-387h133zM1023 131v387h-118v-387h118zM673 518l-120 -387h195v387h-75zM414 179l99 339h-200z" />
    <glyph glyph-name="uni2167" unicode="&#x2167;" horiz-adv-x="1634" 
d="M1585 131v-131h-1536v131h223l-124 387h-99v131h1535v-131h-132v-387h133zM672 518l-120 -387h196v387h-76zM1178 518v-387h117v387h-117zM905 518v-387h116v387h-116zM414 179l99 339h-200z" />
    <glyph glyph-name="uni2168" unicode="&#x2168;" horiz-adv-x="1067" 
d="M1017 131v-131h-968v131h132v387h-132v131h968v-131h-103l-145 -197l143 -190h105zM562 322l-146 196h-78v-387h80zM603 518l63 -89l64 89h-127zM664 216l-62 -85h123z" />
    <glyph glyph-name="uni2169" unicode="&#x2169;" horiz-adv-x="803" 
d="M753 649v-131h-103l-145 -197l143 -190h105v-131h-703v131h104l144 191l-146 196h-102v131h703zM340 518l63 -89l63 89h-126zM400 216l-61 -85h122z" />
    <glyph glyph-name="uni216C" unicode="&#x216c;" horiz-adv-x="661" 
d="M626 297v-297h-577v131h111v387h-111v131h389v-131h-121v-387h161v166h148z" />
    <glyph glyph-name="uni216D" unicode="&#x216d;" horiz-adv-x="760" 
d="M699 252v-252h-152v55q-66 -71 -177 -71q-142 0 -236 95t-94 244q0 148 94.5 244.5t232.5 96.5q110 0 174 -69v54h153v-247h-153q-4 19 -13.5 38.5t-28 40t-50.5 33.5t-74 13q-73 0 -128.5 -53t-55.5 -151q0 -90 54.5 -144t132.5 -54q77 0 117 40t52 87h152z" />
    <glyph glyph-name="uni216E" unicode="&#x216e;" horiz-adv-x="754" 
d="M389 649q149 0 236 -88t87 -237t-87.5 -236.5t-236.5 -87.5h-339v131h117v387h-117v131h340zM323 131h53q78 1 127.5 50.5t49.5 142.5t-50 143.5t-128 50.5h-52v-387z" />
    <glyph glyph-name="uni216F" unicode="&#x216f;" horiz-adv-x="1057" 
d="M380 131v-131h-331v131h111v387h-111v131h324l155 -391l146 391h334v-131h-110v-387h110v-131h-341v131h75v282l-158 -404h-114l-158 400v-278h68z" />
    <glyph glyph-name="arrowleft" unicode="&#x2190;" horiz-adv-x="1133" 
d="M339 54l-314 247l314 248v-182h749v-131h-749v-182z" />
    <glyph glyph-name="arrowup" unicode="&#x2191;" horiz-adv-x="535" 
d="M269 800l243 -277h-177v-669h-131v669h-181z" />
    <glyph glyph-name="arrowright" unicode="&#x2192;" horiz-adv-x="1133" 
d="M1108 301l-314 -247v182h-749v131h749v182z" />
    <glyph glyph-name="arrowdown" unicode="&#x2193;" horiz-adv-x="535" 
d="M514 131l-245 -279l-248 279h183v668h131v-668h179z" />
    <glyph glyph-name="uni2196" unicode="&#x2196;" horiz-adv-x="798" 
d="M54 708h352l-130 -131l499 -498l-92 -92l-499 498l-130 -131v354z" />
    <glyph glyph-name="uni2197" unicode="&#x2197;" horiz-adv-x="799" 
d="M393 708h352v-354l-130 131l-499 -498l-93 92l499 499z" />
    <glyph glyph-name="uni2198" unicode="&#x2198;" horiz-adv-x="796" 
d="M743 1h-352l129 130l-498 499l92 92l499 -498l130 131v-354z" />
    <glyph glyph-name="uni2199" unicode="&#x2199;" horiz-adv-x="796" 
d="M405 1h-352v354l130 -131l499 498l92 -92l-499 -498z" />
    <glyph glyph-name="uni21A9" unicode="&#x21a9;" horiz-adv-x="961" 
d="M310 24l-284 244l284 246v-182h359q52 0 83.5 27t31.5 65q0 40 -31 65.5t-84 25.5h-204v131h210q109 0 177.5 -63t68.5 -159q0 -98 -68 -161t-178 -63h-365v-176z" />
    <glyph glyph-name="uni21B0" unicode="&#x21b0;" horiz-adv-x="806" 
d="M309 235l-284 245l284 245v-180h427v-545h-131v414h-296v-179z" />
    <glyph glyph-name="uni21B1" unicode="&#x21b1;" horiz-adv-x="811" 
d="M201 0h-131v545h432v180l284 -245l-284 -245v179h-301v-414z" />
    <glyph glyph-name="uni21B2" unicode="&#x21b2;" horiz-adv-x="809" 
d="M608 709h131v-545h-431v-180l-285 246l285 244v-179h300v414z" />
    <glyph glyph-name="uni21B3" unicode="&#x21b3;" horiz-adv-x="809" 
d="M502 474l284 -244l-284 -246v180h-432v545h131v-414h301v179z" />
    <glyph glyph-name="uni21B4" unicode="&#x21b4;" horiz-adv-x="797" 
d="M33 578v131h558v-449h180l-242 -275l-246 275h177v318h-427z" />
    <glyph glyph-name="uni21B5" unicode="&#x21b5;" horiz-adv-x="1111" 
d="M257 83l-233 271h164q0 154 108.5 262.5t262.5 108.5q93 0 169 -41l-60 -116q-50 27 -109 27q-99 0 -169.5 -71t-70.5 -170h170zM924 354q0 -154 -108 -262t-262 -108q-89 0 -169 41l60 115q52 -27 109 -27q98 0 167.5 71t69.5 170h-169l232 271l233 -271h-163z" />
    <glyph glyph-name="uni21C6" unicode="&#x21c6;" horiz-adv-x="1136" 
d="M1102 158l-284 -244v179h-757v131h757v180zM313 320l-284 244l284 246v-183h756v-131h-756v-176z" />
    <glyph glyph-name="partialdiff" unicode="&#x2202;" horiz-adv-x="637" 
d="M260 580q-76 0 -148 -35l-54 123q96 52 210 52q44 0 84.5 -8.5t86 -33.5t79 -64.5t55.5 -108t22 -157.5q0 -159 -75 -261.5t-222 -102.5q-108 0 -184.5 65.5t-76.5 182.5q0 71 37.5 125t91.5 79.5t113 25.5q109 0 156 -55q-16 173 -175 173zM316 335q-61 0 -93 -30.5
t-32 -78.5q0 -46 34.5 -74t77.5 -28q67 0 99 46.5t37 116.5q-48 48 -123 48z" />
    <glyph glyph-name="Delta" unicode="&#x2206;" horiz-adv-x="755" 
d="M25 0l266 709h173l266 -709h-705zM377 539l-136 -391h273z" />
    <glyph glyph-name="product" unicode="&#x220f;" horiz-adv-x="706" 
d="M619 0h-159v563h-215v-563h-158v709h532v-709z" />
    <glyph glyph-name="summation" unicode="&#x2211;" horiz-adv-x="622" 
d="M48 0v145l246 208l-246 212v144h523v-147h-305l242 -209l-251 -206h314v-147h-523z" />
    <glyph glyph-name="minus" unicode="&#x2212;" horiz-adv-x="617" 
d="M559 237h-501v124h501v-124z" />
    <glyph glyph-name="uni2215" unicode="&#x2215;" horiz-adv-x="430" 
d="M436 649l-316 -649h-135l315 649h136z" />
    <glyph glyph-name="uni2219" unicode="&#x2219;" horiz-adv-x="284" 
d="M48 322q0 38 27.5 64.5t66.5 26.5t66.5 -26.5t27.5 -64.5q0 -39 -27.5 -65.5t-66.5 -26.5t-66.5 26.5t-27.5 65.5z" />
    <glyph glyph-name="radical" unicode="&#x221a;" horiz-adv-x="722" 
d="M718 762h-138l-253 -762h-132l-190 542h140l117 -346l225 689h231v-123z" />
    <glyph glyph-name="infinity" unicode="&#x221e;" horiz-adv-x="851" 
d="M424 188q-89 -92 -180 -92q-87 0 -144 55t-57 139t57 139.5t144 55.5q96 0 183 -95q92 95 180 95q87 0 144 -55.5t57 -139.5q0 -83 -57 -138.5t-144 -55.5q-97 0 -183 92zM246 353q-30 0 -48 -18.5t-18 -45.5t18 -45t48 -18q45 0 96 61q-56 66 -96 66zM605 226
q29 0 47.5 18t18.5 45t-18.5 45.5t-47.5 18.5q-42 0 -97 -64q54 -63 97 -63z" />
    <glyph glyph-name="integral" unicode="&#x222b;" horiz-adv-x="392" 
d="M120 1v510q0 92 53 145.5t145 53.5h58v-133h-53q-23 0 -36.5 -15.5t-13.5 -42.5v-510q0 -92 -53 -145.5t-145 -53.5h-59v133h54q22 0 36 15.5t14 42.5z" />
    <glyph glyph-name="approxequal" unicode="&#x2248;" horiz-adv-x="629" 
d="M508 479l79 -65q-27 -52 -71.5 -80t-97.5 -29q-57 0 -113 31l-48 26q-23 13 -50 13q-51 0 -84 -49l-81 65q27 52 71.5 80.5t97.5 28.5q60 0 112 -29l47 -26q25 -14 51 -14q54 0 87 48zM508 275l79 -66q-27 -52 -72 -80t-98 -28q-58 0 -112 30l-48 26q-26 13 -49 13
q-50 0 -85 -48l-81 65q27 52 72 80t99 28q56 0 110 -29l47 -26q26 -14 51 -14q54 0 87 49z" />
    <glyph glyph-name="notequal" unicode="&#x2260;" horiz-adv-x="599" 
d="M549 138h-275l-59 -96h-132l59 96h-88v122h163l48 79h-211v122h286l54 88h132l-54 -88h77v-122h-152l-48 -79h200v-122z" />
    <glyph glyph-name="lessequal" unicode="&#x2264;" horiz-adv-x="555" 
d="M53 164h439v-124h-439v124zM53 322v120l439 130v-123l-266 -65l266 -66v-126z" />
    <glyph glyph-name="greaterequal" unicode="&#x2265;" horiz-adv-x="555" 
d="M63 164h439v-124h-439v124zM502 442v-120l-439 -130v123l266 65l-266 67v125z" />
    <glyph glyph-name="dotmath" unicode="&#x22c5;" horiz-adv-x="284" 
d="M48 322q0 38 27.5 64.5t66.5 26.5t66.5 -26.5t27.5 -64.5q0 -39 -27.5 -65.5t-66.5 -26.5t-66.5 26.5t-27.5 65.5z" />
    <glyph glyph-name="uni24C5" unicode="&#x24c5;" horiz-adv-x="817" 
d="M127 354q0 -121 81 -204.5t200 -83.5t200.5 83.5t81.5 204.5t-81.5 205t-200.5 84t-200 -84t-81 -205zM38 354q0 153 108.5 262t261.5 109t262 -109t109 -262t-109 -261.5t-262 -108.5t-261.5 108.5t-108.5 261.5zM387 372h44q24 0 38.5 13t14.5 35t-14.5 35.5
t-38.5 13.5h-44v-97zM452 288h-65v-134h-104v399h169q57 0 97 -39t40 -94t-39.5 -93.5t-97.5 -38.5z" />
    <glyph glyph-name="filledbox" unicode="&#x25a0;" horiz-adv-x="874" 
d="M83 0v709h708v-709h-708z" />
    <glyph glyph-name="H22073" unicode="&#x25a1;" horiz-adv-x="874" 
d="M791 0h-708v709h708v-709zM213 579v-450h444v450h-444z" />
    <glyph glyph-name="uni25AF" unicode="&#x25af;" horiz-adv-x="655" 
d="M572 0h-489v709h489v-709zM209 596v-480h237v480h-237z" />
    <glyph glyph-name="triagup" unicode="&#x25b2;" horiz-adv-x="877" 
d="M440 725l418 -725h-839z" />
    <glyph glyph-name="uni25B3" unicode="&#x25b3;" horiz-adv-x="876" 
d="M438 725l419 -725h-838zM630 130l-192 333l-192 -333h384z" />
    <glyph glyph-name="lozenge" unicode="&#x25ca;" horiz-adv-x="640" 
d="M197 354l123 -212l123 212l-123 213zM22 354l210 355h176l210 -355l-210 -354h-176z" />
    <glyph glyph-name="circle" unicode="&#x25cb;" horiz-adv-x="815" 
d="M37 354q0 154 108 262.5t262 108.5t262.5 -108.5t108.5 -262.5t-108.5 -262t-262.5 -108t-262 108t-108 262zM167 354q0 -99 70.5 -170t169.5 -71t168.5 71t69.5 170t-69.5 170.5t-168.5 71.5t-169.5 -71.5t-70.5 -170.5z" />
    <glyph glyph-name="H18533" unicode="&#x25cf;" horiz-adv-x="815" 
d="M37 354q0 154 108 262.5t262 108.5t262.5 -108.5t108.5 -262.5t-108.5 -262t-262.5 -108t-262 108t-108 262z" />
    <glyph glyph-name="uni262E" unicode="&#x262e;" horiz-adv-x="814" 
d="M777 354q0 -154 -108 -262t-262 -108q-153 0 -261.5 108t-108.5 262t108.5 262.5t261.5 108.5q154 0 262 -108.5t108 -262.5zM647 354q0 84 -50.5 149.5t-128.5 86.5v-170l169 -132q10 30 10 66zM165 354q0 -34 9 -64l167 130v169q-77 -22 -126.5 -87.5t-49.5 -147.5z
M468 118q57 14 106 60l-106 87v-147zM236 181q48 -46 105 -62v146z" />
    <glyph glyph-name="uni2713" unicode="&#x2713;" horiz-adv-x="945" 
d="M925 633l-606 -649l-298 329l95 89l207 -226l510 549z" />
    <glyph glyph-name="uni2715" unicode="&#x2715;" horiz-adv-x="776" 
d="M661 -5l-273 270l-269 -270l-91 91l268 269l-268 266l91 90l268 -265l264 265l91 -90l-264 -265l273 -270z" />
    <glyph glyph-name="uni2780" unicode="&#x2780;" horiz-adv-x="814" 
d="M125 354q0 -121 81.5 -204.5t200.5 -83.5q118 0 199.5 83.5t81.5 204.5t-81.5 205t-199.5 84q-119 0 -200.5 -84t-81.5 -205zM37 354q0 153 108.5 262t261.5 109t261.5 -109t108.5 -262t-108.5 -261.5t-261.5 -108.5q-154 0 -262 108.5t-108 261.5zM484 172h-115v212h-94
v74q48 0 75 25t33 57h101v-368z" />
    <glyph glyph-name="uni2781" unicode="&#x2781;" horiz-adv-x="814" 
d="M125 354q0 -121 81.5 -204.5t200.5 -83.5q118 0 199.5 83.5t81.5 204.5t-81.5 205t-199.5 84q-119 0 -200.5 -84t-81.5 -205zM37 354q0 153 108.5 262t261.5 109t261.5 -109t108.5 -262t-108.5 -261.5t-261.5 -108.5q-154 0 -262 108.5t-108 261.5zM359 407h-100
q-4 16 -4 27q0 54 39 91t110 37q68 0 108 -36t40 -89q0 -65 -84 -114l-67 -39q-5 -3 -5 -5h159v-95h-302v13q0 111 91 162l60 34q36 20 36 45q0 12 -9.5 23t-29.5 11q-22 0 -33.5 -13.5t-11.5 -34.5q0 -11 3 -17z" />
    <glyph glyph-name="uni2782" unicode="&#x2782;" horiz-adv-x="814" 
d="M125 354q0 -121 81.5 -204.5t200.5 -83.5q118 0 199.5 83.5t81.5 204.5t-81.5 205t-199.5 84q-119 0 -200.5 -84t-81.5 -205zM37 354q0 153 108.5 262t261.5 109t261.5 -109t108.5 -262t-108.5 -261.5t-261.5 -108.5q-154 0 -262 108.5t-108 261.5zM250 277l103 18
q1 -19 15 -32.5t37 -13.5q21 0 34 10.5t13 26.5q0 20 -13 30t-33 10q-16 0 -29 -6l-35 75l79 47h-158v92h291v-93l-85 -51q47 -7 72.5 -35.5t25.5 -71.5q0 -52 -44.5 -89.5t-117.5 -37.5q-66 0 -108.5 36t-46.5 85z" />
    <glyph glyph-name="uni2783" unicode="&#x2783;" horiz-adv-x="814" 
d="M125 354q0 -121 81.5 -204.5t200.5 -83.5q118 0 199.5 83.5t81.5 204.5t-81.5 205t-199.5 84q-119 0 -200.5 -84t-81.5 -205zM37 354q0 153 108.5 262t261.5 109t261.5 -109t108.5 -262t-108.5 -261.5t-261.5 -108.5q-154 0 -262 108.5t-108 261.5zM226 249v112l164 186
h121v-213h59v-85h-59v-71h-111v71h-174zM400 334v102l-91 -102h91z" />
    <glyph glyph-name="uni2784" unicode="&#x2784;" horiz-adv-x="814" 
d="M125 354q0 -121 81.5 -204.5t200.5 -83.5q118 0 199.5 83.5t81.5 204.5t-81.5 205t-199.5 84q-119 0 -200.5 -84t-81.5 -205zM37 354q0 153 108.5 262t261.5 109t261.5 -109t108.5 -262t-108.5 -261.5t-261.5 -108.5q-154 0 -262 108.5t-108 261.5zM245 276l100 18
q1 -20 17 -32.5t38 -12.5q21 0 33.5 11t12.5 29q0 46 -50 46q-29 0 -47 -20l-92 26l44 190h231v-90h-165l-12 -52q26 20 71 20q60 0 95 -31.5t35 -87.5q0 -57 -41.5 -95.5t-114.5 -38.5q-63 0 -106.5 34.5t-48.5 85.5z" />
    <glyph glyph-name="uni2785" unicode="&#x2785;" horiz-adv-x="814" 
d="M125 354q0 -121 81.5 -204.5t200.5 -83.5q118 0 199.5 83.5t81.5 204.5t-81.5 205t-199.5 84q-119 0 -200.5 -84t-81.5 -205zM37 354q0 153 108.5 262t261.5 109t261.5 -109t108.5 -262t-108.5 -261.5t-261.5 -108.5q-154 0 -262 108.5t-108 261.5zM545 534l-19 -88
q-31 11 -67 11q-90 0 -114 -71q33 28 82 28q57 0 93.5 -30t36.5 -86q0 -60 -44.5 -97.5t-116.5 -37.5q-71 0 -117.5 46.5t-46.5 123.5q0 99 63 157t158 58q44 0 92 -14zM350 294q0 -18 13 -30t33 -12t33.5 12t13.5 30q0 19 -13.5 31.5t-33.5 12.5t-33 -12.5t-13 -31.5z" />
    <glyph glyph-name="uni2786" unicode="&#x2786;" horiz-adv-x="814" 
d="M125 354q0 -121 81.5 -204.5t200.5 -83.5q118 0 199.5 83.5t81.5 204.5t-81.5 205t-199.5 84q-119 0 -200.5 -84t-81.5 -205zM37 354q0 153 108.5 262t261.5 109t261.5 -109t108.5 -262t-108.5 -261.5t-261.5 -108.5q-154 0 -262 108.5t-108 261.5zM560 529v-92
q-120 -102 -136 -277h-120q3 49 17 95.5t31.5 77.5t34.5 55.5t29 35.5l11 12h-179v93h312z" />
    <glyph glyph-name="uni2787" unicode="&#x2787;" horiz-adv-x="814" 
d="M125 354q0 -121 81.5 -204.5t200.5 -83.5q118 0 199.5 83.5t81.5 204.5t-81.5 205t-199.5 84q-119 0 -200.5 -84t-81.5 -205zM37 354q0 153 108.5 262t261.5 109t261.5 -109t108.5 -262t-108.5 -261.5t-261.5 -108.5q-154 0 -262 108.5t-108 261.5zM407 396q19 1 29.5 11
t10.5 23q0 12 -10.5 22t-29.5 10t-29.5 -10t-10.5 -22q0 -13 10.5 -23t29.5 -11zM407 251q25 0 37 11.5t12 27.5q0 14 -12.5 25t-36.5 11t-36.5 -11t-12.5 -25q0 -16 12 -27.5t37 -11.5zM407 165q-75 0 -118 30t-43 80q0 32 21.5 56t54.5 32q-31 9 -48 32t-17 51
q0 45 39.5 74.5t110.5 29.5q72 0 111 -29.5t39 -74.5q0 -28 -17 -51t-48 -32q32 -9 54 -32t22 -52q0 -52 -42 -83t-119 -31z" />
    <glyph glyph-name="uni2788" unicode="&#x2788;" horiz-adv-x="814" 
d="M125 354q0 -121 81.5 -204.5t200.5 -83.5q118 0 199.5 83.5t81.5 204.5t-81.5 205t-199.5 84q-119 0 -200.5 -84t-81.5 -205zM37 354q0 153 108.5 262t261.5 109t261.5 -109t108.5 -262t-108.5 -261.5t-261.5 -108.5q-154 0 -262 108.5t-108 261.5zM272 178l17 88
q25 -11 62 -11q99 0 118 72q-33 -28 -84 -28q-53 0 -92.5 31t-39.5 85q0 60 43.5 98t117.5 38q71 0 117 -47.5t46 -123.5q0 -101 -60.5 -159t-153.5 -58q-41 0 -91 15zM457 419q0 18 -13 30t-33 12t-33 -12t-13 -30q0 -19 13 -31t33 -12t33 12t13 31z" />
    <glyph glyph-name="uniE000" unicode="&#xe000;" horiz-adv-x="789" 
d="M264 -15l-242 275h180v449h558v-131h-427v-318h176z" />
    <glyph glyph-name="uniE002" unicode="&#xe002;" horiz-adv-x="969" 
d="M483 354l232 271l233 -271h-161q0 -154 -108 -262t-262 -108t-262.5 108t-108.5 262t108.5 262.5t262.5 108.5q76 0 145 -29l-51 -121q-43 20 -94 20q-99 0 -169.5 -71t-70.5 -170t70.5 -170t169.5 -71q98 0 167.5 71t69.5 170h-171z" />
    <glyph glyph-name="commaaccent" unicode="&#xf6c3;" horiz-adv-x="213" 
d="M22 698q0 29 22 49.5t57 20.5q40 0 65 -27t25 -66q0 -40 -14 -68.5t-38 -42t-47 -19t-48 -5.5h-8v52q83 0 88 45q0 -1 -3.5 -2.5t-11 -3t-16.5 -1.5q-34 0 -52.5 19t-18.5 49z" />
    <glyph glyph-name="uniFB00" unicode="&#xfb00;" horiz-adv-x="715" 
d="M697 369h-108v-369h-152v369h-175v-369h-152v369h-79v128h79v43q0 87 50.5 139.5t139.5 52.5q50 0 72 -11v-124q-20 5 -45 5t-45 -14t-20 -48v-43h175v43q0 87 50 139.5t139 52.5q53 0 73 -10v-125q-20 5 -45 5q-26 0 -45.5 -14t-19.5 -48v-43h108v-128z" />
    <glyph glyph-name="fi" unicode="&#xfb01;" horiz-adv-x="661" 
d="M445 369h-183v-369h-152v369h-79v128h79v43q0 87 50.5 139.5t139.5 52.5q48 0 70 -11v-124q-18 5 -43 5t-45 -14t-20 -48v-43h335v-497h-152v369zM432 649q0 37 26 63t62 26q38 0 64 -26t26 -63t-26.5 -63t-63.5 -26q-36 0 -62 26t-26 63z" />
    <glyph glyph-name="fl" unicode="&#xfb02;" horiz-adv-x="661" 
d="M327 602q-25 0 -45 -14t-20 -48v-43h182v227h153v-724h-153v369h-182v-369h-152v369h-79v128h79v43q0 87 50.5 139.5t139.5 52.5q48 0 70 -11v-124q-18 5 -43 5z" />
    <glyph glyph-name="uniFB03" unicode="&#xfb03;" horiz-adv-x="992" 
d="M300 732q48 0 72 -12v-123q-20 5 -45 5q-65 0 -65 -62v-43h175v43q0 87 50 139.5t139 52.5q51 0 73 -11v-124q-20 5 -45 5q-26 0 -45.5 -14t-19.5 -48v-43h339v-497h-153v369h-186v-369h-152v369h-175v-369h-152v369h-79v128h79v43q0 87 50.5 139.5t139.5 52.5zM762 649
q0 37 26 63t63 26t63 -26t26 -63t-26 -63t-63 -26t-63 26t-26 63z" />
    <glyph glyph-name="uniFB04" unicode="&#xfb04;" horiz-adv-x="992" 
d="M327 602q-25 0 -45 -14t-20 -48v-43h175v43q0 87 50 139.5t139 52.5q51 0 73 -11v-124q-20 5 -45 5q-26 0 -45.5 -14t-19.5 -48v-43h187v227h152v-724h-152v369h-187v-369h-152v369h-175v-369h-152v369h-79v128h79v43q0 87 50.5 139.5t139.5 52.5q50 0 72 -11v-124
q-20 5 -45 5z" />
    <glyph glyph-name="uniFEFF" unicode="&#xfeff;" horiz-adv-x="0" 
 />
    <glyph glyph-name="i.latn_TRK" horiz-adv-x="280" 
d="M216 0h-152v497h152v-497zM51 649q0 37 26 63t62 26q37 0 63.5 -26t26.5 -63t-26.5 -63t-63.5 -26q-36 0 -62 26t-26 63z" />
    <glyph glyph-name="Ldot.latn_CAT" horiz-adv-x="579" 
d="M343 421q0 34 24.5 58t59.5 24t59.5 -24t24.5 -58q0 -36 -24 -59.5t-60 -23.5q-35 0 -59.5 23.5t-24.5 59.5zM544 0h-464v709h158v-558h306v-151z" />
    <glyph glyph-name="ldot.latn_CAT" horiz-adv-x="428" 
d="M216 0h-152v724h152v-724zM262 338q0 37 25.5 62t63.5 25q37 0 63 -25t26 -62q0 -36 -26 -61t-63 -25q-38 0 -63.5 24.5t-25.5 61.5z" />
    <glyph glyph-name="uni0414.cyrl_BGR" horiz-adv-x="793" 
d="M22 -150v299h81l211 560h163l211 -560h83v-299h-159v150h-431v-150h-159zM269 149h248l-125 350z" />
    <glyph glyph-name="uni0416.cyrl_BGR" horiz-adv-x="1057" 
d="M0 0l263 404l-260 305h206l240 -292v292h158v-292l240 292h203l-256 -300l266 -409h-199l-179 278l-75 -88v-190h-158v190l-75 88l-179 -278h-195z" />
    <glyph glyph-name="uni041A.cyrl_BGR" horiz-adv-x="705" 
d="M509 0l-191 279l-80 -89v-190h-158v709h158v-298l259 298h208l-276 -307l277 -402h-197z" />
    <glyph glyph-name="uni041B.cyrl_BGR" horiz-adv-x="700" 
d="M346 499l-169 -499h-168l259 709h163l260 -709h-174z" />
    <glyph glyph-name="uni0431.cyrl_SRB" horiz-adv-x="600" 
d="M299 -15q-112 0 -188 72t-76 182q0 73 39.5 126.5t101.5 73.5q-108 42 -108 133q0 62 46 103.5t136 41.5h108q114 0 153 16v-127q-32 -20 -153 -20h-104q-43 0 -43 -26t65 -41q146 -33 216.5 -95t70.5 -181q0 -112 -75.5 -185t-188.5 -73zM299 125q46 0 79 30t33 84
t-33 83.5t-79 29.5q-45 0 -78.5 -29.5t-33.5 -83.5t33.5 -84t78.5 -30z" />
    <glyph glyph-name="uni0432.cyrl_BGR" horiz-adv-x="578" 
d="M296 -11q-103 0 -171 63t-68 168v267q0 109 64 177t169 68q107 0 169.5 -59t62.5 -144q0 -50 -25 -92t-71 -63q49 -16 82 -59t33 -106q0 -93 -65 -156.5t-180 -63.5zM298 131q33 0 59.5 23.5t26.5 64.5q0 44 -29.5 66t-78.5 22h-67v-81q0 -42 25 -68.5t64 -26.5zM209 432
h65q45 0 70 24t25 63q0 32 -21 52.5t-57 20.5q-38 0 -60 -26t-22 -73v-61z" />
    <glyph glyph-name="uni0433.cyrl_BGR" horiz-adv-x="481" 
d="M236 -16q-94 0 -146 48t-52 114q0 123 153 158l66 15q41 9 41 40q0 20 -16 30.5t-39 10.5q-65 0 -72 -59l-126 23q2 24 13.5 47.5t33.5 47.5t62.5 38.5t92.5 14.5q76 0 133 -39.5t57 -114.5q0 -116 -150 -158l-57 -16q-48 -13 -48 -44q0 -17 15.5 -28t43.5 -11
q66 0 76 63l129 -23q-3 -24 -14.5 -48.5t-34 -50.5t-64.5 -42t-97 -16z" />
    <glyph glyph-name="uni0433.cyrl_SRB" horiz-adv-x="427" 
d="M64 0v497h344v-128h-192v-369h-152z" />
    <glyph glyph-name="uni0434.cyrl_BGR" horiz-adv-x="614" 
d="M36 -28l134 38q8 -37 36.5 -60t70.5 -23q123 0 123 127v23q-37 -56 -133 -56q-99 0 -165 69t-66 173q0 100 65.5 171.5t165.5 71.5q55 0 90 -19t48 -43v53h145v-435q0 -116 -67 -191.5t-199 -75.5q-102 0 -169.5 52.5t-78.5 124.5zM295 153q47 0 76.5 30t29.5 80
q0 49 -31 79.5t-75 30.5t-75.5 -30.5t-31.5 -79.5q0 -50 30 -80t77 -30z" />
    <glyph glyph-name="uni0434.cyrl_SRB" horiz-adv-x="633" 
d="M24 -130v258h45q37 26 44 165l11 204h402v-369h80v-258h-132v130h-318v-130h-132zM222 128h152v241h-117l-4 -82q-5 -108 -31 -159z" />
    <glyph glyph-name="uni0436.cyrl_BGR" horiz-adv-x="855" 
d="M2 0l197 286l-190 211h189l153 -175v402h152v-402l153 175h186l-186 -207l199 -290h-186l-118 176l-48 -54v-122h-152v122l-48 54l-118 -176h-183z" />
    <glyph glyph-name="uni0437.cyrl_BGR" horiz-adv-x="519" 
d="M241 -205q-97 0 -159 50.5t-73 122.5l136 37q5 -28 30 -49.5t64 -21.5t65 23t26 65q0 40 -28.5 62.5t-69.5 22.5h-54v129h60q35 0 55 19.5t20 50.5q0 28 -19.5 47.5t-53.5 19.5q-33 0 -55 -17t-30 -44l-133 40q13 66 73 113t151 47q101 0 161 -53t60 -131
q0 -50 -26 -90.5t-75 -59.5q57 -17 87.5 -62.5t30.5 -109.5q0 -87 -65.5 -149t-177.5 -62z" />
    <glyph glyph-name="uni0438.cyrl_BGR" horiz-adv-x="591" 
d="M385 0q-4 18 -4 50q-18 -30 -55 -45.5t-78 -15.5q-88 0 -138.5 55.5t-50.5 138.5v314h152v-282q0 -38 20.5 -62t59.5 -24q38 0 60.5 23.5t22.5 61.5v283h152v-408q0 -49 5 -89h-146z" />
    <glyph glyph-name="uni0439.cyrl_BGR" horiz-adv-x="591" 
d="M385 0q-4 18 -4 50q-18 -30 -55 -45.5t-78 -15.5q-88 0 -138.5 55.5t-50.5 138.5v314h152v-282q0 -38 20.5 -62t59.5 -24q38 0 60.5 23.5t22.5 61.5v283h152v-408q0 -49 5 -89h-146zM295 551q-80 0 -122.5 44t-44.5 112h115q2 -70 52 -70q51 0 53 70h114q-2 -68 -44 -112
t-123 -44z" />
    <glyph glyph-name="uni043A.cyrl_BGR" horiz-adv-x="571" 
d="M564 497l-194 -209l198 -288h-186l-117 175l-49 -53v-122h-152v724h152v-394l151 167h197z" />
    <glyph glyph-name="uni043B.cyrl_BGR" horiz-adv-x="570" 
d="M12 0l195 497h153l198 -497h-165l-109 309l-112 -309h-160z" />
    <glyph glyph-name="uni043D.cyrl_BGR" horiz-adv-x="595" 
d="M64 0v497h152v-174h163v174h152v-497h-152v195h-163v-195h-152z" />
    <glyph glyph-name="uni043F.cyrl_BGR" horiz-adv-x="590" 
d="M216 285v-285h-152v497h147v-57q19 33 58.5 51.5t80.5 18.5q89 0 135 -55.5t46 -142.5v-312h-152v286q0 39 -20.5 62.5t-60.5 23.5q-37 0 -59.5 -24.5t-22.5 -62.5z" />
    <glyph glyph-name="uni043F.cyrl_SRB" horiz-adv-x="585" 
d="M64 0v497h457v-497h-152v369h-153v-369h-152z" />
    <glyph glyph-name="uni0442.cyrl_BGR" horiz-adv-x="897" 
d="M216 0h-152v497h145v-57q18 32 59.5 52t83.5 20q107 0 147 -78q54 78 154 78q78 0 131 -47.5t53 -142.5v-322h-147v288q0 37 -20 60.5t-59 23.5t-61 -25t-22 -60v-287h-150v288q0 37 -20.5 60.5t-59.5 23.5q-38 0 -60 -25t-22 -61v-286z" />
    <glyph glyph-name="uni0442.cyrl_SRB" horiz-adv-x="502" 
d="M175 0v369h-155v128h462v-128h-155v-369h-152z" />
    <glyph glyph-name="uni0446.cyrl_BGR" horiz-adv-x="633" 
d="M474 -130v130h-89q-4 18 -4 50q-18 -30 -55 -45.5t-78 -15.5q-88 0 -138.5 55.5t-50.5 138.5v314h152v-282q0 -38 20.5 -62t59.5 -24q38 0 60.5 23.5t22.5 61.5v283h152v-369h80v-258h-132z" />
    <glyph glyph-name="uni0447.cyrl_BGR" horiz-adv-x="562" 
d="M346 0v182q-49 -33 -115 -33q-95 0 -147.5 55t-52.5 139v154h152v-122q0 -38 20.5 -62t59.5 -24q27 0 47.5 8t27.5 16l8 8v176h152v-497h-152z" />
    <glyph glyph-name="uni0448.cyrl_BGR" horiz-adv-x="898" 
d="M249 -15q-77 0 -133 51.5t-56 143.5v317h147v-288q0 -37 20 -60.5t59 -23.5t61 25t22 60v287h150v-288q0 -37 20.5 -60.5t59.5 -23.5q38 0 60 25t22 61v286h152v-408q0 -49 5 -89h-143q-4 18 -4 55q-19 -32 -58.5 -51t-80.5 -19q-105 0 -145 80q-53 -80 -158 -80z" />
    <glyph glyph-name="uni0449.cyrl_BGR" horiz-adv-x="940" 
d="M782 -130v130h-87q-4 18 -4 55q-19 -32 -58.5 -51t-80.5 -19q-105 0 -145 80q-53 -80 -158 -80q-77 0 -133 51.5t-56 143.5v317h147v-288q0 -37 20 -60.5t59 -23.5t61 25t22 60v287h150v-288q0 -37 20.5 -60.5t59.5 -23.5q38 0 60 25t22 61v286h152v-369h80v-258h-131z
" />
    <glyph glyph-name="uni044A.cyrl_BGR" horiz-adv-x="601" 
d="M354 -11q-98 0 -157 53.5t-59 138.5v188h-118v128h270v-130h78q96 0 149.5 -52t53.5 -133q0 -85 -62.5 -139t-154.5 -54zM354 113q29 0 47 18t18 48q0 29 -18.5 47t-50.5 18h-60v-60q0 -32 18 -51.5t46 -19.5z" />
    <glyph glyph-name="uni044C.cyrl_BGR" horiz-adv-x="515" 
d="M275 -11q-98 0 -157 53.5t-59 138.5v316h152v-130h78q96 0 149.5 -52t53.5 -133q0 -85 -62.5 -139t-154.5 -54zM275 113q29 0 47 18t18 48q0 29 -18.5 47t-50.5 18h-60v-60q0 -32 18 -51.5t46 -19.5z" />
    <glyph glyph-name="uni044E.cyrl_BGR" horiz-adv-x="819" 
d="M525 -15q-95 0 -166 58t-88 152h-55v-195h-152v724h152v-401h59q22 85 91 137t159 52q110 0 184 -74t74 -189t-74 -189.5t-184 -74.5zM525 125q44 0 75 32t31 92t-30.5 91.5t-75.5 31.5q-44 0 -75.5 -32t-31.5 -91t31.5 -91.5t75.5 -32.5z" />
    <glyph glyph-name="zero.numr" horiz-adv-x="402" 
d="M145 465q0 -100 56 -100t56 100t-56 100t-56 -100zM29 465q0 81 36 130q46 63 136 63q91 0 137 -63q36 -49 36 -130t-36 -130q-48 -63 -137 -63t-136 64q-36 48 -36 129z" />
    <glyph glyph-name="one.numr" horiz-adv-x="282" 
d="M227 281h-115v212h-94v74q48 0 75 25t33 57h101v-368z" />
    <glyph glyph-name="two.numr" horiz-adv-x="366" 
d="M137 503h-100q-4 16 -4 27q0 54 39 91t110 37q68 0 108 -36t40 -89q0 -65 -84 -114l-67 -39q-5 -3 -5 -5h159v-95h-302v13q0 111 91 162l60 34q36 20 36 45q0 12 -9.5 23t-29.5 11q-22 0 -33.5 -13.5t-11.5 -34.5q0 -11 3 -17z" />
    <glyph glyph-name="three.numr" horiz-adv-x="371" 
d="M25 392l103 18q1 -19 15 -32.5t37 -13.5q21 0 34 10.5t13 26.5q0 20 -13 30t-33 10q-15 0 -29 -6l-35 75l79 47h-158v92h291v-93l-85 -51q47 -7 72.5 -35.5t25.5 -71.5q0 -52 -44.5 -89.5t-117.5 -37.5q-66 0 -108.5 36t-46.5 85z" />
    <glyph glyph-name="four.numr" horiz-adv-x="391" 
d="M23 351v112l164 186h121v-213h59v-85h-59v-71h-111v71h-174zM197 436v102l-91 -102h91z" />
    <glyph glyph-name="five.numr" horiz-adv-x="360" 
d="M22 394l100 18q1 -20 17 -32.5t38 -12.5q21 0 33.5 11t12.5 29q0 46 -50 46q-29 0 -47 -20l-92 26l44 190h231v-90h-165l-12 -52q26 20 71 20q60 0 95 -31.5t35 -87.5q0 -57 -41.5 -95.5t-114.5 -38.5q-63 0 -106.5 34.5t-48.5 85.5z" />
    <glyph glyph-name="six.numr" horiz-adv-x="381" 
d="M341 641l-19 -88q-31 11 -67 11q-90 0 -114 -71q33 28 82 28q57 0 93.5 -30t36.5 -86q0 -60 -44.5 -97.5t-116.5 -37.5q-71 0 -117.5 46.5t-46.5 123.5q0 99 63 157t158 58q44 0 92 -14zM146 401q0 -18 13 -30t33 -12t33.5 12t13.5 30q0 19 -13.5 31.5t-33.5 12.5
t-33 -12.5t-13 -31.5z" />
    <glyph glyph-name="seven.numr" horiz-adv-x="348" 
d="M332 649v-92q-120 -102 -136 -277h-120q3 49 17 95.5t31.5 77.5t34.5 55.5t29 35.5l11 12h-179v93h312z" />
    <glyph glyph-name="eight.numr" horiz-adv-x="378" 
d="M189 503q19 1 29.5 11t10.5 23q0 12 -10.5 22t-29.5 10t-29.5 -10t-10.5 -22q0 -13 10.5 -23t29.5 -11zM189 358q25 0 37 11.5t12 27.5q0 14 -12.5 25t-36.5 11t-36.5 -11t-12.5 -25q0 -16 12 -27.5t37 -11.5zM189 272q-75 0 -118 30t-43 80q0 32 21.5 56t54.5 32
q-31 9 -48 32t-17 51q0 45 39.5 74.5t110.5 29.5q72 0 111 -29.5t39 -74.5q0 -28 -17 -51t-48 -32q32 -9 54 -32t22 -52q0 -52 -42 -83t-119 -31z" />
    <glyph glyph-name="nine.numr" horiz-adv-x="378" 
d="M45 285l17 88q25 -11 62 -11q99 0 118 72q-33 -28 -84 -28q-53 0 -92.5 31t-39.5 85q0 60 43.5 98t117.5 38q71 0 117 -47.5t46 -123.5q0 -101 -60.5 -159t-153.5 -58q-41 0 -91 15zM230 526q0 18 -13 30t-33 12t-33 -12t-13 -30q0 -19 13 -31t33 -12t33 12t13 31z" />
    <glyph glyph-name="zero.dnom" horiz-adv-x="403" 
d="M145 184q0 -100 56 -100t56 100t-56 100t-56 -100zM29 184q0 81 36 130q46 63 136 63q91 0 137 -63q36 -49 36 -130t-36 -130q-48 -63 -137 -63t-136 64q-36 48 -36 129z" />
    <glyph glyph-name="one.dnom" horiz-adv-x="285" 
d="M229 0h-115v212h-94v74q48 0 75 25t33 57h101v-368z" />
    <glyph glyph-name="two.dnom" horiz-adv-x="366" 
d="M137 223h-100q-4 16 -4 27q0 54 39 91t110 37q68 0 108 -36t40 -89q0 -65 -84 -114l-67 -39q-5 -3 -5 -5h159v-95h-302v13q0 111 91 162l60 34q36 20 36 45q0 12 -9.5 23t-29.5 11q-22 0 -33.5 -13.5t-11.5 -34.5q0 -11 3 -17z" />
    <glyph glyph-name="three.dnom" horiz-adv-x="372" 
d="M25 112l103 18q1 -19 15 -32.5t37 -13.5q21 0 34 10.5t13 26.5q0 20 -13 30t-33 10q-15 0 -29 -6l-35 75l79 47h-158v92h291v-93l-85 -51q47 -7 72.5 -35.5t25.5 -71.5q0 -52 -44.5 -89.5t-117.5 -37.5q-66 0 -108.5 36t-46.5 85z" />
    <glyph glyph-name="four.dnom" horiz-adv-x="391" 
d="M23 71v112l164 186h121v-213h59v-85h-59v-71h-111v71h-174zM197 156v102l-91 -102h91z" />
    <glyph glyph-name="five.dnom" horiz-adv-x="362" 
d="M23 113l100 18q1 -20 17 -32.5t38 -12.5q21 0 33.5 11t12.5 29q0 46 -50 46q-29 0 -47 -20l-92 26l44 190h231v-90h-165l-12 -52q26 20 71 20q60 0 95 -31.5t35 -87.5q0 -57 -41.5 -95.5t-114.5 -38.5q-63 0 -106.5 34.5t-48.5 85.5z" />
    <glyph glyph-name="six.dnom" horiz-adv-x="381" 
d="M341 362l-19 -88q-31 11 -67 11q-90 0 -114 -71q33 28 82 28q57 0 93.5 -30t36.5 -86q0 -60 -44.5 -97.5t-116.5 -37.5q-71 0 -117.5 46.5t-46.5 123.5q0 99 63 157t158 58q44 0 92 -14zM146 122q0 -18 13 -30t33 -12t33.5 12t13.5 30q0 19 -13.5 31.5t-33.5 12.5
t-33 -12.5t-13 -31.5z" />
    <glyph glyph-name="seven.dnom" horiz-adv-x="348" 
d="M332 369v-92q-120 -102 -136 -277h-120q3 49 17 95.5t31.5 77.5t34.5 55.5t29 35.5l11 12h-179v93h312z" />
    <glyph glyph-name="eight.dnom" horiz-adv-x="380" 
d="M190 223q19 1 29.5 11t10.5 23q0 12 -10.5 22t-29.5 10t-29.5 -10t-10.5 -22q0 -13 10.5 -23t29.5 -11zM190 78q25 0 37 11.5t12 27.5q0 14 -12.5 25t-36.5 11t-36.5 -11t-12.5 -25q0 -16 12 -27.5t37 -11.5zM190 -8q-75 0 -118 30t-43 80q0 32 21.5 56t54.5 32
q-31 9 -48 32t-17 51q0 45 39.5 74.5t110.5 29.5q72 0 111 -29.5t39 -74.5q0 -28 -17 -51t-48 -32q32 -9 54 -32t22 -52q0 -52 -42 -83t-119 -31z" />
    <glyph glyph-name="nine.dnom" horiz-adv-x="378" 
d="M45 5l17 88q25 -11 62 -11q99 0 118 72q-33 -28 -84 -28q-53 0 -92.5 31t-39.5 85q0 60 43.5 98t117.5 38q71 0 117 -47.5t46 -123.5q0 -101 -60.5 -159t-153.5 -58q-41 0 -91 15zM230 246q0 18 -13 30t-33 12t-33 -12t-13 -30q0 -19 13 -31t33 -12t33 12t13 31z" />
    <glyph glyph-name="space.frac" horiz-adv-x="46" 
 />
    <glyph glyph-name="a.ordn" horiz-adv-x="389" 
d="M28 397q0 44 29 71t75 34l81 12q25 4 25 24q0 15 -13 25t-36 10q-25 0 -40.5 -14.5t-17.5 -34.5l-96 20q5 43 44 79.5t111 36.5q80 0 118 -38.5t38 -97.5v-170q0 -26 4 -54h-100q-3 15 -3 38q-30 -48 -97 -48q-56 0 -89 31.5t-33 75.5zM178 369q25 0 42.5 15.5t17.5 51.5
v15l-62 -10q-38 -5 -38 -37q0 -35 40 -35z" />
    <glyph glyph-name="b.ordn" horiz-adv-x="444" 
d="M154 300h-108v507h110v-189q11 17 38 28.5t61 11.5q74 0 118 -51t44 -131t-47 -132t-119 -52q-68 0 -97 46v-38zM307 475q0 40 -22 61.5t-54 21.5t-54.5 -21.5t-22.5 -61.5t22.5 -61.5t54.5 -21.5t54 21.5t22 61.5z" />
    <glyph glyph-name="c.ordn" horiz-adv-x="402" 
d="M214 558q-34 0 -56 -22.5t-22 -61.5q0 -38 22.5 -60t56.5 -22q27 0 45 14t24 35l98 -28q-12 -51 -56 -87t-111 -36q-79 0 -134 52t-55 132q0 81 53.5 133.5t131.5 52.5q68 0 112.5 -36t56.5 -87l-99 -29q-15 50 -67 50z" />
    <glyph glyph-name="d.ordn" horiz-adv-x="445" 
d="M399 807v-445q0 -32 2 -62h-106q-3 9 -3 31q-28 -39 -91 -39q-74 0 -124 52t-50 132q0 78 48 130t121 52q70 0 93 -34v183h110zM138 475q0 -40 22.5 -61.5t54.5 -21.5t54 21.5t22 61.5t-22 61.5t-54 21.5t-54.5 -21.5t-22.5 -61.5z" />
    <glyph glyph-name="e.ordn" horiz-adv-x="405" 
d="M136 517h135q-2 22 -18 39t-50 17q-30 0 -47.5 -17.5t-19.5 -38.5zM278 426l93 -25q-14 -48 -55.5 -79.5t-105.5 -31.5q-76 0 -129.5 50.5t-53.5 135.5q0 81 52 132.5t123 51.5q82 0 129 -47.5t47 -131.5q0 -7 -0.5 -15t-1 -13.5t-0.5 -6.5h-242q2 -27 24.5 -45t52.5 -18
q50 0 67 43z" />
    <glyph glyph-name="f.ordn" horiz-adv-x="282" 
d="M266 556h-75v-256h-110v256h-55v93h55v28q0 61 35.5 98.5t99.5 37.5q37 0 51 -7v-91q-14 4 -31 4q-18 0 -31.5 -10t-13.5 -32v-28h75v-93z" />
    <glyph glyph-name="g.ordn" horiz-adv-x="436" 
d="M26 280l97 28q6 -24 25.5 -38.5t48.5 -14.5q84 0 84 87v10q-27 -37 -92 -37q-70 0 -116.5 48.5t-46.5 121.5q0 70 46.5 120.5t116.5 50.5q38 0 62 -13.5t33 -29.5v36h106v-304q0 -82 -47.5 -135t-140.5 -53q-72 0 -120 37t-56 86zM209 411q32 0 52 20t20 54q0 33 -21 53
t-51 20q-29 0 -50.5 -20.5t-21.5 -52.5q0 -34 20.5 -54t51.5 -20z" />
    <glyph glyph-name="h.ordn" horiz-adv-x="420" 
d="M158 505v-205h-112v507h112v-179q30 30 87 30q66 0 99.5 -39t33.5 -100v-219h-111v200q0 26 -14 42t-40 16q-23 0 -38 -15t-17 -38z" />
    <glyph glyph-name="i.ordn" horiz-adv-x="204" 
d="M158 300h-112v349h112v-349zM38 753q0 27 19 45.5t45 18.5t45 -18.5t19 -45.5q0 -26 -19 -45t-45 -19t-45 19t-19 45z" />
    <glyph glyph-name="j.ordn" horiz-adv-x="204" 
d="M46 289v360h112v-373q0 -53 -32 -86t-86 -33q-34 0 -61 9v93q16 -4 33 -4q34 0 34 34zM38 753q0 27 19 45.5t45 18.5t45 -18.5t19 -45.5q0 -26 -19 -45t-45 -19t-45 19t-19 45z" />
    <glyph glyph-name="k.ordn" horiz-adv-x="406" 
d="M402 649l-135 -146l138 -203h-135l-80 120l-32 -35v-85h-112v507h112v-271l101 113h143z" />
    <glyph glyph-name="l.ordn" horiz-adv-x="204" 
d="M158 300h-112v507h112v-507z" />
    <glyph glyph-name="m.ordn" horiz-adv-x="636" 
d="M158 300h-112v349h107v-40q12 23 41 37t58 14q75 0 104 -54q38 54 107 54q55 0 92.5 -33.5t37.5 -100.5v-226h-107v200q0 25 -13.5 41t-40.5 16q-26 0 -40.5 -16.5t-14.5 -40.5v-200h-110v200q0 25 -13.5 41t-40.5 16q-26 0 -40.5 -16.5t-14.5 -40.5v-200z" />
    <glyph glyph-name="n.ordn" horiz-adv-x="420" 
d="M158 500v-200h-112v349h108v-39q13 23 40.5 35.5t56.5 12.5q63 0 95 -39t32 -100v-219h-111v200q0 26 -14 42t-40 16q-25 0 -40 -16.5t-15 -41.5z" />
    <glyph glyph-name="o.ordn" horiz-adv-x="424" 
d="M212 392q32 0 54 21.5t22 61.5t-22 61.5t-54 21.5q-31 0 -53 -21.5t-22 -61.5t22 -61.5t53 -21.5zM212 660q79 0 132.5 -52.5t53.5 -132.5q0 -81 -53.5 -133t-132.5 -52t-132.5 52t-53.5 133q0 80 53.5 132.5t132.5 52.5z" />
    <glyph glyph-name="p.ordn" horiz-adv-x="444" 
d="M158 167h-112v482h108v-34q11 18 38.5 30.5t62.5 12.5q74 0 118 -51t44 -131t-47 -132t-119 -52q-64 0 -93 33v-158zM309 475q0 40 -22 61.5t-54 21.5t-54.5 -21.5t-22.5 -61.5t22.5 -61.5t54.5 -21.5t54 21.5t22 61.5z" />
    <glyph glyph-name="q.ordn" horiz-adv-x="445" 
d="M399 167h-109v159q-26 -34 -89 -34q-75 0 -124.5 51.5t-49.5 132.5q0 79 47.5 130.5t121.5 51.5q41 0 65 -13.5t32 -27.5v32h106v-482zM139 475q0 -40 22 -61.5t54 -21.5t54.5 21.5t22.5 61.5t-22.5 61.5t-54.5 21.5t-54 -21.5t-22 -61.5z" />
    <glyph glyph-name="r.ordn" horiz-adv-x="288" 
d="M272 649v-109q-15 4 -31 4q-36 0 -59.5 -22t-23.5 -72v-150h-112v349h108v-45q11 23 34.5 35.5t48.5 12.5q19 0 35 -3z" />
    <glyph glyph-name="s.ordn" horiz-adv-x="342" 
d="M25 400l94 15q1 -18 14 -31t38 -13q39 0 39 28q0 19 -33 27l-38 8q-106 23 -106 109q0 49 38.5 83t96.5 34q69 0 103 -33t37 -72l-91 -16q-5 41 -47 41q-15 0 -25.5 -8t-10.5 -20q0 -20 26 -25l45 -9q53 -10 81 -40t28 -70q0 -49 -37 -83.5t-104 -34.5q-73 0 -109 35.5
t-39 74.5z" />
    <glyph glyph-name="t.ordn" horiz-adv-x="288" 
d="M188 750v-101h67v-97h-67v-125q0 -35 37 -35q14 0 30 2v-91q-23 -9 -58 -9q-55 0 -87 30t-32 83v145h-61v97h17q27 0 40.5 16t13.5 41v44h100z" />
    <glyph glyph-name="u.ordn" horiz-adv-x="420" 
d="M271 300q-3 11 -3 35q-26 -43 -92 -43q-62 0 -98 39.5t-36 96.5v221h111v-196q0 -26 14 -42t40 -16q25 0 40 15.5t15 40.5v198h112v-287q0 -32 3 -62h-106z" />
    <glyph glyph-name="v.ordn" horiz-adv-x="386" 
d="M384 649l-132 -349h-112l-143 349h120l79 -211l72 211h116z" />
    <glyph glyph-name="w.ordn" horiz-adv-x="611" 
d="M250 649h118l65 -200l56 200h109l-108 -349h-110l-74 221l-73 -221h-112l-109 349h115l56 -199z" />
    <glyph glyph-name="x.ordn" horiz-adv-x="390" 
d="M10 300l119 174l-122 175h131l59 -91l59 91h124l-120 -171l124 -178h-129l-63 94l-60 -94h-122z" />
    <glyph glyph-name="y.ordn" horiz-adv-x="392" 
d="M181 167h-117l79 181l-147 301h124l83 -181l74 181h118z" />
    <glyph glyph-name="z.ordn" horiz-adv-x="361" 
d="M328 300h-295v98l151 157h-146v94h287v-91l-158 -163h161v-95z" />
    <glyph glyph-name="space.tf" 
 />
    <glyph glyph-name="numbersign.tf" 
d="M527 649l-33 -152h83v-106h-105l-28 -128h82v-107h-105l-33 -156h-115l33 156h-101l-33 -156h-115l33 156h-80v107h103l28 128h-81v106h103l33 152h115l-33 -152h101l33 152h115zM256 391l-28 -128h101l28 128h-101z" />
    <glyph glyph-name="dollar.tf" 
d="M363 -116h-115v107q-97 16 -151 77.5t-60 130.5l138 31q3 -47 36 -78t94 -31q38 0 62 17t24 45q0 43 -62 57l-89 21q-84 21 -132 70.5t-48 119.5q0 81 53.5 136.5t134.5 69.5v108h115v-111q76 -17 118.5 -64.5t54.5 -105.5l-138 -37q-16 82 -102 82q-40 0 -62 -19
t-22 -45q0 -43 59 -57l87 -19q96 -21 141 -73.5t45 -124.5q0 -71 -48.5 -127t-132.5 -71v-109z" />
    <glyph glyph-name="percent.tf" 
d="M529 536v-101l-482 -328v100zM121 517q0 -25 14 -39.5t37 -14.5q22 0 36 15t14 39q0 25 -14 40t-36 15q-23 0 -37 -15t-14 -40zM27 517q0 60 42.5 101t102.5 41q59 0 101 -41t42 -101q0 -59 -42 -99.5t-102 -40.5t-102 41t-42 99zM372 133q0 -25 14 -39.5t37 -14.5
q22 0 36 15t14 39q0 25 -14 40t-36 15q-23 0 -37 -15t-14 -40zM278 133q0 60 42.5 101t102.5 41q59 0 101 -41t42 -101q0 -59 -42 -99.5t-102 -40.5t-102 41t-42 99z" />
    <glyph glyph-name="plus.tf" 
d="M40 360h190v195h128v-195h189v-124h-189v-195h-128v195h-190v124z" />
    <glyph glyph-name="comma.tf" 
d="M178 97q0 44 31.5 73.5t78.5 29.5q55 0 87 -40t32 -98q0 -61 -20 -110t-52 -78t-67 -45.5t-70 -20.5v78q40 8 74.5 40.5t35.5 79.5q-10 -8 -31 -8q-45 0 -72 28.5t-27 70.5z" />
    <glyph glyph-name="period.tf" 
d="M180 104q0 46 33 79.5t80 33.5t80.5 -33.5t33.5 -79.5t-34 -80t-80 -34t-79.5 34t-33.5 80z" />
    <glyph glyph-name="zero.tf" 
d="M188 324q0 -30 1 -49.5t4 -46t10 -43t18 -32.5t29.5 -23.5t43.5 -7.5q24 0 42.5 7.5t29.5 23.5t18 32.5t10 43t4 46t1 49.5q0 47 -2.5 75t-12 61t-32 49t-58.5 16t-59 -16t-32.5 -49t-12 -61t-2.5 -75zM29 324q0 155 52 233q33 50 88 78.5t125 28.5q141 0 212 -106
q52 -80 52 -234q0 -155 -52 -234q-71 -106 -212 -106q-142 0 -213 106q-52 79 -52 234z" />
    <glyph glyph-name="one.tf" 
d="M69 131h163v291h-146v105q70 1 114.5 35.5t53.5 86.5h136v-518h148v-131h-469v131z" />
    <glyph glyph-name="two.tf" 
d="M203 389l-148 1q-6 16 -6 54q0 92 65.5 156t177.5 64q109 0 175 -61.5t66 -151.5q0 -126 -128 -202l-123 -73q-33 -21 -44 -44h300v-132h-493q0 96 34.5 166.5t118.5 119.5l106 62q39 23 55 45.5t16 54.5q0 33 -22.5 55t-64.5 22q-44 0 -67.5 -27t-23.5 -69q0 -21 6 -40z
" />
    <glyph glyph-name="three.tf" 
d="M233 282l-68 104l160 131h-271v132h468v-122l-160 -124q77 -5 129.5 -60.5t52.5 -137.5q0 -90 -69.5 -154.5t-185.5 -64.5q-109 0 -179 60.5t-78 147.5l152 28q2 -44 30.5 -73t73.5 -29q44 0 70.5 26t26.5 63q0 43 -28 65.5t-66 22.5q-30 0 -58 -15z" />
    <glyph glyph-name="four.tf" 
d="M21 135v160l266 354h187v-382h91v-132h-91v-135h-157v135h-296zM317 267v214l-158 -214h158z" />
    <glyph glyph-name="five.tf" 
d="M39 185l146 30q2 -40 30.5 -68.5t74.5 -28.5q41 0 69 25.5t28 68.5q0 46 -29.5 71t-71.5 25q-57 0 -91 -42l-23 8q-22 7 -47.5 15t-47.5 15t-23 8l73 337h377v-132h-268l-26 -122q40 35 110 35q102 0 163 -57t61 -160q0 -95 -68.5 -162t-185.5 -67q-104 0 -174.5 60.5
t-76.5 140.5z" />
    <glyph glyph-name="six.tf" 
d="M545 637l-41 -128q-52 20 -107 20q-79 0 -137 -42t-70 -126q18 30 57 50.5t93 20.5q95 0 154.5 -60t59.5 -155q0 -100 -71 -166t-181 -66q-115 0 -190 80t-75 216q0 173 102.5 278t271.5 105q89 0 134 -27zM203 211q0 -40 28.5 -67t68.5 -27q41 0 69 26t28 68t-28 68.5
t-69 26.5q-40 0 -68.5 -26.5t-28.5 -68.5z" />
    <glyph glyph-name="seven.tf" 
d="M561 649v-126q-236 -205 -263 -523h-164q7 94 34.5 182t62 146t67.5 103t56 65l22 21h-343v132h528z" />
    <glyph glyph-name="eight.tf" 
d="M293 388q40 1 61.5 22.5t21.5 53.5q0 28 -22.5 49t-60.5 21t-60.5 -21t-22.5 -49q0 -31 21.5 -53t61.5 -23zM293 113q45 0 71 24.5t26 56.5q0 33 -25 58t-72 25q-46 0 -71 -25t-25 -58q0 -32 26 -56.5t70 -24.5zM293 -15q-111 0 -180.5 53t-69.5 138q0 51 30 94.5
t80 63.5q-47 17 -72.5 58.5t-25.5 83.5q0 82 66.5 135t171.5 53t172 -53t67 -135q0 -42 -26 -83.5t-73 -58.5q51 -20 81 -63.5t30 -94.5q0 -85 -70 -138t-181 -53z" />
    <glyph glyph-name="nine.tf" 
d="M49 19l35 127q50 -26 113 -26q81 0 135.5 39.5t61.5 120.5q-20 -29 -57.5 -46t-80.5 -17q-93 0 -156 61t-63 157q0 100 69.5 164.5t179.5 64.5q113 0 186 -82t73 -230q0 -172 -90 -269.5t-255 -97.5q-92 0 -151 34zM373 440q0 40 -27 65.5t-66 25.5t-66 -25.5t-27 -65.5
t27 -65.5t66 -25.5t66 26t27 65z" />
    <glyph glyph-name="colon.tf" 
d="M185 86q0 44 32 76t76 32t76.5 -32t32.5 -76t-32.5 -76t-76.5 -32t-76 32t-32 76zM185 405q0 44 32 76t76 32t76.5 -32t32.5 -76t-32.5 -76t-76.5 -32t-76 32t-32 76z" />
    <glyph glyph-name="semicolon.tf" 
d="M185 94q0 41 30 68.5t74 27.5q52 0 81.5 -37.5t29.5 -91.5q0 -75 -33 -129.5t-75 -78.5t-88 -30v74q37 7 69.5 37.5t33.5 73.5q-9 -7 -29 -7q-41 0 -67 26.5t-26 66.5zM186 404q0 44 32 76t76 32t76.5 -32t32.5 -76t-32.5 -76t-76.5 -32t-76 32t-32 76z" />
    <glyph glyph-name="less.tf" 
d="M60 244v108l439 224v-138l-288 -137l288 -139v-140z" />
    <glyph glyph-name="equal.tf" 
d="M541 339h-495v122h495v-122zM541 138h-495v122h495v-122z" />
    <glyph glyph-name="greater.tf" 
d="M527 353v-108l-439 -223v137l288 138l-288 139v140z" />
    <glyph glyph-name="cent.tf" 
d="M362 0h-115v84q-84 20 -137 83.5t-53 151.5q0 90 53 154.5t137 82.5v93h115v-92q69 -14 113.5 -56.5t58.5 -97.5l-130 -38q-20 69 -94 69q-47 0 -77.5 -31t-30.5 -84t31 -83t79 -30q38 0 63.5 20t33.5 48l128 -38q-14 -56 -60 -99t-115 -56v-81z" />
    <glyph glyph-name="sterling.tf" 
d="M55 383h57q-14 42 -14 84q0 79 58.5 138t158.5 59q56 0 98 -17.5t65 -46t34 -60t11 -64.5v-5l-131 -19v5q0 38 -18.5 60.5t-56.5 22.5q-33 0 -53.5 -20t-20.5 -58q0 -35 17 -79h176v-110h-141q1 -6 1 -18q0 -84 -62 -125h112q32 0 53 20.5t21 53.5l132 -8
q0 -85 -51.5 -140.5t-134.5 -55.5h-315v118q104 36 104 122q0 16 -3 33h-97v110z" />
    <glyph glyph-name="currency.tf" 
d="M76 248q0 54 25 101l-71 72l91 90l74 -74q46 23 99 23q57 0 98 -23l74 74l91 -90l-71 -72q26 -44 26 -101q0 -53 -26 -102l71 -70l-91 -91l-73 74q-46 -23 -99 -23t-99 23l-74 -74l-91 91l72 71q-26 44 -26 101zM201 248q0 -40 26 -65.5t67 -25.5t67 25.5t26 65.5
t-26 65.5t-67 25.5t-67 -25.5t-26 -65.5z" />
    <glyph glyph-name="yen.tf" 
d="M532 125h-167v-125h-147v125h-157v106h157v63h-157v106h85l-135 249h170l115 -236l115 236h163l-138 -249h96v-106h-167v-63h167v-106z" />
    <glyph glyph-name="section.tf" 
d="M509 258q0 -81 -73 -126q72 -56 72 -140q0 -87 -64.5 -142t-150.5 -55q-97 0 -155.5 51t-63.5 137l143 22q0 -41 21 -60.5t55 -19.5q28 0 45.5 16t17.5 41q0 35 -36 51l-101 51q-67 34 -104.5 74t-37.5 103q0 84 73 126q-71 56 -71 141q0 87 64.5 141.5t151.5 54.5
q96 0 154.5 -51.5t62.5 -136.5l-142 -22q0 80 -75 80q-29 0 -46.5 -16.5t-17.5 -40.5q0 -34 36 -50l101 -52q67 -35 104 -74t37 -103zM340 283l-102 54q-24 -22 -24 -45q0 -37 33 -55l102 -54q25 23 25 45q0 37 -34 55z" />
    <glyph glyph-name="logicalnot.tf" 
d="M535 129h-130v195h-373v125h503v-320z" />
    <glyph glyph-name="plusminus.tf" 
d="M52 438h177v117h128v-117h178v-124h-178v-116h-128v116h-177v124zM52 164h483v-124h-483v124z" />
    <glyph glyph-name="multiply.tf" 
d="M458 43l-164 165l-164 -165l-90 92l163 164l-163 165l90 90l164 -165l164 165l90 -90l-164 -165l164 -164z" />
    <glyph glyph-name="divide.tf" 
d="M205 486q0 35 25 59.5t60 24.5t60 -24.5t25 -59.5t-25 -60t-60 -25t-60 25t-25 60zM41 237v124h505v-124h-505zM205 114q0 34 25 58.5t60 24.5t60 -24.5t25 -58.5q0 -35 -25 -60t-60 -25t-60 25t-25 60z" />
    <glyph glyph-name="florin.tf" 
d="M143 30l69 340h-93v126h118l17 82q16 80 73 121.5t125 41.5q50 0 97 -16v-130q-34 8 -67 8q-24 0 -47 -15t-31 -53l-8 -39h110v-126h-136l-77 -383q-16 -81 -73 -122t-125 -41q-52 0 -100 15v131q32 -8 70 -8q24 0 47 15t31 53z" />
    <glyph glyph-name="uni2007.tf" 
 />
    <glyph glyph-name="uni2008.tf" 
 />
    <glyph glyph-name="perthousand.tf" 
d="M536 606v-101l-493 -337v100zM106 536q0 -22 12.5 -35.5t32.5 -13.5t32.5 13.5t12.5 35.5q0 21 -12.5 34.5t-32.5 13.5t-32.5 -13.5t-12.5 -34.5zM24 536q0 52 37.5 88.5t89.5 36.5t89.5 -36.5t37.5 -88.5q0 -53 -37.5 -88.5t-89.5 -35.5q-53 0 -90 36t-37 88zM132 116
q0 52 37.5 88.5t88.5 36.5t89 -36q38 36 89 36q52 0 89.5 -36.5t37.5 -88.5q0 -53 -37.5 -88.5t-89.5 -35.5t-89 35q-37 -35 -89 -35q-53 0 -89.5 36t-36.5 88zM436 164q-20 0 -32.5 -13t-12.5 -35t12.5 -35.5t32.5 -13.5t32.5 13.5t12.5 35.5q0 21 -12.5 34.5t-32.5 13.5z
M258 164q-19 0 -32 -13.5t-13 -34.5t13 -35t32 -14q20 0 32.5 13.5t12.5 35.5q0 21 -12.5 34.5t-32.5 13.5z" />
    <glyph glyph-name="Euro.tf" 
d="M93 323q0 13 1 26h-62v101h83q37 98 123 156t194 58q72 0 127 -22l-38 -129q-36 15 -89 15q-100 0 -150 -78h222l-28 -101h-225q-1 -13 -1 -26q0 -14 1 -28h210l-27 -102h-147q50 -69 146 -69q54 0 90 15l36 -128q-52 -27 -126 -27q-111 0 -196 55.5t-122 153.5h-83v102
h62q-1 13 -1 28z" />
    <glyph glyph-name="uni20B4.tf" 
d="M291 -15q-95 0 -161.5 50t-66.5 125q0 36 13 62h-43v88h520v-88h-330q-17 -17 -17 -40q0 -30 22.5 -49t60.5 -19q94 0 119 81l133 -32q-5 -29 -21 -58t-44.5 -57t-76.5 -45.5t-108 -17.5zM33 361v88h337q7 14 7 32q0 24 -20.5 40t-55.5 16q-45 0 -66.5 -20.5t-25.5 -45.5
l-131 37q12 62 69 110t161 48q86 0 148.5 -47.5t62.5 -120.5q0 -21 -8 -49h42v-88h-520z" />
    <glyph glyph-name="uni20B8.tf" 
d="M214 0v392h-187v102h533v-102h-188v-392h-158zM27 548v101h533v-101h-533z" />
    <glyph glyph-name="uni20B9.tf" 
d="M299 0l-213 247l53 94h54q45 0 74.5 25.5t29.5 65.5q0 41 -26 67t-70 26h-181l72 124h475l-63 -112h-352v101h57q121 0 183.5 -56t62.5 -150q0 -87 -52 -138.5t-143 -65.5h-89v48h87l242 -276h-201zM20 384l63 112h484l-63 -112h-484z" />
    <glyph glyph-name="uni20BD.tf" 
d="M105 0v112h-85v96h85v51h-85v95h85v295h234q97 0 158.5 -55t61.5 -140q0 -86 -61.5 -140.5t-158.5 -54.5h-84v-51h205v-96h-205v-112h-150zM256 378h67q39 0 63 20.5t24 54.5q0 36 -23.5 56t-63.5 20h-67v-151z" />
    <glyph glyph-name="afii61352.tf" 
d="M10 0v649h121l84 -369v369h100v-649h-117l-88 382v-382h-100zM352 308v74h213v-74h-213zM460 491q18 0 31 12.5t13 33.5q0 22 -12.5 35t-31.5 13t-31.5 -13t-12.5 -35q0 -21 13 -33.5t31 -12.5zM461 418q-54 0 -88.5 33t-34.5 86q0 54 35 88t87 34t87 -34t35 -88
q0 -53 -34.5 -86t-86.5 -33z" />
    <glyph glyph-name="minus.tf" 
d="M544 237h-501v124h501v-124z" />
    <glyph glyph-name="approxequal.tf" 
d="M486 479l80 -65q-57 -107 -170 -109q-56 0 -112 31l-48 26q-25 13 -50 13q-50 0 -84 -49l-82 65q28 52 72.5 80.5t98.5 28.5q56 0 110 -29l48 -26q26 -14 51 -14q55 0 86 48zM486 275l80 -66q-27 -52 -72 -80t-99 -28q-55 0 -111 30l-48 26q-25 13 -51 13q-49 0 -83 -48
l-82 65q27 51 71.5 79.5t96.5 28.5q58 0 113 -29l48 -26q26 -14 51 -14q53 0 86 49z" />
    <glyph glyph-name="notequal.tf" 
d="M543 138h-275l-59 -96h-132l59 96h-88v122h163l48 79h-211v122h286l54 88h132l-54 -88h77v-122h-152l-48 -79h200v-122z" />
    <glyph glyph-name="lessequal.tf" 
d="M69 164h439v-124h-439v124zM69 322v120l439 130v-123l-266 -65l266 -66v-126z" />
    <glyph glyph-name="greaterequal.tf" 
d="M79 164h439v-124h-439v124zM518 442v-120l-439 -130v123l266 65l-266 67v125z" />
    <glyph glyph-name="parenleft.case" horiz-adv-x="346" 
d="M41 355q0 274 197 478l90 -75q-81 -97 -121 -188.5t-40 -214.5t40 -215t121 -188l-90 -75q-92 96 -144.5 210t-52.5 268z" />
    <glyph glyph-name="parenright.case" horiz-adv-x="346" 
d="M305 355q0 -154 -52.5 -268.5t-144.5 -209.5l-90 75q81 96 121 188t40 215t-40 214.5t-121 188.5l90 75q197 -202 197 -478z" />
    <glyph glyph-name="hyphen.case" horiz-adv-x="420" 
d="M360 283h-300v137h300v-137z" />
    <glyph glyph-name="bracketleft.case" horiz-adv-x="370" 
d="M336 -118h-249v942h249v-113h-123v-713h123v-116z" />
    <glyph glyph-name="bracketright.case" horiz-adv-x="371" 
d="M284 -118h-250v116h124v713h-124v113h250v-942z" />
    <glyph glyph-name="braceleft.case" horiz-adv-x="393" 
d="M24 293v124q96 0 96 88v123q0 97 53 146.5t146 49.5h40v-113h-37q-32 0 -54 -19.5t-22 -62.5v-147q0 -46 -25.5 -79.5t-73.5 -47.5q47 -13 73 -47t26 -81v-147q0 -43 22 -62.5t54 -19.5h37v-113h-40q-93 0 -146 49.5t-53 147.5v123q0 88 -96 88z" />
    <glyph glyph-name="braceright.case" horiz-adv-x="394" 
d="M369 417v-124q-95 0 -95 -88v-123q0 -98 -53 -147.5t-147 -49.5h-40v113h37q32 0 54.5 19.5t22.5 62.5v147q0 47 25.5 81t72.5 47q-47 14 -72.5 47.5t-25.5 79.5v147q0 43 -22.5 62.5t-54.5 19.5h-37v113h40q94 0 147 -49.5t53 -146.5v-123q0 -88 95 -88z" />
    <glyph glyph-name="exclamdown.case" horiz-adv-x="318" 
d="M215 487l35 -487h-182l35 487h112zM73 632q0 36 25 61t61 25t61.5 -25t25.5 -61q0 -35 -25.5 -60.5t-61.5 -25.5t-61 25.5t-25 60.5z" />
    <glyph glyph-name="guillemotleft.case" horiz-adv-x="582" 
d="M312 152h-142l-138 195l140 200h141l-139 -201zM540 152h-143l-138 195l140 200h142l-139 -201z" />
    <glyph glyph-name="uni00AD.case" horiz-adv-x="420" 
d="M360 283h-300v137h300v-137z" />
    <glyph glyph-name="guillemotright.case" horiz-adv-x="583" 
d="M412 152h-142l138 194l-139 201h142l140 -200zM185 152h-143l139 194l-139 201h141l140 -200z" />
    <glyph glyph-name="questiondown.case" horiz-adv-x="538" 
d="M223 488h119q4 -28 4 -44q0 -85 -74 -141l-50 -38q-37 -29 -37 -70q0 -31 23 -53t66 -22q44 0 68 27t24 67q0 18 -5 38l143 -12q4 -19 4 -43q0 -92 -66 -152t-168 -60q-116 0 -179.5 58.5t-63.5 139.5q0 108 95 180l38 28q59 44 59 97zM195 633q0 36 25.5 61t60.5 25
q36 0 61 -25t25 -61q0 -35 -25 -60.5t-61 -25.5q-35 0 -60.5 25.5t-25.5 60.5z" />
    <glyph glyph-name="endash.case" horiz-adv-x="643" 
d="M580 286h-517v132h517v-132z" />
    <glyph glyph-name="emdash.case" horiz-adv-x="1059" 
d="M996 286h-933v132h933v-132z" />
    <glyph glyph-name="guilsinglleft.case" horiz-adv-x="354" 
d="M312 152h-142l-138 195l140 200h141l-139 -201z" />
    <glyph glyph-name="guilsinglright.case" horiz-adv-x="355" 
d="M185 152h-143l139 194l-139 201h142l139 -200z" />
    <glyph glyph-name="G.ss01" horiz-adv-x="782" 
d="M410 -15q-159 0 -265 103.5t-106 265.5q0 160 107 265t260 105q74 0 134.5 -21.5t99.5 -57t63.5 -74t34.5 -79.5l-156 -42q-11 45 -53 85.5t-123 40.5q-83 0 -144 -56t-61 -166q0 -105 59.5 -163.5t149.5 -58.5q61 0 109.5 28.5t60.5 81.5h-233v137h399q3 -21 3 -65
q-2 -140 -95 -234.5t-244 -94.5z" />
    <glyph glyph-name="Gcircumflex.ss01" horiz-adv-x="782" 
d="M360 759h-135l122 132h145l124 -132h-141l-58 65zM410 -15q-159 0 -265 103.5t-106 265.5q0 160 107 265t260 105q74 0 134.5 -21.5t99.5 -57t63.5 -74t34.5 -79.5l-156 -42q-11 45 -53 85.5t-123 40.5q-83 0 -144 -56t-61 -166q0 -105 59.5 -163.5t149.5 -58.5
q61 0 109.5 28.5t60.5 81.5h-233v137h399q3 -21 3 -65q-2 -140 -95 -234.5t-244 -94.5z" />
    <glyph glyph-name="Gbreve.ss01" horiz-adv-x="782" 
d="M400 753q-78 0 -121.5 41t-45.5 97h113q1 -22 15 -36t39 -14q26 0 40 14t15 36h112q-2 -56 -45 -97t-122 -41zM410 -15q-159 0 -265 103.5t-106 265.5q0 160 107 265t260 105q74 0 134.5 -21.5t99.5 -57t63.5 -74t34.5 -79.5l-156 -42q-11 45 -53 85.5t-123 40.5
q-83 0 -144 -56t-61 -166q0 -105 59.5 -163.5t149.5 -58.5q61 0 109.5 28.5t60.5 81.5h-233v137h399q3 -21 3 -65q-2 -140 -95 -234.5t-244 -94.5z" />
    <glyph glyph-name="Gdotaccent.ss01" horiz-adv-x="782" 
d="M319 846q0 37 25.5 62t63.5 25q37 0 63 -25t26 -62t-26 -62t-63 -25q-38 0 -63.5 25t-25.5 62zM410 -15q-159 0 -265 103.5t-106 265.5q0 160 107 265t260 105q74 0 134.5 -21.5t99.5 -57t63.5 -74t34.5 -79.5l-156 -42q-11 45 -53 85.5t-123 40.5q-83 0 -144 -56
t-61 -166q0 -105 59.5 -163.5t149.5 -58.5q61 0 109.5 28.5t60.5 81.5h-233v137h399q3 -21 3 -65q-2 -140 -95 -234.5t-244 -94.5z" />
    <glyph glyph-name="Gcommaaccent.ss01" horiz-adv-x="782" 
d="M333 -109q0 29 22 49t57 20q39 0 64.5 -27t25.5 -65t-13.5 -66t-36 -42.5t-45.5 -21t-48 -6.5q-6 0 -12 1v52q83 0 88 46q-14 -7 -31 -7q-34 0 -52.5 19t-18.5 48zM410 -15q-159 0 -265 103.5t-106 265.5q0 160 107 265t260 105q74 0 134.5 -21.5t99.5 -57t63.5 -74
t34.5 -79.5l-156 -42q-11 45 -53 85.5t-123 40.5q-83 0 -144 -56t-61 -166q0 -105 59.5 -163.5t149.5 -58.5q61 0 109.5 28.5t60.5 81.5h-233v137h399q3 -21 3 -65q-2 -140 -95 -234.5t-244 -94.5z" />
    <glyph glyph-name="a.ss02" horiz-adv-x="629" 
d="M190 249q0 -60 32.5 -96t81.5 -36q48 0 80.5 35.5t32.5 96.5q0 62 -32 96.5t-81 34.5q-51 0 -82.5 -34t-31.5 -97zM418 59v5q-17 -36 -52.5 -57t-81.5 -21q-109 0 -178 74.5t-69 189.5q0 113 67 187.5t175 74.5q59 0 93 -23.5t45 -48.5v57h147v-408q0 -45 4 -89h-146
q-4 22 -4 59z" />
    <glyph glyph-name="agrave.ss02" horiz-adv-x="629" 
d="M190 249q0 -60 32.5 -96t81.5 -36q48 0 80.5 35.5t32.5 96.5q0 62 -32 96.5t-81 34.5q-51 0 -82.5 -34t-31.5 -97zM418 59v5q-17 -36 -52.5 -57t-81.5 -21q-109 0 -178 74.5t-69 189.5q0 113 67 187.5t175 74.5q59 0 93 -23.5t45 -48.5v57h147v-408q0 -45 4 -89h-146
q-4 22 -4 59zM268 556l-142 151h173l93 -151h-124z" />
    <glyph glyph-name="aacute.ss02" horiz-adv-x="629" 
d="M475 707l-141 -151h-121l92 151h170zM190 249q0 -60 32.5 -96t81.5 -36q48 0 80.5 35.5t32.5 96.5q0 62 -32 96.5t-81 34.5q-51 0 -82.5 -34t-31.5 -97zM418 59v5q-17 -36 -52.5 -57t-81.5 -21q-109 0 -178 74.5t-69 189.5q0 113 67 187.5t175 74.5q59 0 93 -23.5
t45 -48.5v57h147v-408q0 -45 4 -89h-146q-4 22 -4 59z" />
    <glyph glyph-name="acircumflex.ss02" horiz-adv-x="629" 
d="M241 556h-113l113 151h143l114 -151h-116l-71 71zM190 249q0 -60 32.5 -96t81.5 -36q48 0 80.5 35.5t32.5 96.5q0 62 -32 96.5t-81 34.5q-51 0 -82.5 -34t-31.5 -97zM418 59v5q-17 -36 -52.5 -57t-81.5 -21q-109 0 -178 74.5t-69 189.5q0 113 67 187.5t175 74.5
q59 0 93 -23.5t45 -48.5v57h147v-408q0 -45 4 -89h-146q-4 22 -4 59z" />
    <glyph glyph-name="atilde.ss02" horiz-adv-x="629" 
d="M190 249q0 -60 32.5 -96t81.5 -36q48 0 80.5 35.5t32.5 96.5q0 62 -32 96.5t-81 34.5q-51 0 -82.5 -34t-31.5 -97zM418 59v5q-17 -36 -52.5 -57t-81.5 -21q-109 0 -178 74.5t-69 189.5q0 113 67 187.5t175 74.5q59 0 93 -23.5t45 -48.5v57h147v-408q0 -45 4 -89h-146
q-4 22 -4 59zM500 706v-20q0 -64 -30.5 -97t-81.5 -33q-32 0 -76 23q-42 21 -56 21q-33 0 -34 -43h-86v23q0 62 31.5 94.5t81.5 32.5q34 0 76 -23q37 -22 55 -22q33 0 35 44h85z" />
    <glyph glyph-name="adieresis.ss02" horiz-adv-x="629" 
d="M123 632q0 32 22 54.5t54 22.5t54.5 -22.5t22.5 -54.5t-22.5 -54t-54.5 -22t-54 22t-22 54zM344 632q0 32 22 54.5t54 22.5t54.5 -22.5t22.5 -54.5t-22.5 -54t-54.5 -22t-54 22t-22 54zM190 249q0 -60 32.5 -96t81.5 -36q48 0 80.5 35.5t32.5 96.5q0 62 -32 96.5
t-81 34.5q-51 0 -82.5 -34t-31.5 -97zM418 59v5q-17 -36 -52.5 -57t-81.5 -21q-109 0 -178 74.5t-69 189.5q0 113 67 187.5t175 74.5q59 0 93 -23.5t45 -48.5v57h147v-408q0 -45 4 -89h-146q-4 22 -4 59z" />
    <glyph glyph-name="aring.ss02" horiz-adv-x="629" 
d="M419 652q0 -48 -34 -79.5t-82 -31.5t-82 31.5t-34 79.5q0 49 34 81t82 32t82 -32t34 -81zM340 652q0 17 -10.5 27.5t-26.5 10.5t-26.5 -10.5t-10.5 -27.5t10.5 -27.5t26.5 -10.5t26.5 10.5t10.5 27.5zM190 249q0 -60 32.5 -96t81.5 -36q48 0 80.5 35.5t32.5 96.5
q0 62 -32 96.5t-81 34.5q-51 0 -82.5 -34t-31.5 -97zM418 59v5q-17 -36 -52.5 -57t-81.5 -21q-109 0 -178 74.5t-69 189.5q0 113 67 187.5t175 74.5q59 0 93 -23.5t45 -48.5v57h147v-408q0 -45 4 -89h-146q-4 22 -4 59z" />
    <glyph glyph-name="amacron.ss02" horiz-adv-x="629" 
d="M190 249q0 -60 32.5 -96t81.5 -36q48 0 80.5 35.5t32.5 96.5q0 62 -32 96.5t-81 34.5q-51 0 -82.5 -34t-31.5 -97zM418 59v5q-17 -36 -52.5 -57t-81.5 -21q-109 0 -178 74.5t-69 189.5q0 113 67 187.5t175 74.5q59 0 93 -23.5t45 -48.5v57h147v-408q0 -45 4 -89h-146
q-4 22 -4 59zM449 577h-286v105h286v-105z" />
    <glyph glyph-name="abreve.ss02" horiz-adv-x="629" 
d="M190 249q0 -60 32.5 -96t81.5 -36q48 0 80.5 35.5t32.5 96.5q0 62 -32 96.5t-81 34.5q-51 0 -82.5 -34t-31.5 -97zM418 59v5q-17 -36 -52.5 -57t-81.5 -21q-109 0 -178 74.5t-69 189.5q0 113 67 187.5t175 74.5q59 0 93 -23.5t45 -48.5v57h147v-408q0 -45 4 -89h-146
q-4 22 -4 59zM309 551q-78 0 -122 45t-46 111h96q2 -23 20 -39.5t52 -16.5t52 16.5t20 39.5h97q-2 -66 -46 -111t-123 -45z" />
    <glyph glyph-name="aogonek.ss02" horiz-adv-x="629" 
d="M515 -226q-56 0 -91 30t-35 79q0 76 71 117h-38q-4 22 -4 59v5q-17 -36 -52.5 -57t-81.5 -21q-109 0 -178 74.5t-69 189.5q0 113 67 187.5t175 74.5q59 0 93 -23.5t45 -48.5v57h147v-408q0 -49 4 -89q-31 -15 -53.5 -40t-22.5 -53q0 -20 13 -31.5t34 -11.5q15 0 29 2v-84
q-21 -8 -53 -8zM190 249q0 -60 32.5 -96t81.5 -36q48 0 80.5 35.5t32.5 96.5q0 62 -32 96.5t-81 34.5q-51 0 -82.5 -34t-31.5 -97z" />
    <glyph glyph-name="aringacute.ss02" horiz-adv-x="629" 
d="M506 944l-141 -151h-121l92 151h170zM422 651q0 -48 -34 -79.5t-82 -31.5t-82 31.5t-34 79.5q0 49 34 81t82 32t82 -32t34 -81zM343 651q0 17 -10.5 27.5t-26.5 10.5t-26.5 -10.5t-10.5 -27.5t10.5 -27.5t26.5 -10.5t26.5 10.5t10.5 27.5zM190 249q0 -60 32.5 -96
t81.5 -36q48 0 80.5 35.5t32.5 96.5q0 62 -32 96.5t-81 34.5q-51 0 -82.5 -34t-31.5 -97zM418 59v5q-17 -36 -52.5 -57t-81.5 -21q-109 0 -178 74.5t-69 189.5q0 113 67 187.5t175 74.5q59 0 93 -23.5t45 -48.5v57h147v-408q0 -45 4 -89h-146q-4 22 -4 59z" />
    <glyph glyph-name="r.ss03" horiz-adv-x="424" 
d="M216 497v-82q3 39 30.5 65t67.5 26q42 0 70.5 -28.5t28.5 -70.5q0 -41 -28.5 -69.5t-70.5 -28.5q-39 0 -67 25.5t-31 64.5v-399h-152v497h152z" />
    <glyph glyph-name="racute.ss03" horiz-adv-x="424" 
d="M371 707l-141 -151h-121l92 151h170zM216 497v-82q3 39 30.5 65t67.5 26q42 0 70.5 -28.5t28.5 -70.5q0 -41 -28.5 -69.5t-70.5 -28.5q-39 0 -67 25.5t-31 64.5v-399h-152v497h152z" />
    <glyph glyph-name="rcommaaccent.ss03" horiz-adv-x="424" 
d="M58 -109q0 29 22 49t57 20q39 0 64.5 -27t25.5 -65t-13.5 -66t-36 -42.5t-45.5 -21t-48 -6.5q-6 0 -12 1v52q83 0 88 46q-14 -7 -31 -7q-34 0 -52.5 19t-18.5 48zM216 497v-82q3 39 30.5 65t67.5 26q42 0 70.5 -28.5t28.5 -70.5q0 -41 -28.5 -69.5t-70.5 -28.5
q-39 0 -67 25.5t-31 64.5v-399h-152v497h152z" />
    <glyph glyph-name="rcaron.ss03" horiz-adv-x="424" 
d="M46 707h116l71 -72l70 72h113l-112 -151h-145zM216 497v-82q3 39 30.5 65t67.5 26q42 0 70.5 -28.5t28.5 -70.5q0 -41 -28.5 -69.5t-70.5 -28.5q-39 0 -67 25.5t-31 64.5v-399h-152v497h152z" />
    <glyph glyph-name="ampersand.ss04" horiz-adv-x="691" 
d="M371 228v127h297v-127h-66q-5 -104 -80 -173.5t-204 -69.5q-128 0 -203 61.5t-75 156.5q0 69 43.5 118.5t100.5 63.5q-46 14 -77.5 56.5t-31.5 92.5q0 82 64.5 136t165.5 54q117 0 176 -56.5t64 -140.5l-151 -16q-1 39 -23 63.5t-65 24.5q-31 0 -55 -19.5t-24 -51.5
q0 -39 27 -58.5t57 -19.5h11v-127h-4q-47 0 -83 -26.5t-36 -79.5q0 -41 31.5 -71t91.5 -30q54 0 86.5 29t35.5 83h-73z" />
    <glyph glyph-name="one.ss05" horiz-adv-x="514" 
d="M46 131h147v291h-146v105q70 1 114.5 35.5t53.5 86.5h135v-518h144v-131h-448v131z" />
    <glyph glyph-name="registered.ss06" horiz-adv-x="462" 
d="M39 526q0 80 56.5 136t135.5 56q80 0 136.5 -56.5t56.5 -135.5t-56.5 -135.5t-136.5 -56.5q-79 0 -135.5 56t-56.5 136zM94 526q0 -59 39.5 -99t97.5 -40t97.5 40t39.5 99t-39.5 99t-97.5 40t-97.5 -40t-39.5 -99zM253 431l-26 65h-11v-65h-58v196h86q29 0 49 -19t20 -47
q0 -37 -34 -55l36 -75h-62zM216 542h14q25 0 25 19t-25 19h-14v-38z" />
    <glyph glyph-name="quotedbl.ss08" horiz-adv-x="431" 
d="M38 637q0 35 23.5 59t58.5 24q34 0 57.5 -24t23.5 -59q0 -16 -4 -30l-50 -181h-54l-50 181zM229 637q0 35 23.5 59t58.5 24q34 0 57.5 -24t23.5 -59q0 -16 -4 -30l-50 -181h-54l-50 181z" />
    <glyph glyph-name="numbersign.ss08" horiz-adv-x="737" 
d="M375 709l-36 -182h122l36 182h117l-36 -182h126v-105h-146l-32 -160h127v-106h-148l-30 -156h-117l30 156h-122l-30 -156h-116l30 156h-117v106h138l32 160h-121v105h141l36 182h116zM319 422l-32 -160h122l32 160h-122z" />
    <glyph glyph-name="dollar.ss08" horiz-adv-x="593" 
d="M546 527l-136 -38q-5 32 -31.5 58.5t-81.5 26.5q-41 0 -67.5 -21.5t-26.5 -51.5q0 -52 68 -65l91 -17q94 -17 145.5 -73t51.5 -131q0 -74 -52 -134t-142 -76v-122h-115v121q-70 10 -120.5 46t-73.5 78.5t-27 88.5l139 34q5 -51 40 -84t101 -33q44 0 70 19.5t26 51.5
q0 25 -19.5 43t-53.5 25l-93 17q-86 16 -135.5 70t-49.5 130q0 82 55.5 141t140.5 74v121h115v-123q82 -16 126 -66t55 -110z" />
    </font>
</defs>
</svg>
